<?xml version='1.0' encoding='utf-8'?>
<svg height="547.30mm" viewBox="0.0 0.0 384.90 547.30" width="384.90mm" xmlns="http://www.w3.org/2000/svg" xmlns:cc="http://creativecommons.org/ns#" xmlns:dc="http://purl.org/dc/elements/1.1/" xmlns:inkscape="http://www.inkscape.org/namespaces/inkscape" xmlns:rdf="http://www.w3.org/1999/02/22-rdf-syntax-ns#" xmlns:svg="http://www.w3.org/2000/svg" xmlns:xlink="http://www.w3.org/1999/xlink">
<!--
UniversalBox - Box with various options for different styles and lids

Created with Boxes.py (https://boxes.hackerspace-bamberg.de/)
Creation date: 2026-01-04 23:09:15
Command line (remove spaces between dashes): boxes UniversalBox - -x - -y - -h - -output
-->
<title>UniversalBox</title>
<metadata>
<rdf:RDF><cc:Work>
<dc:title>Box - UniversalBox</dc:title>
<dc:date>2026-01-04 23:09:15</dc:date>
<dc:source>boxes UniversalBox --x 283.0 --y 80.0 --h 216.0 --thickness 3.0 --format svg --output 'D:\Programação\Projeto Caixa Criativa\Back-end\output\box_3c09afb9-431b-4bdd-b431-6c8d624f1b68.svg'</dc:source>
<dc:description>Box with various options for different styles and lids

Created with Boxes.py (https://boxes.hackerspace-bamberg.de/)
Command line: boxes UniversalBox --x 283.0 --y 80.0 --h 216.0 --thickness 3.0 --format svg --output 'D:\Programação\Projeto Caixa Criativa\Back-end\output\box_3c09afb9-431b-4bdd-b431-6c8d624f1b68.svg'
Command line short: boxes UniversalBox --x --y --h --output
</dc:description>
</cc:Work></rdf:RDF></metadata>
<g id="p-0" style="fill:none;stroke-linecap:round;stroke-linejoin:round;">
  <path d="M 10.100 537.300 H 110.100 V 527.300 H 10.100 V 537.300 Z" stroke="rgb(0,0,0)" stroke-width="0.20" />
  <text dominant-baseline="hanging" font-size="6px" style="font-family: sans-serif ; font-weight: normal; font-style: normal; fill: rgb(255,0,0)" text-anchor="middle" transform="matrix( 1.000 0.000 0.000 1.000 60.100 529.300 )">100.0mm, burn:0.10mm</text>
</g>
<g id="p-1" style="fill:none;stroke-linecap:round;stroke-linejoin:round;">
  <path d="M 25.600 522.400 H 22.700 C 22.600 522.400 22.700 522.500 22.700 522.400 V 519.600 C 22.700 519.500 22.600 519.600 22.700 519.600 H 28.500 C 28.600 519.600 28.500 519.500 28.500 519.600 V 522.400 C 28.500 522.500 28.600 522.400 28.500 522.400 H 25.600 Z" stroke="rgb(0,0,255)" stroke-width="0.20" />
  <path d="M 37.600 522.400 H 34.700 C 34.600 522.400 34.700 522.500 34.700 522.400 V 519.600 C 34.700 519.500 34.600 519.600 34.700 519.600 H 40.500 C 40.600 519.600 40.500 519.500 40.500 519.600 V 522.400 C 40.500 522.500 40.600 522.400 40.500 522.400 H 37.600 Z" stroke="rgb(0,0,255)" stroke-width="0.20" />
  <path d="M 49.600 522.400 H 46.700 C 46.600 522.400 46.700 522.500 46.700 522.400 V 519.600 C 46.700 519.500 46.600 519.600 46.700 519.600 H 52.500 C 52.600 519.600 52.500 519.500 52.500 519.600 V 522.400 C 52.500 522.500 52.600 522.400 52.500 522.400 H 49.600 Z" stroke="rgb(0,0,255)" stroke-width="0.20" />
  <path d="M 61.600 522.400 H 58.700 C 58.600 522.400 58.700 522.500 58.700 522.400 V 519.600 C 58.700 519.500 58.600 519.600 58.700 519.600 H 64.500 C 64.600 519.600 64.500 519.500 64.500 519.600 V 522.400 C 64.500 522.500 64.600 522.400 64.500 522.400 H 61.600 Z" stroke="rgb(0,0,255)" stroke-width="0.20" />
  <path d="M 73.600 522.400 H 70.700 C 70.600 522.400 70.700 522.500 70.700 522.400 V 519.600 C 70.700 519.500 70.600 519.600 70.700 519.600 H 76.500 C 76.600 519.600 76.500 519.500 76.500 519.600 V 522.400 C 76.500 522.500 76.600 522.400 76.500 522.400 H 73.600 Z" stroke="rgb(0,0,255)" stroke-width="0.20" />
  <path d="M 85.600 522.400 H 82.700 C 82.600 522.400 82.700 522.500 82.700 522.400 V 519.600 C 82.700 519.500 82.600 519.600 82.700 519.600 H 88.500 C 88.600 519.600 88.500 519.500 88.500 519.600 V 522.400 C 88.500 522.500 88.600 522.400 88.500 522.400 H 85.600 Z" stroke="rgb(0,0,255)" stroke-width="0.20" />
  <path d="M 97.600 522.400 H 94.700 C 94.600 522.400 94.700 522.500 94.700 522.400 V 519.600 C 94.700 519.500 94.600 519.600 94.700 519.600 H 100.500 C 100.600 519.600 100.500 519.500 100.500 519.600 V 522.400 C 100.500 522.500 100.600 522.400 100.500 522.400 H 97.600 Z" stroke="rgb(0,0,255)" stroke-width="0.20" />
  <path d="M 109.600 522.400 H 106.700 C 106.600 522.400 106.700 522.500 106.700 522.400 V 519.600 C 106.700 519.500 106.600 519.600 106.700 519.600 H 112.500 C 112.600 519.600 112.500 519.500 112.500 519.600 V 522.400 C 112.500 522.500 112.600 522.400 112.500 522.400 H 109.600 Z" stroke="rgb(0,0,255)" stroke-width="0.20" />
  <path d="M 121.600 522.400 H 118.700 C 118.600 522.400 118.700 522.500 118.700 522.400 V 519.600 C 118.700 519.500 118.600 519.600 118.700 519.600 H 124.500 C 124.600 519.600 124.500 519.500 124.500 519.600 V 522.400 C 124.500 522.500 124.600 522.400 124.500 522.400 H 121.600 Z" stroke="rgb(0,0,255)" stroke-width="0.20" />
  <path d="M 133.600 522.400 H 130.700 C 130.600 522.400 130.700 522.500 130.700 522.400 V 519.600 C 130.700 519.500 130.600 519.600 130.700 519.600 H 136.500 C 136.600 519.600 136.500 519.500 136.500 519.600 V 522.400 C 136.500 522.500 136.600 522.400 136.500 522.400 H 133.600 Z" stroke="rgb(0,0,255)" stroke-width="0.20" />
  <path d="M 145.600 522.400 H 142.700 C 142.600 522.400 142.700 522.500 142.700 522.400 V 519.600 C 142.700 519.500 142.600 519.600 142.700 519.600 H 148.500 C 148.600 519.600 148.500 519.500 148.500 519.600 V 522.400 C 148.500 522.500 148.600 522.400 148.500 522.400 H 145.600 Z" stroke="rgb(0,0,255)" stroke-width="0.20" />
  <path d="M 157.600 522.400 H 154.700 C 154.600 522.400 154.700 522.500 154.700 522.400 V 519.600 C 154.700 519.500 154.600 519.600 154.700 519.600 H 160.500 C 160.600 519.600 160.500 519.500 160.500 519.600 V 522.400 C 160.500 522.500 160.600 522.400 160.500 522.400 H 157.600 Z" stroke="rgb(0,0,255)" stroke-width="0.20" />
  <path d="M 169.600 522.400 H 166.700 C 166.600 522.400 166.700 522.500 166.700 522.400 V 519.600 C 166.700 519.500 166.600 519.600 166.700 519.600 H 172.500 C 172.600 519.600 172.500 519.500 172.500 519.600 V 522.400 C 172.500 522.500 172.600 522.400 172.500 522.400 H 169.600 Z" stroke="rgb(0,0,255)" stroke-width="0.20" />
  <path d="M 181.600 522.400 H 178.700 C 178.600 522.400 178.700 522.500 178.700 522.400 V 519.600 C 178.700 519.500 178.600 519.600 178.700 519.600 H 184.500 C 184.600 519.600 184.500 519.500 184.500 519.600 V 522.400 C 184.500 522.500 184.600 522.400 184.500 522.400 H 181.600 Z" stroke="rgb(0,0,255)" stroke-width="0.20" />
  <path d="M 193.600 522.400 H 190.700 C 190.600 522.400 190.700 522.500 190.700 522.400 V 519.600 C 190.700 519.500 190.600 519.600 190.700 519.600 H 196.500 C 196.600 519.600 196.500 519.500 196.500 519.600 V 522.400 C 196.500 522.500 196.600 522.400 196.500 522.400 H 193.600 Z" stroke="rgb(0,0,255)" stroke-width="0.20" />
  <path d="M 205.600 522.400 H 202.700 C 202.600 522.400 202.700 522.500 202.700 522.400 V 519.600 C 202.700 519.500 202.600 519.600 202.700 519.600 H 208.500 C 208.600 519.600 208.500 519.500 208.500 519.600 V 522.400 C 208.500 522.500 208.600 522.400 208.500 522.400 H 205.600 Z" stroke="rgb(0,0,255)" stroke-width="0.20" />
  <path d="M 217.600 522.400 H 214.700 C 214.600 522.400 214.700 522.500 214.700 522.400 V 519.600 C 214.700 519.500 214.600 519.600 214.700 519.600 H 220.500 C 220.600 519.600 220.500 519.500 220.500 519.600 V 522.400 C 220.500 522.500 220.600 522.400 220.500 522.400 H 217.600 Z" stroke="rgb(0,0,255)" stroke-width="0.20" />
  <path d="M 229.600 522.400 H 226.700 C 226.600 522.400 226.700 522.500 226.700 522.400 V 519.600 C 226.700 519.500 226.600 519.600 226.700 519.600 H 232.500 C 232.600 519.600 232.500 519.500 232.500 519.600 V 522.400 C 232.500 522.500 232.600 522.400 232.500 522.400 H 229.600 Z" stroke="rgb(0,0,255)" stroke-width="0.20" />
  <path d="M 241.600 522.400 H 238.700 C 238.600 522.400 238.700 522.500 238.700 522.400 V 519.600 C 238.700 519.500 238.600 519.600 238.700 519.600 H 244.500 C 244.600 519.600 244.500 519.500 244.500 519.600 V 522.400 C 244.500 522.500 244.600 522.400 244.500 522.400 H 241.600 Z" stroke="rgb(0,0,255)" stroke-width="0.20" />
  <path d="M 253.600 522.400 H 250.700 C 250.600 522.400 250.700 522.500 250.700 522.400 V 519.600 C 250.700 519.500 250.600 519.600 250.700 519.600 H 256.500 C 256.600 519.600 256.500 519.500 256.500 519.600 V 522.400 C 256.500 522.500 256.600 522.400 256.500 522.400 H 253.600 Z" stroke="rgb(0,0,255)" stroke-width="0.20" />
  <path d="M 265.600 522.400 H 262.700 C 262.600 522.400 262.700 522.500 262.700 522.400 V 519.600 C 262.700 519.500 262.600 519.600 262.700 519.600 H 268.500 C 268.600 519.600 268.500 519.500 268.500 519.600 V 522.400 C 268.500 522.500 268.600 522.400 268.500 522.400 H 265.600 Z" stroke="rgb(0,0,255)" stroke-width="0.20" />
  <path d="M 277.600 522.400 H 274.700 C 274.600 522.400 274.700 522.500 274.700 522.400 V 519.600 C 274.700 519.500 274.600 519.600 274.700 519.600 H 280.500 C 280.600 519.600 280.500 519.500 280.500 519.600 V 522.400 C 280.500 522.500 280.600 522.400 280.500 522.400 H 277.600 Z" stroke="rgb(0,0,255)" stroke-width="0.20" />
  <text dominant-baseline="hanging" font-size="4px" style="font-family: sans-serif ; font-weight: normal; font-style: normal; fill: rgb(255,0,0)" text-anchor="middle" transform="matrix( 1.000 0.000 0.000 1.000 151.600 415.600 )">front</text><path d="M 13.100 525.600 H 290.100 H 293.100 C 293.155 525.600 293.200 525.555 293.200 525.500 V 516.500 C 293.200 516.445 293.155 516.400 293.100 516.400 H 290.200 C 290.100 516.400 290.200 516.500 290.200 516.400 V 510.600 C 290.200 510.500 290.100 510.600 290.200 510.600 H 293.100 C 293.155 510.600 293.200 510.555 293.200 510.500 V 504.500 C 293.200 504.445 293.155 504.400 293.100 504.400 H 290.200 C 290.100 504.400 290.200 504.500 290.200 504.400 V 498.600 C 290.200 498.500 290.100 498.600 290.200 498.600 H 293.100 C 293.155 498.600 293.200 498.555 293.200 498.500 V 492.500 C 293.200 492.445 293.155 492.400 293.100 492.400 H 290.200 C 290.100 492.400 290.200 492.500 290.200 492.400 V 486.600 C 290.200 486.500 290.100 486.600 290.200 486.600 H 293.100 C 293.155 486.600 293.200 486.555 293.200 486.500 V 480.500 C 293.200 480.445 293.155 480.400 293.100 480.400 H 290.200 C 290.100 480.400 290.200 480.500 290.200 480.400 V 474.600 C 290.200 474.500 290.100 474.600 290.200 474.600 H 293.100 C 293.155 474.600 293.200 474.555 293.200 474.500 V 468.500 C 293.200 468.445 293.155 468.400 293.100 468.400 H 290.200 C 290.100 468.400 290.200 468.500 290.200 468.400 V 462.600 C 290.200 462.500 290.100 462.600 290.200 462.600 H 293.100 C 293.155 462.600 293.200 462.555 293.200 462.500 V 456.500 C 293.200 456.445 293.155 456.400 293.100 456.400 H 290.200 C 290.100 456.400 290.200 456.500 290.200 456.400 V 450.600 C 290.200 450.500 290.100 450.600 290.200 450.600 H 293.100 C 293.155 450.600 293.200 450.555 293.200 450.500 V 444.500 C 293.200 444.445 293.155 444.400 293.100 444.400 H 290.200 C 290.100 444.400 290.200 444.500 290.200 444.400 V 438.600 C 290.200 438.500 290.100 438.600 290.200 438.600 H 293.100 C 293.155 438.600 293.200 438.555 293.200 438.500 V 432.500 C 293.200 432.445 293.155 432.400 293.100 432.400 H 290.200 C 290.100 432.400 290.200 432.500 290.200 432.400 V 426.600 C 290.200 426.500 290.100 426.600 290.200 426.600 H 293.100 C 293.155 426.600 293.200 426.555 293.200 426.500 V 420.500 C 293.200 420.445 293.155 420.400 293.100 420.400 H 290.200 C 290.100 420.400 290.200 420.500 290.200 420.400 V 414.600 C 290.200 414.500 290.100 414.600 290.200 414.600 H 293.100 C 293.155 414.600 293.200 414.555 293.200 414.500 V 408.500 C 293.200 408.445 293.155 408.400 293.100 408.400 H 290.200 C 290.100 408.400 290.200 408.500 290.200 408.400 V 402.600 C 290.200 402.500 290.100 402.600 290.200 402.600 H 293.100 C 293.155 402.600 293.200 402.555 293.200 402.500 V 396.500 C 293.200 396.445 293.155 396.400 293.100 396.400 H 290.200 C 290.100 396.400 290.200 396.500 290.200 396.400 V 390.600 C 290.200 390.500 290.100 390.600 290.200 390.600 H 293.100 C 293.155 390.600 293.200 390.555 293.200 390.500 V 384.500 C 293.200 384.445 293.155 384.400 293.100 384.400 H 290.200 C 290.100 384.400 290.200 384.500 290.200 384.400 V 378.600 C 290.200 378.500 290.100 378.600 290.200 378.600 H 293.100 C 293.155 378.600 293.200 378.555 293.200 378.500 V 372.500 C 293.200 372.445 293.155 372.400 293.100 372.400 H 290.200 C 290.100 372.400 290.200 372.500 290.200 372.400 V 366.600 C 290.200 366.500 290.100 366.600 290.200 366.600 H 293.100 C 293.155 366.600 293.200 366.555 293.200 366.500 V 360.500 C 293.200 360.445 293.155 360.400 293.100 360.400 H 290.200 C 290.100 360.400 290.200 360.500 290.200 360.400 V 354.600 C 290.200 354.500 290.100 354.600 290.200 354.600 H 293.100 C 293.155 354.600 293.200 354.555 293.200 354.500 V 348.500 C 293.200 348.445 293.155 348.400 293.100 348.400 H 290.200 C 290.100 348.400 290.200 348.500 290.200 348.400 V 342.600 C 290.200 342.500 290.100 342.600 290.200 342.600 H 293.100 C 293.155 342.600 293.200 342.555 293.200 342.500 V 336.500 C 293.200 336.445 293.155 336.400 293.100 336.400 H 290.200 C 290.100 336.400 290.200 336.500 290.200 336.400 V 330.600 C 290.200 330.500 290.100 330.600 290.200 330.600 H 293.100 C 293.155 330.600 293.200 330.555 293.200 330.500 V 324.500 C 293.200 324.445 293.155 324.400 293.100 324.400 H 290.200 C 290.100 324.400 290.200 324.500 290.200 324.400 V 318.600 C 290.200 318.500 290.100 318.600 290.200 318.600 H 293.100 C 293.155 318.600 293.200 318.555 293.200 318.500 V 309.500 C 293.200 309.445 293.155 309.400 293.100 309.400 H 290.100 H 13.100 H 10.100 C 10.045 309.400 10.000 309.445 10.000 309.500 V 318.500 C 10.000 318.555 10.045 318.600 10.100 318.600 H 13.000 C 13.100 318.600 13.000 318.500 13.000 318.600 V 324.400 C 13.000 324.500 13.100 324.400 13.000 324.400 H 10.100 C 10.045 324.400 10.000 324.445 10.000 324.500 V 330.500 C 10.000 330.555 10.045 330.600 10.100 330.600 H 13.000 C 13.100 330.600 13.000 330.500 13.000 330.600 V 336.400 C 13.000 336.500 13.100 336.400 13.000 336.400 H 10.100 C 10.045 336.400 10.000 336.445 10.000 336.500 V 342.500 C 10.000 342.555 10.045 342.600 10.100 342.600 H 13.000 C 13.100 342.600 13.000 342.500 13.000 342.600 V 348.400 C 13.000 348.500 13.100 348.400 13.000 348.400 H 10.100 C 10.045 348.400 10.000 348.445 10.000 348.500 V 354.500 C 10.000 354.555 10.045 354.600 10.100 354.600 H 13.000 C 13.100 354.600 13.000 354.500 13.000 354.600 V 360.400 C 13.000 360.500 13.100 360.400 13.000 360.400 H 10.100 C 10.045 360.400 10.000 360.445 10.000 360.500 V 366.500 C 10.000 366.555 10.045 366.600 10.100 366.600 H 13.000 C 13.100 366.600 13.000 366.500 13.000 366.600 V 372.400 C 13.000 372.500 13.100 372.400 13.000 372.400 H 10.100 C 10.045 372.400 10.000 372.445 10.000 372.500 V 378.500 C 10.000 378.555 10.045 378.600 10.100 378.600 H 13.000 C 13.100 378.600 13.000 378.500 13.000 378.600 V 384.400 C 13.000 384.500 13.100 384.400 13.000 384.400 H 10.100 C 10.045 384.400 10.000 384.445 10.000 384.500 V 390.500 C 10.000 390.555 10.045 390.600 10.100 390.600 H 13.000 C 13.100 390.600 13.000 390.500 13.000 390.600 V 396.400 C 13.000 396.500 13.100 396.400 13.000 396.400 H 10.100 C 10.045 396.400 10.000 396.445 10.000 396.500 V 402.500 C 10.000 402.555 10.045 402.600 10.100 402.600 H 13.000 C 13.100 402.600 13.000 402.500 13.000 402.600 V 408.400 C 13.000 408.500 13.100 408.400 13.000 408.400 H 10.100 C 10.045 408.400 10.000 408.445 10.000 408.500 V 414.500 C 10.000 414.555 10.045 414.600 10.100 414.600 H 13.000 C 13.100 414.600 13.000 414.500 13.000 414.600 V 420.400 C 13.000 420.500 13.100 420.400 13.000 420.400 H 10.100 C 10.045 420.400 10.000 420.445 10.000 420.500 V 426.500 C 10.000 426.555 10.045 426.600 10.100 426.600 H 13.000 C 13.100 426.600 13.000 426.500 13.000 426.600 V 432.400 C 13.000 432.500 13.100 432.400 13.000 432.400 H 10.100 C 10.045 432.400 10.000 432.445 10.000 432.500 V 438.500 C 10.000 438.555 10.045 438.600 10.100 438.600 H 13.000 C 13.100 438.600 13.000 438.500 13.000 438.600 V 444.400 C 13.000 444.500 13.100 444.400 13.000 444.400 H 10.100 C 10.045 444.400 10.000 444.445 10.000 444.500 V 450.500 C 10.000 450.555 10.045 450.600 10.100 450.600 H 13.000 C 13.100 450.600 13.000 450.500 13.000 450.600 V 456.400 C 13.000 456.500 13.100 456.400 13.000 456.400 H 10.100 C 10.045 456.400 10.000 456.445 10.000 456.500 V 462.500 C 10.000 462.555 10.045 462.600 10.100 462.600 H 13.000 C 13.100 462.600 13.000 462.500 13.000 462.600 V 468.400 C 13.000 468.500 13.100 468.400 13.000 468.400 H 10.100 C 10.045 468.400 10.000 468.445 10.000 468.500 V 474.500 C 10.000 474.555 10.045 474.600 10.100 474.600 H 13.000 C 13.100 474.600 13.000 474.500 13.000 474.600 V 480.400 C 13.000 480.500 13.100 480.400 13.000 480.400 H 10.100 C 10.045 480.400 10.000 480.445 10.000 480.500 V 486.500 C 10.000 486.555 10.045 486.600 10.100 486.600 H 13.000 C 13.100 486.600 13.000 486.500 13.000 486.600 V 492.400 C 13.000 492.500 13.100 492.400 13.000 492.400 H 10.100 C 10.045 492.400 10.000 492.445 10.000 492.500 V 498.500 C 10.000 498.555 10.045 498.600 10.100 498.600 H 13.000 C 13.100 498.600 13.000 498.500 13.000 498.600 V 504.400 C 13.000 504.500 13.100 504.400 13.000 504.400 H 10.100 C 10.045 504.400 10.000 504.445 10.000 504.500 V 510.500 C 10.000 510.555 10.045 510.600 10.100 510.600 H 13.000 C 13.100 510.600 13.000 510.500 13.000 510.600 V 516.400 C 13.000 516.500 13.100 516.400 13.000 516.400 H 10.100 C 10.045 516.400 10.000 516.445 10.000 516.500 V 525.500 C 10.000 525.555 10.045 525.600 10.100 525.600 H 13.100" stroke="rgb(0,0,0)" stroke-width="0.20" />
</g>
<g id="p-2" style="fill:none;stroke-linecap:round;stroke-linejoin:round;">
  <path d="M 25.600 304.700 H 22.700 C 22.600 304.700 22.700 304.800 22.700 304.700 V 301.900 C 22.700 301.800 22.600 301.900 22.700 301.900 H 28.500 C 28.600 301.900 28.500 301.800 28.500 301.900 V 304.700 C 28.500 304.800 28.600 304.700 28.500 304.700 H 25.600 Z" stroke="rgb(0,0,255)" stroke-width="0.20" />
  <path d="M 37.600 304.700 H 34.700 C 34.600 304.700 34.700 304.800 34.700 304.700 V 301.900 C 34.700 301.800 34.600 301.900 34.700 301.900 H 40.500 C 40.600 301.900 40.500 301.800 40.500 301.900 V 304.700 C 40.500 304.800 40.600 304.700 40.500 304.700 H 37.600 Z" stroke="rgb(0,0,255)" stroke-width="0.20" />
  <path d="M 49.600 304.700 H 46.700 C 46.600 304.700 46.700 304.800 46.700 304.700 V 301.900 C 46.700 301.800 46.600 301.900 46.700 301.900 H 52.500 C 52.600 301.900 52.500 301.800 52.500 301.900 V 304.700 C 52.500 304.800 52.600 304.700 52.500 304.700 H 49.600 Z" stroke="rgb(0,0,255)" stroke-width="0.20" />
  <path d="M 61.600 304.700 H 58.700 C 58.600 304.700 58.700 304.800 58.700 304.700 V 301.900 C 58.700 301.800 58.600 301.900 58.700 301.900 H 64.500 C 64.600 301.900 64.500 301.800 64.500 301.900 V 304.700 C 64.500 304.800 64.600 304.700 64.500 304.700 H 61.600 Z" stroke="rgb(0,0,255)" stroke-width="0.20" />
  <path d="M 73.600 304.700 H 70.700 C 70.600 304.700 70.700 304.800 70.700 304.700 V 301.900 C 70.700 301.800 70.600 301.900 70.700 301.900 H 76.500 C 76.600 301.900 76.500 301.800 76.500 301.900 V 304.700 C 76.500 304.800 76.600 304.700 76.500 304.700 H 73.600 Z" stroke="rgb(0,0,255)" stroke-width="0.20" />
  <path d="M 85.600 304.700 H 82.700 C 82.600 304.700 82.700 304.800 82.700 304.700 V 301.900 C 82.700 301.800 82.600 301.900 82.700 301.900 H 88.500 C 88.600 301.900 88.500 301.800 88.500 301.900 V 304.700 C 88.500 304.800 88.600 304.700 88.500 304.700 H 85.600 Z" stroke="rgb(0,0,255)" stroke-width="0.20" />
  <path d="M 97.600 304.700 H 94.700 C 94.600 304.700 94.700 304.800 94.700 304.700 V 301.900 C 94.700 301.800 94.600 301.900 94.700 301.900 H 100.500 C 100.600 301.900 100.500 301.800 100.500 301.900 V 304.700 C 100.500 304.800 100.600 304.700 100.500 304.700 H 97.600 Z" stroke="rgb(0,0,255)" stroke-width="0.20" />
  <path d="M 109.600 304.700 H 106.700 C 106.600 304.700 106.700 304.800 106.700 304.700 V 301.900 C 106.700 301.800 106.600 301.900 106.700 301.900 H 112.500 C 112.600 301.900 112.500 301.800 112.500 301.900 V 304.700 C 112.500 304.800 112.600 304.700 112.500 304.700 H 109.600 Z" stroke="rgb(0,0,255)" stroke-width="0.20" />
  <path d="M 121.600 304.700 H 118.700 C 118.600 304.700 118.700 304.800 118.700 304.700 V 301.900 C 118.700 301.800 118.600 301.900 118.700 301.900 H 124.500 C 124.600 301.900 124.500 301.800 124.500 301.900 V 304.700 C 124.500 304.800 124.600 304.700 124.500 304.700 H 121.600 Z" stroke="rgb(0,0,255)" stroke-width="0.20" />
  <path d="M 133.600 304.700 H 130.700 C 130.600 304.700 130.700 304.800 130.700 304.700 V 301.900 C 130.700 301.800 130.600 301.900 130.700 301.900 H 136.500 C 136.600 301.900 136.500 301.800 136.500 301.900 V 304.700 C 136.500 304.800 136.600 304.700 136.500 304.700 H 133.600 Z" stroke="rgb(0,0,255)" stroke-width="0.20" />
  <path d="M 145.600 304.700 H 142.700 C 142.600 304.700 142.700 304.800 142.700 304.700 V 301.900 C 142.700 301.800 142.600 301.900 142.700 301.900 H 148.500 C 148.600 301.900 148.500 301.800 148.500 301.900 V 304.700 C 148.500 304.800 148.600 304.700 148.500 304.700 H 145.600 Z" stroke="rgb(0,0,255)" stroke-width="0.20" />
  <path d="M 157.600 304.700 H 154.700 C 154.600 304.700 154.700 304.800 154.700 304.700 V 301.900 C 154.700 301.800 154.600 301.900 154.700 301.900 H 160.500 C 160.600 301.900 160.500 301.800 160.500 301.900 V 304.700 C 160.500 304.800 160.600 304.700 160.500 304.700 H 157.600 Z" stroke="rgb(0,0,255)" stroke-width="0.20" />
  <path d="M 169.600 304.700 H 166.700 C 166.600 304.700 166.700 304.800 166.700 304.700 V 301.900 C 166.700 301.800 166.600 301.900 166.700 301.900 H 172.500 C 172.600 301.900 172.500 301.800 172.500 301.900 V 304.700 C 172.500 304.800 172.600 304.700 172.500 304.700 H 169.600 Z" stroke="rgb(0,0,255)" stroke-width="0.20" />
  <path d="M 181.600 304.700 H 178.700 C 178.600 304.700 178.700 304.800 178.700 304.700 V 301.900 C 178.700 301.800 178.600 301.900 178.700 301.900 H 184.500 C 184.600 301.900 184.500 301.800 184.500 301.900 V 304.700 C 184.500 304.800 184.600 304.700 184.500 304.700 H 181.600 Z" stroke="rgb(0,0,255)" stroke-width="0.20" />
  <path d="M 193.600 304.700 H 190.700 C 190.600 304.700 190.700 304.800 190.700 304.700 V 301.900 C 190.700 301.800 190.600 301.900 190.700 301.900 H 196.500 C 196.600 301.900 196.500 301.800 196.500 301.900 V 304.700 C 196.500 304.800 196.600 304.700 196.500 304.700 H 193.600 Z" stroke="rgb(0,0,255)" stroke-width="0.20" />
  <path d="M 205.600 304.700 H 202.700 C 202.600 304.700 202.700 304.800 202.700 304.700 V 301.900 C 202.700 301.800 202.600 301.900 202.700 301.900 H 208.500 C 208.600 301.900 208.500 301.800 208.500 301.900 V 304.700 C 208.500 304.800 208.600 304.700 208.500 304.700 H 205.600 Z" stroke="rgb(0,0,255)" stroke-width="0.20" />
  <path d="M 217.600 304.700 H 214.700 C 214.600 304.700 214.700 304.800 214.700 304.700 V 301.900 C 214.700 301.800 214.600 301.900 214.700 301.900 H 220.500 C 220.600 301.900 220.500 301.800 220.500 301.900 V 304.700 C 220.500 304.800 220.600 304.700 220.500 304.700 H 217.600 Z" stroke="rgb(0,0,255)" stroke-width="0.20" />
  <path d="M 229.600 304.700 H 226.700 C 226.600 304.700 226.700 304.800 226.700 304.700 V 301.900 C 226.700 301.800 226.600 301.900 226.700 301.900 H 232.500 C 232.600 301.900 232.500 301.800 232.500 301.900 V 304.700 C 232.500 304.800 232.600 304.700 232.500 304.700 H 229.600 Z" stroke="rgb(0,0,255)" stroke-width="0.20" />
  <path d="M 241.600 304.700 H 238.700 C 238.600 304.700 238.700 304.800 238.700 304.700 V 301.900 C 238.700 301.800 238.600 301.900 238.700 301.900 H 244.500 C 244.600 301.900 244.500 301.800 244.500 301.900 V 304.700 C 244.500 304.800 244.600 304.700 244.500 304.700 H 241.600 Z" stroke="rgb(0,0,255)" stroke-width="0.20" />
  <path d="M 253.600 304.700 H 250.700 C 250.600 304.700 250.700 304.800 250.700 304.700 V 301.900 C 250.700 301.800 250.600 301.900 250.700 301.900 H 256.500 C 256.600 301.900 256.500 301.800 256.500 301.900 V 304.700 C 256.500 304.800 256.600 304.700 256.500 304.700 H 253.600 Z" stroke="rgb(0,0,255)" stroke-width="0.20" />
  <path d="M 265.600 304.700 H 262.700 C 262.600 304.700 262.700 304.800 262.700 304.700 V 301.900 C 262.700 301.800 262.600 301.900 262.700 301.900 H 268.500 C 268.600 301.900 268.500 301.800 268.500 301.900 V 304.700 C 268.500 304.800 268.600 304.700 268.500 304.700 H 265.600 Z" stroke="rgb(0,0,255)" stroke-width="0.20" />
  <path d="M 277.600 304.700 H 274.700 C 274.600 304.700 274.700 304.800 274.700 304.700 V 301.900 C 274.700 301.800 274.600 301.900 274.700 301.900 H 280.500 C 280.600 301.900 280.500 301.800 280.500 301.900 V 304.700 C 280.500 304.800 280.600 304.700 280.500 304.700 H 277.600 Z" stroke="rgb(0,0,255)" stroke-width="0.20" />
  <text dominant-baseline="hanging" font-size="4px" style="font-family: sans-serif ; font-weight: normal; font-style: normal; fill: rgb(255,0,0)" text-anchor="middle" transform="matrix( 1.000 0.000 0.000 1.000 151.600 197.900 )">back</text><path d="M 13.100 307.900 H 290.100 H 293.100 C 293.155 307.900 293.200 307.855 293.200 307.800 V 298.800 C 293.200 298.745 293.155 298.700 293.100 298.700 H 290.200 C 290.100 298.700 290.200 298.800 290.200 298.700 V 292.900 C 290.200 292.800 290.100 292.900 290.200 292.900 H 293.100 C 293.155 292.900 293.200 292.855 293.200 292.800 V 286.800 C 293.200 286.745 293.155 286.700 293.100 286.700 H 290.200 C 290.100 286.700 290.200 286.800 290.200 286.700 V 280.900 C 290.200 280.800 290.100 280.900 290.200 280.900 H 293.100 C 293.155 280.900 293.200 280.855 293.200 280.800 V 274.800 C 293.200 274.745 293.155 274.700 293.100 274.700 H 290.200 C 290.100 274.700 290.200 274.800 290.200 274.700 V 268.900 C 290.200 268.800 290.100 268.900 290.200 268.900 H 293.100 C 293.155 268.900 293.200 268.855 293.200 268.800 V 262.800 C 293.200 262.745 293.155 262.700 293.100 262.700 H 290.200 C 290.100 262.700 290.200 262.800 290.200 262.700 V 256.900 C 290.200 256.800 290.100 256.900 290.200 256.900 H 293.100 C 293.155 256.900 293.200 256.855 293.200 256.800 V 250.800 C 293.200 250.745 293.155 250.700 293.100 250.700 H 290.200 C 290.100 250.700 290.200 250.800 290.200 250.700 V 244.900 C 290.200 244.800 290.100 244.900 290.200 244.900 H 293.100 C 293.155 244.900 293.200 244.855 293.200 244.800 V 238.800 C 293.200 238.745 293.155 238.700 293.100 238.700 H 290.200 C 290.100 238.700 290.200 238.800 290.200 238.700 V 232.900 C 290.200 232.800 290.100 232.900 290.200 232.900 H 293.100 C 293.155 232.900 293.200 232.855 293.200 232.800 V 226.800 C 293.200 226.745 293.155 226.700 293.100 226.700 H 290.200 C 290.100 226.700 290.200 226.800 290.200 226.700 V 220.900 C 290.200 220.800 290.100 220.900 290.200 220.900 H 293.100 C 293.155 220.900 293.200 220.855 293.200 220.800 V 214.800 C 293.200 214.745 293.155 214.700 293.100 214.700 H 290.200 C 290.100 214.700 290.200 214.800 290.200 214.700 V 208.900 C 290.200 208.800 290.100 208.900 290.200 208.900 H 293.100 C 293.155 208.900 293.200 208.855 293.200 208.800 V 202.800 C 293.200 202.745 293.155 202.700 293.100 202.700 H 290.200 C 290.100 202.700 290.200 202.800 290.200 202.700 V 196.900 C 290.200 196.800 290.100 196.900 290.200 196.900 H 293.100 C 293.155 196.900 293.200 196.855 293.200 196.800 V 190.800 C 293.200 190.745 293.155 190.700 293.100 190.700 H 290.200 C 290.100 190.700 290.200 190.800 290.200 190.700 V 184.900 C 290.200 184.800 290.100 184.900 290.200 184.900 H 293.100 C 293.155 184.900 293.200 184.855 293.200 184.800 V 178.800 C 293.200 178.745 293.155 178.700 293.100 178.700 H 290.200 C 290.100 178.700 290.200 178.800 290.200 178.700 V 172.900 C 290.200 172.800 290.100 172.900 290.200 172.900 H 293.100 C 293.155 172.900 293.200 172.855 293.200 172.800 V 166.800 C 293.200 166.745 293.155 166.700 293.100 166.700 H 290.200 C 290.100 166.700 290.200 166.800 290.200 166.700 V 160.900 C 290.200 160.800 290.100 160.900 290.200 160.900 H 293.100 C 293.155 160.900 293.200 160.855 293.200 160.800 V 154.800 C 293.200 154.745 293.155 154.700 293.100 154.700 H 290.200 C 290.100 154.700 290.200 154.800 290.200 154.700 V 148.900 C 290.200 148.800 290.100 148.900 290.200 148.900 H 293.100 C 293.155 148.900 293.200 148.855 293.200 148.800 V 142.800 C 293.200 142.745 293.155 142.700 293.100 142.700 H 290.200 C 290.100 142.700 290.200 142.800 290.200 142.700 V 136.900 C 290.200 136.800 290.100 136.900 290.200 136.900 H 293.100 C 293.155 136.900 293.200 136.855 293.200 136.800 V 130.800 C 293.200 130.745 293.155 130.700 293.100 130.700 H 290.200 C 290.100 130.700 290.200 130.800 290.200 130.700 V 124.900 C 290.200 124.800 290.100 124.900 290.200 124.900 H 293.100 C 293.155 124.900 293.200 124.855 293.200 124.800 V 118.800 C 293.200 118.745 293.155 118.700 293.100 118.700 H 290.200 C 290.100 118.700 290.200 118.800 290.200 118.700 V 112.900 C 290.200 112.800 290.100 112.900 290.200 112.900 H 293.100 C 293.155 112.900 293.200 112.855 293.200 112.800 V 106.800 C 293.200 106.745 293.155 106.700 293.100 106.700 H 290.200 C 290.100 106.700 290.200 106.800 290.200 106.700 V 100.900 C 290.200 100.800 290.100 100.900 290.200 100.900 H 293.100 C 293.155 100.900 293.200 100.855 293.200 100.800 V 91.800 C 293.200 91.745 293.155 91.700 293.100 91.700 H 290.100 H 13.100 H 10.100 C 10.045 91.700 10.000 91.745 10.000 91.800 V 100.800 C 10.000 100.855 10.045 100.900 10.100 100.900 H 13.000 C 13.100 100.900 13.000 100.800 13.000 100.900 V 106.700 C 13.000 106.800 13.100 106.700 13.000 106.700 H 10.100 C 10.045 106.700 10.000 106.745 10.000 106.800 V 112.800 C 10.000 112.855 10.045 112.900 10.100 112.900 H 13.000 C 13.100 112.900 13.000 112.800 13.000 112.900 V 118.700 C 13.000 118.800 13.100 118.700 13.000 118.700 H 10.100 C 10.045 118.700 10.000 118.745 10.000 118.800 V 124.800 C 10.000 124.855 10.045 124.900 10.100 124.900 H 13.000 C 13.100 124.900 13.000 124.800 13.000 124.900 V 130.700 C 13.000 130.800 13.100 130.700 13.000 130.700 H 10.100 C 10.045 130.700 10.000 130.745 10.000 130.800 V 136.800 C 10.000 136.855 10.045 136.900 10.100 136.900 H 13.000 C 13.100 136.900 13.000 136.800 13.000 136.900 V 142.700 C 13.000 142.800 13.100 142.700 13.000 142.700 H 10.100 C 10.045 142.700 10.000 142.745 10.000 142.800 V 148.800 C 10.000 148.855 10.045 148.900 10.100 148.900 H 13.000 C 13.100 148.900 13.000 148.800 13.000 148.900 V 154.700 C 13.000 154.800 13.100 154.700 13.000 154.700 H 10.100 C 10.045 154.700 10.000 154.745 10.000 154.800 V 160.800 C 10.000 160.855 10.045 160.900 10.100 160.900 H 13.000 C 13.100 160.900 13.000 160.800 13.000 160.900 V 166.700 C 13.000 166.800 13.100 166.700 13.000 166.700 H 10.100 C 10.045 166.700 10.000 166.745 10.000 166.800 V 172.800 C 10.000 172.855 10.045 172.900 10.100 172.900 H 13.000 C 13.100 172.900 13.000 172.800 13.000 172.900 V 178.700 C 13.000 178.800 13.100 178.700 13.000 178.700 H 10.100 C 10.045 178.700 10.000 178.745 10.000 178.800 V 184.800 C 10.000 184.855 10.045 184.900 10.100 184.900 H 13.000 C 13.100 184.900 13.000 184.800 13.000 184.900 V 190.700 C 13.000 190.800 13.100 190.700 13.000 190.700 H 10.100 C 10.045 190.700 10.000 190.745 10.000 190.800 V 196.800 C 10.000 196.855 10.045 196.900 10.100 196.900 H 13.000 C 13.100 196.900 13.000 196.800 13.000 196.900 V 202.700 C 13.000 202.800 13.100 202.700 13.000 202.700 H 10.100 C 10.045 202.700 10.000 202.745 10.000 202.800 V 208.800 C 10.000 208.855 10.045 208.900 10.100 208.900 H 13.000 C 13.100 208.900 13.000 208.800 13.000 208.900 V 214.700 C 13.000 214.800 13.100 214.700 13.000 214.700 H 10.100 C 10.045 214.700 10.000 214.745 10.000 214.800 V 220.800 C 10.000 220.855 10.045 220.900 10.100 220.900 H 13.000 C 13.100 220.900 13.000 220.800 13.000 220.900 V 226.700 C 13.000 226.800 13.100 226.700 13.000 226.700 H 10.100 C 10.045 226.700 10.000 226.745 10.000 226.800 V 232.800 C 10.000 232.855 10.045 232.900 10.100 232.900 H 13.000 C 13.100 232.900 13.000 232.800 13.000 232.900 V 238.700 C 13.000 238.800 13.100 238.700 13.000 238.700 H 10.100 C 10.045 238.700 10.000 238.745 10.000 238.800 V 244.800 C 10.000 244.855 10.045 244.900 10.100 244.900 H 13.000 C 13.100 244.900 13.000 244.800 13.000 244.900 V 250.700 C 13.000 250.800 13.100 250.700 13.000 250.700 H 10.100 C 10.045 250.700 10.000 250.745 10.000 250.800 V 256.800 C 10.000 256.855 10.045 256.900 10.100 256.900 H 13.000 C 13.100 256.900 13.000 256.800 13.000 256.900 V 262.700 C 13.000 262.800 13.100 262.700 13.000 262.700 H 10.100 C 10.045 262.700 10.000 262.745 10.000 262.800 V 268.800 C 10.000 268.855 10.045 268.900 10.100 268.900 H 13.000 C 13.100 268.900 13.000 268.800 13.000 268.900 V 274.700 C 13.000 274.800 13.100 274.700 13.000 274.700 H 10.100 C 10.045 274.700 10.000 274.745 10.000 274.800 V 280.800 C 10.000 280.855 10.045 280.900 10.100 280.900 H 13.000 C 13.100 280.900 13.000 280.800 13.000 280.900 V 286.700 C 13.000 286.800 13.100 286.700 13.000 286.700 H 10.100 C 10.045 286.700 10.000 286.745 10.000 286.800 V 292.800 C 10.000 292.855 10.045 292.900 10.100 292.900 H 13.000 C 13.100 292.900 13.000 292.800 13.000 292.900 V 298.700 C 13.000 298.800 13.100 298.700 13.000 298.700 H 10.100 C 10.045 298.700 10.000 298.745 10.000 298.800 V 307.800 C 10.000 307.855 10.045 307.900 10.100 307.900 H 13.100" stroke="rgb(0,0,0)" stroke-width="0.20" />
</g>
<g id="p-3" style="fill:none;stroke-linecap:round;stroke-linejoin:round;">
  <text dominant-baseline="hanging" font-size="4px" style="font-family: sans-serif ; font-weight: normal; font-style: normal; fill: rgb(255,0,0)" text-anchor="middle" transform="matrix( 1.000 0.000 0.000 1.000 151.600 48.200 )">bottom</text><path d="M 13.100 87.200 H 22.500 C 22.600 87.200 22.500 87.100 22.500 87.200 V 90.100 C 22.500 90.155 22.545 90.200 22.600 90.200 H 28.600 C 28.655 90.200 28.700 90.155 28.700 90.100 V 87.200 C 28.700 87.100 28.600 87.200 28.700 87.200 H 34.500 C 34.600 87.200 34.500 87.100 34.500 87.200 V 90.100 C 34.500 90.155 34.545 90.200 34.600 90.200 H 40.600 C 40.655 90.200 40.700 90.155 40.700 90.100 V 87.200 C 40.700 87.100 40.600 87.200 40.700 87.200 H 46.500 C 46.600 87.200 46.500 87.100 46.500 87.200 V 90.100 C 46.500 90.155 46.545 90.200 46.600 90.200 H 52.600 C 52.655 90.200 52.700 90.155 52.700 90.100 V 87.200 C 52.700 87.100 52.600 87.200 52.700 87.200 H 58.500 C 58.600 87.200 58.500 87.100 58.500 87.200 V 90.100 C 58.500 90.155 58.545 90.200 58.600 90.200 H 64.600 C 64.655 90.200 64.700 90.155 64.700 90.100 V 87.200 C 64.700 87.100 64.600 87.200 64.700 87.200 H 70.500 C 70.600 87.200 70.500 87.100 70.500 87.200 V 90.100 C 70.500 90.155 70.545 90.200 70.600 90.200 H 76.600 C 76.655 90.200 76.700 90.155 76.700 90.100 V 87.200 C 76.700 87.100 76.600 87.200 76.700 87.200 H 82.500 C 82.600 87.200 82.500 87.100 82.500 87.200 V 90.100 C 82.500 90.155 82.545 90.200 82.600 90.200 H 88.600 C 88.655 90.200 88.700 90.155 88.700 90.100 V 87.200 C 88.700 87.100 88.600 87.200 88.700 87.200 H 94.500 C 94.600 87.200 94.500 87.100 94.500 87.200 V 90.100 C 94.500 90.155 94.545 90.200 94.600 90.200 H 100.600 C 100.655 90.200 100.700 90.155 100.700 90.100 V 87.200 C 100.700 87.100 100.600 87.200 100.700 87.200 H 106.500 C 106.600 87.200 106.500 87.100 106.500 87.200 V 90.100 C 106.500 90.155 106.545 90.200 106.600 90.200 H 112.600 C 112.655 90.200 112.700 90.155 112.700 90.100 V 87.200 C 112.700 87.100 112.600 87.200 112.700 87.200 H 118.500 C 118.600 87.200 118.500 87.100 118.500 87.200 V 90.100 C 118.500 90.155 118.545 90.200 118.600 90.200 H 124.600 C 124.655 90.200 124.700 90.155 124.700 90.100 V 87.200 C 124.700 87.100 124.600 87.200 124.700 87.200 H 130.500 C 130.600 87.200 130.500 87.100 130.500 87.200 V 90.100 C 130.500 90.155 130.545 90.200 130.600 90.200 H 136.600 C 136.655 90.200 136.700 90.155 136.700 90.100 V 87.200 C 136.700 87.100 136.600 87.200 136.700 87.200 H 142.500 C 142.600 87.200 142.500 87.100 142.500 87.200 V 90.100 C 142.500 90.155 142.545 90.200 142.600 90.200 H 148.600 C 148.655 90.200 148.700 90.155 148.700 90.100 V 87.200 C 148.700 87.100 148.600 87.200 148.700 87.200 H 154.500 C 154.600 87.200 154.500 87.100 154.500 87.200 V 90.100 C 154.500 90.155 154.545 90.200 154.600 90.200 H 160.600 C 160.655 90.200 160.700 90.155 160.700 90.100 V 87.200 C 160.700 87.100 160.600 87.200 160.700 87.200 H 166.500 C 166.600 87.200 166.500 87.100 166.500 87.200 V 90.100 C 166.500 90.155 166.545 90.200 166.600 90.200 H 172.600 C 172.655 90.200 172.700 90.155 172.700 90.100 V 87.200 C 172.700 87.100 172.600 87.200 172.700 87.200 H 178.500 C 178.600 87.200 178.500 87.100 178.500 87.200 V 90.100 C 178.500 90.155 178.545 90.200 178.600 90.200 H 184.600 C 184.655 90.200 184.700 90.155 184.700 90.100 V 87.200 C 184.700 87.100 184.600 87.200 184.700 87.200 H 190.500 C 190.600 87.200 190.500 87.100 190.500 87.200 V 90.100 C 190.500 90.155 190.545 90.200 190.600 90.200 H 196.600 C 196.655 90.200 196.700 90.155 196.700 90.100 V 87.200 C 196.700 87.100 196.600 87.200 196.700 87.200 H 202.500 C 202.600 87.200 202.500 87.100 202.500 87.200 V 90.100 C 202.500 90.155 202.545 90.200 202.600 90.200 H 208.600 C 208.655 90.200 208.700 90.155 208.700 90.100 V 87.200 C 208.700 87.100 208.600 87.200 208.700 87.200 H 214.500 C 214.600 87.200 214.500 87.100 214.500 87.200 V 90.100 C 214.500 90.155 214.545 90.200 214.600 90.200 H 220.600 C 220.655 90.200 220.700 90.155 220.700 90.100 V 87.200 C 220.700 87.100 220.600 87.200 220.700 87.200 H 226.500 C 226.600 87.200 226.500 87.100 226.500 87.200 V 90.100 C 226.500 90.155 226.545 90.200 226.600 90.200 H 232.600 C 232.655 90.200 232.700 90.155 232.700 90.100 V 87.200 C 232.700 87.100 232.600 87.200 232.700 87.200 H 238.500 C 238.600 87.200 238.500 87.100 238.500 87.200 V 90.100 C 238.500 90.155 238.545 90.200 238.600 90.200 H 244.600 C 244.655 90.200 244.700 90.155 244.700 90.100 V 87.200 C 244.700 87.100 244.600 87.200 244.700 87.200 H 250.500 C 250.600 87.200 250.500 87.100 250.500 87.200 V 90.100 C 250.500 90.155 250.545 90.200 250.600 90.200 H 256.600 C 256.655 90.200 256.700 90.155 256.700 90.100 V 87.200 C 256.700 87.100 256.600 87.200 256.700 87.200 H 262.500 C 262.600 87.200 262.500 87.100 262.500 87.200 V 90.100 C 262.500 90.155 262.545 90.200 262.600 90.200 H 268.600 C 268.655 90.200 268.700 90.155 268.700 90.100 V 87.200 C 268.700 87.100 268.600 87.200 268.700 87.200 H 274.500 C 274.600 87.200 274.500 87.100 274.500 87.200 V 90.100 C 274.500 90.155 274.545 90.200 274.600 90.200 H 280.600 C 280.655 90.200 280.700 90.155 280.700 90.100 V 87.200 C 280.700 87.100 280.600 87.200 280.700 87.200 H 290.100 C 290.155 87.200 290.200 87.155 290.200 87.100 V 77.200 C 290.200 77.100 290.100 77.200 290.200 77.200 H 293.100 C 293.155 77.200 293.200 77.155 293.200 77.100 V 71.100 C 293.200 71.045 293.155 71.000 293.100 71.000 H 290.200 C 290.100 71.000 290.200 71.100 290.200 71.000 V 65.200 C 290.200 65.100 290.100 65.200 290.200 65.200 H 293.100 C 293.155 65.200 293.200 65.155 293.200 65.100 V 59.100 C 293.200 59.045 293.155 59.000 293.100 59.000 H 290.200 C 290.100 59.000 290.200 59.100 290.200 59.000 V 53.200 C 290.200 53.100 290.100 53.200 290.200 53.200 H 293.100 C 293.155 53.200 293.200 53.155 293.200 53.100 V 47.100 C 293.200 47.045 293.155 47.000 293.100 47.000 H 290.200 C 290.100 47.000 290.200 47.100 290.200 47.000 V 41.200 C 290.200 41.100 290.100 41.200 290.200 41.200 H 293.100 C 293.155 41.200 293.200 41.155 293.200 41.100 V 35.100 C 293.200 35.045 293.155 35.000 293.100 35.000 H 290.200 C 290.100 35.000 290.200 35.100 290.200 35.000 V 29.200 C 290.200 29.100 290.100 29.200 290.200 29.200 H 293.100 C 293.155 29.200 293.200 29.155 293.200 29.100 V 23.100 C 293.200 23.045 293.155 23.000 293.100 23.000 H 290.200 C 290.100 23.000 290.200 23.100 290.200 23.000 V 13.100 C 290.200 13.045 290.155 13.000 290.100 13.000 H 280.700 C 280.600 13.000 280.700 13.100 280.700 13.000 V 10.100 C 280.700 10.045 280.655 10.000 280.600 10.000 H 274.600 C 274.545 10.000 274.500 10.045 274.500 10.100 V 13.000 C 274.500 13.100 274.600 13.000 274.500 13.000 H 268.700 C 268.600 13.000 268.700 13.100 268.700 13.000 V 10.100 C 268.700 10.045 268.655 10.000 268.600 10.000 H 262.600 C 262.545 10.000 262.500 10.045 262.500 10.100 V 13.000 C 262.500 13.100 262.600 13.000 262.500 13.000 H 256.700 C 256.600 13.000 256.700 13.100 256.700 13.000 V 10.100 C 256.700 10.045 256.655 10.000 256.600 10.000 H 250.600 C 250.545 10.000 250.500 10.045 250.500 10.100 V 13.000 C 250.500 13.100 250.600 13.000 250.500 13.000 H 244.700 C 244.600 13.000 244.700 13.100 244.700 13.000 V 10.100 C 244.700 10.045 244.655 10.000 244.600 10.000 H 238.600 C 238.545 10.000 238.500 10.045 238.500 10.100 V 13.000 C 238.500 13.100 238.600 13.000 238.500 13.000 H 232.700 C 232.600 13.000 232.700 13.100 232.700 13.000 V 10.100 C 232.700 10.045 232.655 10.000 232.600 10.000 H 226.600 C 226.545 10.000 226.500 10.045 226.500 10.100 V 13.000 C 226.500 13.100 226.600 13.000 226.500 13.000 H 220.700 C 220.600 13.000 220.700 13.100 220.700 13.000 V 10.100 C 220.700 10.045 220.655 10.000 220.600 10.000 H 214.600 C 214.545 10.000 214.500 10.045 214.500 10.100 V 13.000 C 214.500 13.100 214.600 13.000 214.500 13.000 H 208.700 C 208.600 13.000 208.700 13.100 208.700 13.000 V 10.100 C 208.700 10.045 208.655 10.000 208.600 10.000 H 202.600 C 202.545 10.000 202.500 10.045 202.500 10.100 V 13.000 C 202.500 13.100 202.600 13.000 202.500 13.000 H 196.700 C 196.600 13.000 196.700 13.100 196.700 13.000 V 10.100 C 196.700 10.045 196.655 10.000 196.600 10.000 H 190.600 C 190.545 10.000 190.500 10.045 190.500 10.100 V 13.000 C 190.500 13.100 190.600 13.000 190.500 13.000 H 184.700 C 184.600 13.000 184.700 13.100 184.700 13.000 V 10.100 C 184.700 10.045 184.655 10.000 184.600 10.000 H 178.600 C 178.545 10.000 178.500 10.045 178.500 10.100 V 13.000 C 178.500 13.100 178.600 13.000 178.500 13.000 H 172.700 C 172.600 13.000 172.700 13.100 172.700 13.000 V 10.100 C 172.700 10.045 172.655 10.000 172.600 10.000 H 166.600 C 166.545 10.000 166.500 10.045 166.500 10.100 V 13.000 C 166.500 13.100 166.600 13.000 166.500 13.000 H 160.700 C 160.600 13.000 160.700 13.100 160.700 13.000 V 10.100 C 160.700 10.045 160.655 10.000 160.600 10.000 H 154.600 C 154.545 10.000 154.500 10.045 154.500 10.100 V 13.000 C 154.500 13.100 154.600 13.000 154.500 13.000 H 148.700 C 148.600 13.000 148.700 13.100 148.700 13.000 V 10.100 C 148.700 10.045 148.655 10.000 148.600 10.000 H 142.600 C 142.545 10.000 142.500 10.045 142.500 10.100 V 13.000 C 142.500 13.100 142.600 13.000 142.500 13.000 H 136.700 C 136.600 13.000 136.700 13.100 136.700 13.000 V 10.100 C 136.700 10.045 136.655 10.000 136.600 10.000 H 130.600 C 130.545 10.000 130.500 10.045 130.500 10.100 V 13.000 C 130.500 13.100 130.600 13.000 130.500 13.000 H 124.700 C 124.600 13.000 124.700 13.100 124.700 13.000 V 10.100 C 124.700 10.045 124.655 10.000 124.600 10.000 H 118.600 C 118.545 10.000 118.500 10.045 118.500 10.100 V 13.000 C 118.500 13.100 118.600 13.000 118.500 13.000 H 112.700 C 112.600 13.000 112.700 13.100 112.700 13.000 V 10.100 C 112.700 10.045 112.655 10.000 112.600 10.000 H 106.600 C 106.545 10.000 106.500 10.045 106.500 10.100 V 13.000 C 106.500 13.100 106.600 13.000 106.500 13.000 H 100.700 C 100.600 13.000 100.700 13.100 100.700 13.000 V 10.100 C 100.700 10.045 100.655 10.000 100.600 10.000 H 94.600 C 94.545 10.000 94.500 10.045 94.500 10.100 V 13.000 C 94.500 13.100 94.600 13.000 94.500 13.000 H 88.700 C 88.600 13.000 88.700 13.100 88.700 13.000 V 10.100 C 88.700 10.045 88.655 10.000 88.600 10.000 H 82.600 C 82.545 10.000 82.500 10.045 82.500 10.100 V 13.000 C 82.500 13.100 82.600 13.000 82.500 13.000 H 76.700 C 76.600 13.000 76.700 13.100 76.700 13.000 V 10.100 C 76.700 10.045 76.655 10.000 76.600 10.000 H 70.600 C 70.545 10.000 70.500 10.045 70.500 10.100 V 13.000 C 70.500 13.100 70.600 13.000 70.500 13.000 H 64.700 C 64.600 13.000 64.700 13.100 64.700 13.000 V 10.100 C 64.700 10.045 64.655 10.000 64.600 10.000 H 58.600 C 58.545 10.000 58.500 10.045 58.500 10.100 V 13.000 C 58.500 13.100 58.600 13.000 58.500 13.000 H 52.700 C 52.600 13.000 52.700 13.100 52.700 13.000 V 10.100 C 52.700 10.045 52.655 10.000 52.600 10.000 H 46.600 C 46.545 10.000 46.500 10.045 46.500 10.100 V 13.000 C 46.500 13.100 46.600 13.000 46.500 13.000 H 40.700 C 40.600 13.000 40.700 13.100 40.700 13.000 V 10.100 C 40.700 10.045 40.655 10.000 40.600 10.000 H 34.600 C 34.545 10.000 34.500 10.045 34.500 10.100 V 13.000 C 34.500 13.100 34.600 13.000 34.500 13.000 H 28.700 C 28.600 13.000 28.700 13.100 28.700 13.000 V 10.100 C 28.700 10.045 28.655 10.000 28.600 10.000 H 22.600 C 22.545 10.000 22.500 10.045 22.500 10.100 V 13.000 C 22.500 13.100 22.600 13.000 22.500 13.000 H 13.100 C 13.045 13.000 13.000 13.045 13.000 13.100 V 23.000 C 13.000 23.100 13.100 23.000 13.000 23.000 H 10.100 C 10.045 23.000 10.000 23.045 10.000 23.100 V 29.100 C 10.000 29.155 10.045 29.200 10.100 29.200 H 13.000 C 13.100 29.200 13.000 29.100 13.000 29.200 V 35.000 C 13.000 35.100 13.100 35.000 13.000 35.000 H 10.100 C 10.045 35.000 10.000 35.045 10.000 35.100 V 41.100 C 10.000 41.155 10.045 41.200 10.100 41.200 H 13.000 C 13.100 41.200 13.000 41.100 13.000 41.200 V 47.000 C 13.000 47.100 13.100 47.000 13.000 47.000 H 10.100 C 10.045 47.000 10.000 47.045 10.000 47.100 V 53.100 C 10.000 53.155 10.045 53.200 10.100 53.200 H 13.000 C 13.100 53.200 13.000 53.100 13.000 53.200 V 59.000 C 13.000 59.100 13.100 59.000 13.000 59.000 H 10.100 C 10.045 59.000 10.000 59.045 10.000 59.100 V 65.100 C 10.000 65.155 10.045 65.200 10.100 65.200 H 13.000 C 13.100 65.200 13.000 65.100 13.000 65.200 V 71.000 C 13.000 71.100 13.100 71.000 13.000 71.000 H 10.100 C 10.045 71.000 10.000 71.045 10.000 71.100 V 77.100 C 10.000 77.155 10.045 77.200 10.100 77.200 H 13.000 C 13.100 77.200 13.000 77.100 13.000 77.200 V 87.100 C 13.000 87.155 13.045 87.200 13.100 87.200" stroke="rgb(0,0,0)" stroke-width="0.20" />
</g>
<g id="p-4" style="fill:none;stroke-linecap:round;stroke-linejoin:round;">
  <path d="M 310.800 522.400 H 307.900 C 307.800 522.400 307.900 522.500 307.900 522.400 V 519.600 C 307.900 519.500 307.800 519.600 307.900 519.600 H 313.700 C 313.800 519.600 313.700 519.500 313.700 519.600 V 522.400 C 313.700 522.500 313.800 522.400 313.700 522.400 H 310.800 Z" stroke="rgb(0,0,255)" stroke-width="0.20" />
  <path d="M 322.800 522.400 H 319.900 C 319.800 522.400 319.900 522.500 319.900 522.400 V 519.600 C 319.900 519.500 319.800 519.600 319.900 519.600 H 325.700 C 325.800 519.600 325.700 519.500 325.700 519.600 V 522.400 C 325.700 522.500 325.800 522.400 325.700 522.400 H 322.800 Z" stroke="rgb(0,0,255)" stroke-width="0.20" />
  <path d="M 334.800 522.400 H 331.900 C 331.800 522.400 331.900 522.500 331.900 522.400 V 519.600 C 331.900 519.500 331.800 519.600 331.900 519.600 H 337.700 C 337.800 519.600 337.700 519.500 337.700 519.600 V 522.400 C 337.700 522.500 337.800 522.400 337.700 522.400 H 334.800 Z" stroke="rgb(0,0,255)" stroke-width="0.20" />
  <path d="M 346.800 522.400 H 343.900 C 343.800 522.400 343.900 522.500 343.900 522.400 V 519.600 C 343.900 519.500 343.800 519.600 343.900 519.600 H 349.700 C 349.800 519.600 349.700 519.500 349.700 519.600 V 522.400 C 349.700 522.500 349.800 522.400 349.700 522.400 H 346.800 Z" stroke="rgb(0,0,255)" stroke-width="0.20" />
  <path d="M 358.800 522.400 H 355.900 C 355.800 522.400 355.900 522.500 355.900 522.400 V 519.600 C 355.900 519.500 355.800 519.600 355.900 519.600 H 361.700 C 361.800 519.600 361.700 519.500 361.700 519.600 V 522.400 C 361.700 522.500 361.800 522.400 361.700 522.400 H 358.800 Z" stroke="rgb(0,0,255)" stroke-width="0.20" />
  <text dominant-baseline="hanging" font-size="4px" style="font-family: sans-serif ; font-weight: normal; font-style: normal; fill: rgb(255,0,0)" text-anchor="middle" transform="matrix( 1.000 0.000 0.000 1.000 334.800 415.600 )">left</text><path d="M 297.800 525.600 H 371.800 C 371.855 525.600 371.900 525.555 371.900 525.500 V 516.600 C 371.900 516.500 371.800 516.600 371.900 516.600 H 374.800 C 374.855 516.600 374.900 516.555 374.900 516.500 V 510.500 C 374.900 510.445 374.855 510.400 374.800 510.400 H 371.900 C 371.800 510.400 371.900 510.500 371.900 510.400 V 504.600 C 371.900 504.500 371.800 504.600 371.900 504.600 H 374.800 C 374.855 504.600 374.900 504.555 374.900 504.500 V 498.500 C 374.900 498.445 374.855 498.400 374.800 498.400 H 371.900 C 371.800 498.400 371.900 498.500 371.900 498.400 V 492.600 C 371.900 492.500 371.800 492.600 371.900 492.600 H 374.800 C 374.855 492.600 374.900 492.555 374.900 492.500 V 486.500 C 374.900 486.445 374.855 486.400 374.800 486.400 H 371.900 C 371.800 486.400 371.900 486.500 371.900 486.400 V 480.600 C 371.900 480.500 371.800 480.600 371.900 480.600 H 374.800 C 374.855 480.600 374.900 480.555 374.900 480.500 V 474.500 C 374.900 474.445 374.855 474.400 374.800 474.400 H 371.900 C 371.800 474.400 371.900 474.500 371.900 474.400 V 468.600 C 371.900 468.500 371.800 468.600 371.900 468.600 H 374.800 C 374.855 468.600 374.900 468.555 374.900 468.500 V 462.500 C 374.900 462.445 374.855 462.400 374.800 462.400 H 371.900 C 371.800 462.400 371.900 462.500 371.900 462.400 V 456.600 C 371.900 456.500 371.800 456.600 371.900 456.600 H 374.800 C 374.855 456.600 374.900 456.555 374.900 456.500 V 450.500 C 374.900 450.445 374.855 450.400 374.800 450.400 H 371.900 C 371.800 450.400 371.900 450.500 371.900 450.400 V 444.600 C 371.900 444.500 371.800 444.600 371.900 444.600 H 374.800 C 374.855 444.600 374.900 444.555 374.900 444.500 V 438.500 C 374.900 438.445 374.855 438.400 374.800 438.400 H 371.900 C 371.800 438.400 371.900 438.500 371.900 438.400 V 432.600 C 371.900 432.500 371.800 432.600 371.900 432.600 H 374.800 C 374.855 432.600 374.900 432.555 374.900 432.500 V 426.500 C 374.900 426.445 374.855 426.400 374.800 426.400 H 371.900 C 371.800 426.400 371.900 426.500 371.900 426.400 V 420.600 C 371.900 420.500 371.800 420.600 371.900 420.600 H 374.800 C 374.855 420.600 374.900 420.555 374.900 420.500 V 414.500 C 374.900 414.445 374.855 414.400 374.800 414.400 H 371.900 C 371.800 414.400 371.900 414.500 371.900 414.400 V 408.600 C 371.900 408.500 371.800 408.600 371.900 408.600 H 374.800 C 374.855 408.600 374.900 408.555 374.900 408.500 V 402.500 C 374.900 402.445 374.855 402.400 374.800 402.400 H 371.900 C 371.800 402.400 371.900 402.500 371.900 402.400 V 396.600 C 371.900 396.500 371.800 396.600 371.900 396.600 H 374.800 C 374.855 396.600 374.900 396.555 374.900 396.500 V 390.500 C 374.900 390.445 374.855 390.400 374.800 390.400 H 371.900 C 371.800 390.400 371.900 390.500 371.900 390.400 V 384.600 C 371.900 384.500 371.800 384.600 371.900 384.600 H 374.800 C 374.855 384.600 374.900 384.555 374.900 384.500 V 378.500 C 374.900 378.445 374.855 378.400 374.800 378.400 H 371.900 C 371.800 378.400 371.900 378.500 371.900 378.400 V 372.600 C 371.900 372.500 371.800 372.600 371.900 372.600 H 374.800 C 374.855 372.600 374.900 372.555 374.900 372.500 V 366.500 C 374.900 366.445 374.855 366.400 374.800 366.400 H 371.900 C 371.800 366.400 371.900 366.500 371.900 366.400 V 360.600 C 371.900 360.500 371.800 360.600 371.900 360.600 H 374.800 C 374.855 360.600 374.900 360.555 374.900 360.500 V 354.500 C 374.900 354.445 374.855 354.400 374.800 354.400 H 371.900 C 371.800 354.400 371.900 354.500 371.900 354.400 V 348.600 C 371.900 348.500 371.800 348.600 371.900 348.600 H 374.800 C 374.855 348.600 374.900 348.555 374.900 348.500 V 342.500 C 374.900 342.445 374.855 342.400 374.800 342.400 H 371.900 C 371.800 342.400 371.900 342.500 371.900 342.400 V 336.600 C 371.900 336.500 371.800 336.600 371.900 336.600 H 374.800 C 374.855 336.600 374.900 336.555 374.900 336.500 V 330.500 C 374.900 330.445 374.855 330.400 374.800 330.400 H 371.900 C 371.800 330.400 371.900 330.500 371.900 330.400 V 324.600 C 371.900 324.500 371.800 324.600 371.900 324.600 H 374.800 C 374.855 324.600 374.900 324.555 374.900 324.500 V 318.500 C 374.900 318.445 374.855 318.400 374.800 318.400 H 371.900 C 371.800 318.400 371.900 318.500 371.900 318.400 V 309.500 C 371.900 309.445 371.855 309.400 371.800 309.400 H 297.800 C 297.745 309.400 297.700 309.445 297.700 309.500 V 318.400 C 297.700 318.500 297.800 318.400 297.700 318.400 H 294.800 C 294.745 318.400 294.700 318.445 294.700 318.500 V 324.500 C 294.700 324.555 294.745 324.600 294.800 324.600 H 297.700 C 297.800 324.600 297.700 324.500 297.700 324.600 V 330.400 C 297.700 330.500 297.800 330.400 297.700 330.400 H 294.800 C 294.745 330.400 294.700 330.445 294.700 330.500 V 336.500 C 294.700 336.555 294.745 336.600 294.800 336.600 H 297.700 C 297.800 336.600 297.700 336.500 297.700 336.600 V 342.400 C 297.700 342.500 297.800 342.400 297.700 342.400 H 294.800 C 294.745 342.400 294.700 342.445 294.700 342.500 V 348.500 C 294.700 348.555 294.745 348.600 294.800 348.600 H 297.700 C 297.800 348.600 297.700 348.500 297.700 348.600 V 354.400 C 297.700 354.500 297.800 354.400 297.700 354.400 H 294.800 C 294.745 354.400 294.700 354.445 294.700 354.500 V 360.500 C 294.700 360.555 294.745 360.600 294.800 360.600 H 297.700 C 297.800 360.600 297.700 360.500 297.700 360.600 V 366.400 C 297.700 366.500 297.800 366.400 297.700 366.400 H 294.800 C 294.745 366.400 294.700 366.445 294.700 366.500 V 372.500 C 294.700 372.555 294.745 372.600 294.800 372.600 H 297.700 C 297.800 372.600 297.700 372.500 297.700 372.600 V 378.400 C 297.700 378.500 297.800 378.400 297.700 378.400 H 294.800 C 294.745 378.400 294.700 378.445 294.700 378.500 V 384.500 C 294.700 384.555 294.745 384.600 294.800 384.600 H 297.700 C 297.800 384.600 297.700 384.500 297.700 384.600 V 390.400 C 297.700 390.500 297.800 390.400 297.700 390.400 H 294.800 C 294.745 390.400 294.700 390.445 294.700 390.500 V 396.500 C 294.700 396.555 294.745 396.600 294.800 396.600 H 297.700 C 297.800 396.600 297.700 396.500 297.700 396.600 V 402.400 C 297.700 402.500 297.800 402.400 297.700 402.400 H 294.800 C 294.745 402.400 294.700 402.445 294.700 402.500 V 408.500 C 294.700 408.555 294.745 408.600 294.800 408.600 H 297.700 C 297.800 408.600 297.700 408.500 297.700 408.600 V 414.400 C 297.700 414.500 297.800 414.400 297.700 414.400 H 294.800 C 294.745 414.400 294.700 414.445 294.700 414.500 V 420.500 C 294.700 420.555 294.745 420.600 294.800 420.600 H 297.700 C 297.800 420.600 297.700 420.500 297.700 420.600 V 426.400 C 297.700 426.500 297.800 426.400 297.700 426.400 H 294.800 C 294.745 426.400 294.700 426.445 294.700 426.500 V 432.500 C 294.700 432.555 294.745 432.600 294.800 432.600 H 297.700 C 297.800 432.600 297.700 432.500 297.700 432.600 V 438.400 C 297.700 438.500 297.800 438.400 297.700 438.400 H 294.800 C 294.745 438.400 294.700 438.445 294.700 438.500 V 444.500 C 294.700 444.555 294.745 444.600 294.800 444.600 H 297.700 C 297.800 444.600 297.700 444.500 297.700 444.600 V 450.400 C 297.700 450.500 297.800 450.400 297.700 450.400 H 294.800 C 294.745 450.400 294.700 450.445 294.700 450.500 V 456.500 C 294.700 456.555 294.745 456.600 294.800 456.600 H 297.700 C 297.800 456.600 297.700 456.500 297.700 456.600 V 462.400 C 297.700 462.500 297.800 462.400 297.700 462.400 H 294.800 C 294.745 462.400 294.700 462.445 294.700 462.500 V 468.500 C 294.700 468.555 294.745 468.600 294.800 468.600 H 297.700 C 297.800 468.600 297.700 468.500 297.700 468.600 V 474.400 C 297.700 474.500 297.800 474.400 297.700 474.400 H 294.800 C 294.745 474.400 294.700 474.445 294.700 474.500 V 480.500 C 294.700 480.555 294.745 480.600 294.800 480.600 H 297.700 C 297.800 480.600 297.700 480.500 297.700 480.600 V 486.400 C 297.700 486.500 297.800 486.400 297.700 486.400 H 294.800 C 294.745 486.400 294.700 486.445 294.700 486.500 V 492.500 C 294.700 492.555 294.745 492.600 294.800 492.600 H 297.700 C 297.800 492.600 297.700 492.500 297.700 492.600 V 498.400 C 297.700 498.500 297.800 498.400 297.700 498.400 H 294.800 C 294.745 498.400 294.700 498.445 294.700 498.500 V 504.500 C 294.700 504.555 294.745 504.600 294.800 504.600 H 297.700 C 297.800 504.600 297.700 504.500 297.700 504.600 V 510.400 C 297.700 510.500 297.800 510.400 297.700 510.400 H 294.800 C 294.745 510.400 294.700 510.445 294.700 510.500 V 516.500 C 294.700 516.555 294.745 516.600 294.800 516.600 H 297.700 C 297.800 516.600 297.700 516.500 297.700 516.600 V 525.500 C 297.700 525.555 297.745 525.600 297.800 525.600" stroke="rgb(0,0,0)" stroke-width="0.20" />
</g>
<g id="p-5" style="fill:none;stroke-linecap:round;stroke-linejoin:round;">
  <path d="M 310.800 304.700 H 307.900 C 307.800 304.700 307.900 304.800 307.900 304.700 V 301.900 C 307.900 301.800 307.800 301.900 307.900 301.900 H 313.700 C 313.800 301.900 313.700 301.800 313.700 301.900 V 304.700 C 313.700 304.800 313.800 304.700 313.700 304.700 H 310.800 Z" stroke="rgb(0,0,255)" stroke-width="0.20" />
  <path d="M 322.800 304.700 H 319.900 C 319.800 304.700 319.900 304.800 319.900 304.700 V 301.900 C 319.900 301.800 319.800 301.900 319.900 301.900 H 325.700 C 325.800 301.900 325.700 301.800 325.700 301.900 V 304.700 C 325.700 304.800 325.800 304.700 325.700 304.700 H 322.800 Z" stroke="rgb(0,0,255)" stroke-width="0.20" />
  <path d="M 334.800 304.700 H 331.900 C 331.800 304.700 331.900 304.800 331.900 304.700 V 301.900 C 331.900 301.800 331.800 301.900 331.900 301.900 H 337.700 C 337.800 301.900 337.700 301.800 337.700 301.900 V 304.700 C 337.700 304.800 337.800 304.700 337.700 304.700 H 334.800 Z" stroke="rgb(0,0,255)" stroke-width="0.20" />
  <path d="M 346.800 304.700 H 343.900 C 343.800 304.700 343.900 304.800 343.900 304.700 V 301.900 C 343.900 301.800 343.800 301.900 343.900 301.900 H 349.700 C 349.800 301.900 349.700 301.800 349.700 301.900 V 304.700 C 349.700 304.800 349.800 304.700 349.700 304.700 H 346.800 Z" stroke="rgb(0,0,255)" stroke-width="0.20" />
  <path d="M 358.800 304.700 H 355.900 C 355.800 304.700 355.900 304.800 355.900 304.700 V 301.900 C 355.900 301.800 355.800 301.900 355.900 301.900 H 361.700 C 361.800 301.900 361.700 301.800 361.700 301.900 V 304.700 C 361.700 304.800 361.800 304.700 361.700 304.700 H 358.800 Z" stroke="rgb(0,0,255)" stroke-width="0.20" />
  <text dominant-baseline="hanging" font-size="4px" style="font-family: sans-serif ; font-weight: normal; font-style: normal; fill: rgb(255,0,0)" text-anchor="middle" transform="matrix( 1.000 0.000 0.000 1.000 334.800 197.900 )">right</text><path d="M 297.800 307.900 H 371.800 C 371.855 307.900 371.900 307.855 371.900 307.800 V 298.900 C 371.900 298.800 371.800 298.900 371.900 298.900 H 374.800 C 374.855 298.900 374.900 298.855 374.900 298.800 V 292.800 C 374.900 292.745 374.855 292.700 374.800 292.700 H 371.900 C 371.800 292.700 371.900 292.800 371.900 292.700 V 286.900 C 371.900 286.800 371.800 286.900 371.900 286.900 H 374.800 C 374.855 286.900 374.900 286.855 374.900 286.800 V 280.800 C 374.900 280.745 374.855 280.700 374.800 280.700 H 371.900 C 371.800 280.700 371.900 280.800 371.900 280.700 V 274.900 C 371.900 274.800 371.800 274.900 371.900 274.900 H 374.800 C 374.855 274.900 374.900 274.855 374.900 274.800 V 268.800 C 374.900 268.745 374.855 268.700 374.800 268.700 H 371.900 C 371.800 268.700 371.900 268.800 371.900 268.700 V 262.900 C 371.900 262.800 371.800 262.900 371.900 262.900 H 374.800 C 374.855 262.900 374.900 262.855 374.900 262.800 V 256.800 C 374.900 256.745 374.855 256.700 374.800 256.700 H 371.900 C 371.800 256.700 371.900 256.800 371.900 256.700 V 250.900 C 371.900 250.800 371.800 250.900 371.900 250.900 H 374.800 C 374.855 250.900 374.900 250.855 374.900 250.800 V 244.800 C 374.900 244.745 374.855 244.700 374.800 244.700 H 371.900 C 371.800 244.700 371.900 244.800 371.900 244.700 V 238.900 C 371.900 238.800 371.800 238.900 371.900 238.900 H 374.800 C 374.855 238.900 374.900 238.855 374.900 238.800 V 232.800 C 374.900 232.745 374.855 232.700 374.800 232.700 H 371.900 C 371.800 232.700 371.900 232.800 371.900 232.700 V 226.900 C 371.900 226.800 371.800 226.900 371.900 226.900 H 374.800 C 374.855 226.900 374.900 226.855 374.900 226.800 V 220.800 C 374.900 220.745 374.855 220.700 374.800 220.700 H 371.900 C 371.800 220.700 371.900 220.800 371.900 220.700 V 214.900 C 371.900 214.800 371.800 214.900 371.900 214.900 H 374.800 C 374.855 214.900 374.900 214.855 374.900 214.800 V 208.800 C 374.900 208.745 374.855 208.700 374.800 208.700 H 371.900 C 371.800 208.700 371.900 208.800 371.900 208.700 V 202.900 C 371.900 202.800 371.800 202.900 371.900 202.900 H 374.800 C 374.855 202.900 374.900 202.855 374.900 202.800 V 196.800 C 374.900 196.745 374.855 196.700 374.800 196.700 H 371.900 C 371.800 196.700 371.900 196.800 371.900 196.700 V 190.900 C 371.900 190.800 371.800 190.900 371.900 190.900 H 374.800 C 374.855 190.900 374.900 190.855 374.900 190.800 V 184.800 C 374.900 184.745 374.855 184.700 374.800 184.700 H 371.900 C 371.800 184.700 371.900 184.800 371.900 184.700 V 178.900 C 371.900 178.800 371.800 178.900 371.900 178.900 H 374.800 C 374.855 178.900 374.900 178.855 374.900 178.800 V 172.800 C 374.900 172.745 374.855 172.700 374.800 172.700 H 371.900 C 371.800 172.700 371.900 172.800 371.900 172.700 V 166.900 C 371.900 166.800 371.800 166.900 371.900 166.900 H 374.800 C 374.855 166.900 374.900 166.855 374.900 166.800 V 160.800 C 374.900 160.745 374.855 160.700 374.800 160.700 H 371.900 C 371.800 160.700 371.900 160.800 371.900 160.700 V 154.900 C 371.900 154.800 371.800 154.900 371.900 154.900 H 374.800 C 374.855 154.900 374.900 154.855 374.900 154.800 V 148.800 C 374.900 148.745 374.855 148.700 374.800 148.700 H 371.900 C 371.800 148.700 371.900 148.800 371.900 148.700 V 142.900 C 371.900 142.800 371.800 142.900 371.900 142.900 H 374.800 C 374.855 142.900 374.900 142.855 374.900 142.800 V 136.800 C 374.900 136.745 374.855 136.700 374.800 136.700 H 371.900 C 371.800 136.700 371.900 136.800 371.900 136.700 V 130.900 C 371.900 130.800 371.800 130.900 371.900 130.900 H 374.800 C 374.855 130.900 374.900 130.855 374.900 130.800 V 124.800 C 374.900 124.745 374.855 124.700 374.800 124.700 H 371.900 C 371.800 124.700 371.900 124.800 371.900 124.700 V 118.900 C 371.900 118.800 371.800 118.900 371.900 118.900 H 374.800 C 374.855 118.900 374.900 118.855 374.900 118.800 V 112.800 C 374.900 112.745 374.855 112.700 374.800 112.700 H 371.900 C 371.800 112.700 371.900 112.800 371.900 112.700 V 106.900 C 371.900 106.800 371.800 106.900 371.900 106.900 H 374.800 C 374.855 106.900 374.900 106.855 374.900 106.800 V 100.800 C 374.900 100.745 374.855 100.700 374.800 100.700 H 371.900 C 371.800 100.700 371.900 100.800 371.900 100.700 V 91.800 C 371.900 91.745 371.855 91.700 371.800 91.700 H 297.800 C 297.745 91.700 297.700 91.745 297.700 91.800 V 100.700 C 297.700 100.800 297.800 100.700 297.700 100.700 H 294.800 C 294.745 100.700 294.700 100.745 294.700 100.800 V 106.800 C 294.700 106.855 294.745 106.900 294.800 106.900 H 297.700 C 297.800 106.900 297.700 106.800 297.700 106.900 V 112.700 C 297.700 112.800 297.800 112.700 297.700 112.700 H 294.800 C 294.745 112.700 294.700 112.745 294.700 112.800 V 118.800 C 294.700 118.855 294.745 118.900 294.800 118.900 H 297.700 C 297.800 118.900 297.700 118.800 297.700 118.900 V 124.700 C 297.700 124.800 297.800 124.700 297.700 124.700 H 294.800 C 294.745 124.700 294.700 124.745 294.700 124.800 V 130.800 C 294.700 130.855 294.745 130.900 294.800 130.900 H 297.700 C 297.800 130.900 297.700 130.800 297.700 130.900 V 136.700 C 297.700 136.800 297.800 136.700 297.700 136.700 H 294.800 C 294.745 136.700 294.700 136.745 294.700 136.800 V 142.800 C 294.700 142.855 294.745 142.900 294.800 142.900 H 297.700 C 297.800 142.900 297.700 142.800 297.700 142.900 V 148.700 C 297.700 148.800 297.800 148.700 297.700 148.700 H 294.800 C 294.745 148.700 294.700 148.745 294.700 148.800 V 154.800 C 294.700 154.855 294.745 154.900 294.800 154.900 H 297.700 C 297.800 154.900 297.700 154.800 297.700 154.900 V 160.700 C 297.700 160.800 297.800 160.700 297.700 160.700 H 294.800 C 294.745 160.700 294.700 160.745 294.700 160.800 V 166.800 C 294.700 166.855 294.745 166.900 294.800 166.900 H 297.700 C 297.800 166.900 297.700 166.800 297.700 166.900 V 172.700 C 297.700 172.800 297.800 172.700 297.700 172.700 H 294.800 C 294.745 172.700 294.700 172.745 294.700 172.800 V 178.800 C 294.700 178.855 294.745 178.900 294.800 178.900 H 297.700 C 297.800 178.900 297.700 178.800 297.700 178.900 V 184.700 C 297.700 184.800 297.800 184.700 297.700 184.700 H 294.800 C 294.745 184.700 294.700 184.745 294.700 184.800 V 190.800 C 294.700 190.855 294.745 190.900 294.800 190.900 H 297.700 C 297.800 190.900 297.700 190.800 297.700 190.900 V 196.700 C 297.700 196.800 297.800 196.700 297.700 196.700 H 294.800 C 294.745 196.700 294.700 196.745 294.700 196.800 V 202.800 C 294.700 202.855 294.745 202.900 294.800 202.900 H 297.700 C 297.800 202.900 297.700 202.800 297.700 202.900 V 208.700 C 297.700 208.800 297.800 208.700 297.700 208.700 H 294.800 C 294.745 208.700 294.700 208.745 294.700 208.800 V 214.800 C 294.700 214.855 294.745 214.900 294.800 214.900 H 297.700 C 297.800 214.900 297.700 214.800 297.700 214.900 V 220.700 C 297.700 220.800 297.800 220.700 297.700 220.700 H 294.800 C 294.745 220.700 294.700 220.745 294.700 220.800 V 226.800 C 294.700 226.855 294.745 226.900 294.800 226.900 H 297.700 C 297.800 226.900 297.700 226.800 297.700 226.900 V 232.700 C 297.700 232.800 297.800 232.700 297.700 232.700 H 294.800 C 294.745 232.700 294.700 232.745 294.700 232.800 V 238.800 C 294.700 238.855 294.745 238.900 294.800 238.900 H 297.700 C 297.800 238.900 297.700 238.800 297.700 238.900 V 244.700 C 297.700 244.800 297.800 244.700 297.700 244.700 H 294.800 C 294.745 244.700 294.700 244.745 294.700 244.800 V 250.800 C 294.700 250.855 294.745 250.900 294.800 250.900 H 297.700 C 297.800 250.900 297.700 250.800 297.700 250.900 V 256.700 C 297.700 256.800 297.800 256.700 297.700 256.700 H 294.800 C 294.745 256.700 294.700 256.745 294.700 256.800 V 262.800 C 294.700 262.855 294.745 262.900 294.800 262.900 H 297.700 C 297.800 262.900 297.700 262.800 297.700 262.900 V 268.700 C 297.700 268.800 297.800 268.700 297.700 268.700 H 294.800 C 294.745 268.700 294.700 268.745 294.700 268.800 V 274.800 C 294.700 274.855 294.745 274.900 294.800 274.900 H 297.700 C 297.800 274.900 297.700 274.800 297.700 274.900 V 280.700 C 297.700 280.800 297.800 280.700 297.700 280.700 H 294.800 C 294.745 280.700 294.700 280.745 294.700 280.800 V 286.800 C 294.700 286.855 294.745 286.900 294.800 286.900 H 297.700 C 297.800 286.900 297.700 286.800 297.700 286.900 V 292.700 C 297.700 292.800 297.800 292.700 297.700 292.700 H 294.800 C 294.745 292.700 294.700 292.745 294.700 292.800 V 298.800 C 294.700 298.855 294.745 298.900 294.800 298.900 H 297.700 C 297.800 298.900 297.700 298.800 297.700 298.900 V 307.800 C 297.700 307.855 297.745 307.900 297.800 307.900" stroke="rgb(0,0,0)" stroke-width="0.20" />
</g>
</svg>