<?xml version='1.0' encoding='utf-8'?>
<svg height="590.30mm" viewBox="0.0 0.0 425.90 590.30" width="425.90mm" xmlns="http://www.w3.org/2000/svg" xmlns:cc="http://creativecommons.org/ns#" xmlns:dc="http://purl.org/dc/elements/1.1/" xmlns:inkscape="http://www.inkscape.org/namespaces/inkscape" xmlns:rdf="http://www.w3.org/1999/02/22-rdf-syntax-ns#" xmlns:svg="http://www.w3.org/2000/svg" xmlns:xlink="http://www.w3.org/1999/xlink">
<!--
UniversalBox - Box with various options for different styles and lids

Created with Boxes.py (https://boxes.hackerspace-bamberg.de/)
Creation date: 2026-01-04 22:58:56
Command line (remove spaces between dashes): boxes UniversalBox - -x - -y - -h - -output
-->
<title>UniversalBox</title>
<metadata>
<rdf:RDF><cc:Work>
<dc:title>Box - UniversalBox</dc:title>
<dc:date>2026-01-04 22:58:56</dc:date>
<dc:source>boxes UniversalBox --x 235.0 --y 169.0 --h 193.0 --thickness 3.0 --format svg --output 'D:\Programação\Projeto Caixa Criativa\Back-end\output\box_28eeff1b-1b41-48da-bcac-35659a4d52af.svg'</dc:source>
<dc:description>Box with various options for different styles and lids

Created with Boxes.py (https://boxes.hackerspace-bamberg.de/)
Command line: boxes UniversalBox --x 235.0 --y 169.0 --h 193.0 --thickness 3.0 --format svg --output 'D:\Programação\Projeto Caixa Criativa\Back-end\output\box_28eeff1b-1b41-48da-bcac-35659a4d52af.svg'
Command line short: boxes UniversalBox --x --y --h --output
</dc:description>
</cc:Work></rdf:RDF></metadata>
<g id="p-0" style="fill:none;stroke-linecap:round;stroke-linejoin:round;">
  <path d="M 10.100 580.300 H 110.100 V 570.300 H 10.100 V 580.300 Z" stroke="rgb(0,0,0)" stroke-width="0.20" />
  <text dominant-baseline="hanging" font-size="6px" style="font-family: sans-serif ; font-weight: normal; font-style: normal; fill: rgb(255,0,0)" text-anchor="middle" transform="matrix( 1.000 0.000 0.000 1.000 60.100 572.300 )">100.0mm, burn:0.10mm</text>
</g>
<g id="p-1" style="fill:none;stroke-linecap:round;stroke-linejoin:round;">
  <path d="M 25.600 565.400 H 22.700 C 22.600 565.400 22.700 565.500 22.700 565.400 V 562.600 C 22.700 562.500 22.600 562.600 22.700 562.600 H 28.500 C 28.600 562.600 28.500 562.500 28.500 562.600 V 565.400 C 28.500 565.500 28.600 565.400 28.500 565.400 H 25.600 Z" stroke="rgb(0,0,255)" stroke-width="0.20" />
  <path d="M 37.600 565.400 H 34.700 C 34.600 565.400 34.700 565.500 34.700 565.400 V 562.600 C 34.700 562.500 34.600 562.600 34.700 562.600 H 40.500 C 40.600 562.600 40.500 562.500 40.500 562.600 V 565.400 C 40.500 565.500 40.600 565.400 40.500 565.400 H 37.600 Z" stroke="rgb(0,0,255)" stroke-width="0.20" />
  <path d="M 49.600 565.400 H 46.700 C 46.600 565.400 46.700 565.500 46.700 565.400 V 562.600 C 46.700 562.500 46.600 562.600 46.700 562.600 H 52.500 C 52.600 562.600 52.500 562.500 52.500 562.600 V 565.400 C 52.500 565.500 52.600 565.400 52.500 565.400 H 49.600 Z" stroke="rgb(0,0,255)" stroke-width="0.20" />
  <path d="M 61.600 565.400 H 58.700 C 58.600 565.400 58.700 565.500 58.700 565.400 V 562.600 C 58.700 562.500 58.600 562.600 58.700 562.600 H 64.500 C 64.600 562.600 64.500 562.500 64.500 562.600 V 565.400 C 64.500 565.500 64.600 565.400 64.500 565.400 H 61.600 Z" stroke="rgb(0,0,255)" stroke-width="0.20" />
  <path d="M 73.600 565.400 H 70.700 C 70.600 565.400 70.700 565.500 70.700 565.400 V 562.600 C 70.700 562.500 70.600 562.600 70.700 562.600 H 76.500 C 76.600 562.600 76.500 562.500 76.500 562.600 V 565.400 C 76.500 565.500 76.600 565.400 76.500 565.400 H 73.600 Z" stroke="rgb(0,0,255)" stroke-width="0.20" />
  <path d="M 85.600 565.400 H 82.700 C 82.600 565.400 82.700 565.500 82.700 565.400 V 562.600 C 82.700 562.500 82.600 562.600 82.700 562.600 H 88.500 C 88.600 562.600 88.500 562.500 88.500 562.600 V 565.400 C 88.500 565.500 88.600 565.400 88.500 565.400 H 85.600 Z" stroke="rgb(0,0,255)" stroke-width="0.20" />
  <path d="M 97.600 565.400 H 94.700 C 94.600 565.400 94.700 565.500 94.700 565.400 V 562.600 C 94.700 562.500 94.600 562.600 94.700 562.600 H 100.500 C 100.600 562.600 100.500 562.500 100.500 562.600 V 565.400 C 100.500 565.500 100.600 565.400 100.500 565.400 H 97.600 Z" stroke="rgb(0,0,255)" stroke-width="0.20" />
  <path d="M 109.600 565.400 H 106.700 C 106.600 565.400 106.700 565.500 106.700 565.400 V 562.600 C 106.700 562.500 106.600 562.600 106.700 562.600 H 112.500 C 112.600 562.600 112.500 562.500 112.500 562.600 V 565.400 C 112.500 565.500 112.600 565.400 112.500 565.400 H 109.600 Z" stroke="rgb(0,0,255)" stroke-width="0.20" />
  <path d="M 121.600 565.400 H 118.700 C 118.600 565.400 118.700 565.500 118.700 565.400 V 562.600 C 118.700 562.500 118.600 562.600 118.700 562.600 H 124.500 C 124.600 562.600 124.500 562.500 124.500 562.600 V 565.400 C 124.500 565.500 124.600 565.400 124.500 565.400 H 121.600 Z" stroke="rgb(0,0,255)" stroke-width="0.20" />
  <path d="M 133.600 565.400 H 130.700 C 130.600 565.400 130.700 565.500 130.700 565.400 V 562.600 C 130.700 562.500 130.600 562.600 130.700 562.600 H 136.500 C 136.600 562.600 136.500 562.500 136.500 562.600 V 565.400 C 136.500 565.500 136.600 565.400 136.500 565.400 H 133.600 Z" stroke="rgb(0,0,255)" stroke-width="0.20" />
  <path d="M 145.600 565.400 H 142.700 C 142.600 565.400 142.700 565.500 142.700 565.400 V 562.600 C 142.700 562.500 142.600 562.600 142.700 562.600 H 148.500 C 148.600 562.600 148.500 562.500 148.500 562.600 V 565.400 C 148.500 565.500 148.600 565.400 148.500 565.400 H 145.600 Z" stroke="rgb(0,0,255)" stroke-width="0.20" />
  <path d="M 157.600 565.400 H 154.700 C 154.600 565.400 154.700 565.500 154.700 565.400 V 562.600 C 154.700 562.500 154.600 562.600 154.700 562.600 H 160.500 C 160.600 562.600 160.500 562.500 160.500 562.600 V 565.400 C 160.500 565.500 160.600 565.400 160.500 565.400 H 157.600 Z" stroke="rgb(0,0,255)" stroke-width="0.20" />
  <path d="M 169.600 565.400 H 166.700 C 166.600 565.400 166.700 565.500 166.700 565.400 V 562.600 C 166.700 562.500 166.600 562.600 166.700 562.600 H 172.500 C 172.600 562.600 172.500 562.500 172.500 562.600 V 565.400 C 172.500 565.500 172.600 565.400 172.500 565.400 H 169.600 Z" stroke="rgb(0,0,255)" stroke-width="0.20" />
  <path d="M 181.600 565.400 H 178.700 C 178.600 565.400 178.700 565.500 178.700 565.400 V 562.600 C 178.700 562.500 178.600 562.600 178.700 562.600 H 184.500 C 184.600 562.600 184.500 562.500 184.500 562.600 V 565.400 C 184.500 565.500 184.600 565.400 184.500 565.400 H 181.600 Z" stroke="rgb(0,0,255)" stroke-width="0.20" />
  <path d="M 193.600 565.400 H 190.700 C 190.600 565.400 190.700 565.500 190.700 565.400 V 562.600 C 190.700 562.500 190.600 562.600 190.700 562.600 H 196.500 C 196.600 562.600 196.500 562.500 196.500 562.600 V 565.400 C 196.500 565.500 196.600 565.400 196.500 565.400 H 193.600 Z" stroke="rgb(0,0,255)" stroke-width="0.20" />
  <path d="M 205.600 565.400 H 202.700 C 202.600 565.400 202.700 565.500 202.700 565.400 V 562.600 C 202.700 562.500 202.600 562.600 202.700 562.600 H 208.500 C 208.600 562.600 208.500 562.500 208.500 562.600 V 565.400 C 208.500 565.500 208.600 565.400 208.500 565.400 H 205.600 Z" stroke="rgb(0,0,255)" stroke-width="0.20" />
  <path d="M 217.600 565.400 H 214.700 C 214.600 565.400 214.700 565.500 214.700 565.400 V 562.600 C 214.700 562.500 214.600 562.600 214.700 562.600 H 220.500 C 220.600 562.600 220.500 562.500 220.500 562.600 V 565.400 C 220.500 565.500 220.600 565.400 220.500 565.400 H 217.600 Z" stroke="rgb(0,0,255)" stroke-width="0.20" />
  <path d="M 229.600 565.400 H 226.700 C 226.600 565.400 226.700 565.500 226.700 565.400 V 562.600 C 226.700 562.500 226.600 562.600 226.700 562.600 H 232.500 C 232.600 562.600 232.500 562.500 232.500 562.600 V 565.400 C 232.500 565.500 232.600 565.400 232.500 565.400 H 229.600 Z" stroke="rgb(0,0,255)" stroke-width="0.20" />
  <text dominant-baseline="hanging" font-size="4px" style="font-family: sans-serif ; font-weight: normal; font-style: normal; fill: rgb(255,0,0)" text-anchor="middle" transform="matrix( 1.000 0.000 0.000 1.000 127.600 470.100 )">front</text><path d="M 13.100 568.600 H 242.100 H 245.100 C 245.155 568.600 245.200 568.555 245.200 568.500 V 559.000 C 245.200 558.945 245.155 558.900 245.100 558.900 H 242.200 C 242.100 558.900 242.200 559.000 242.200 558.900 V 553.100 C 242.200 553.000 242.100 553.100 242.200 553.100 H 245.100 C 245.155 553.100 245.200 553.055 245.200 553.000 V 547.000 C 245.200 546.945 245.155 546.900 245.100 546.900 H 242.200 C 242.100 546.900 242.200 547.000 242.200 546.900 V 541.100 C 242.200 541.000 242.100 541.100 242.200 541.100 H 245.100 C 245.155 541.100 245.200 541.055 245.200 541.000 V 535.000 C 245.200 534.945 245.155 534.900 245.100 534.900 H 242.200 C 242.100 534.900 242.200 535.000 242.200 534.900 V 529.100 C 242.200 529.000 242.100 529.100 242.200 529.100 H 245.100 C 245.155 529.100 245.200 529.055 245.200 529.000 V 523.000 C 245.200 522.945 245.155 522.900 245.100 522.900 H 242.200 C 242.100 522.900 242.200 523.000 242.200 522.900 V 517.100 C 242.200 517.000 242.100 517.100 242.200 517.100 H 245.100 C 245.155 517.100 245.200 517.055 245.200 517.000 V 511.000 C 245.200 510.945 245.155 510.900 245.100 510.900 H 242.200 C 242.100 510.900 242.200 511.000 242.200 510.900 V 505.100 C 242.200 505.000 242.100 505.100 242.200 505.100 H 245.100 C 245.155 505.100 245.200 505.055 245.200 505.000 V 499.000 C 245.200 498.945 245.155 498.900 245.100 498.900 H 242.200 C 242.100 498.900 242.200 499.000 242.200 498.900 V 493.100 C 242.200 493.000 242.100 493.100 242.200 493.100 H 245.100 C 245.155 493.100 245.200 493.055 245.200 493.000 V 487.000 C 245.200 486.945 245.155 486.900 245.100 486.900 H 242.200 C 242.100 486.900 242.200 487.000 242.200 486.900 V 481.100 C 242.200 481.000 242.100 481.100 242.200 481.100 H 245.100 C 245.155 481.100 245.200 481.055 245.200 481.000 V 475.000 C 245.200 474.945 245.155 474.900 245.100 474.900 H 242.200 C 242.100 474.900 242.200 475.000 242.200 474.900 V 469.100 C 242.200 469.000 242.100 469.100 242.200 469.100 H 245.100 C 245.155 469.100 245.200 469.055 245.200 469.000 V 463.000 C 245.200 462.945 245.155 462.900 245.100 462.900 H 242.200 C 242.100 462.900 242.200 463.000 242.200 462.900 V 457.100 C 242.200 457.000 242.100 457.100 242.200 457.100 H 245.100 C 245.155 457.100 245.200 457.055 245.200 457.000 V 451.000 C 245.200 450.945 245.155 450.900 245.100 450.900 H 242.200 C 242.100 450.900 242.200 451.000 242.200 450.900 V 445.100 C 242.200 445.000 242.100 445.100 242.200 445.100 H 245.100 C 245.155 445.100 245.200 445.055 245.200 445.000 V 439.000 C 245.200 438.945 245.155 438.900 245.100 438.900 H 242.200 C 242.100 438.900 242.200 439.000 242.200 438.900 V 433.100 C 242.200 433.000 242.100 433.100 242.200 433.100 H 245.100 C 245.155 433.100 245.200 433.055 245.200 433.000 V 427.000 C 245.200 426.945 245.155 426.900 245.100 426.900 H 242.200 C 242.100 426.900 242.200 427.000 242.200 426.900 V 421.100 C 242.200 421.000 242.100 421.100 242.200 421.100 H 245.100 C 245.155 421.100 245.200 421.055 245.200 421.000 V 415.000 C 245.200 414.945 245.155 414.900 245.100 414.900 H 242.200 C 242.100 414.900 242.200 415.000 242.200 414.900 V 409.100 C 242.200 409.000 242.100 409.100 242.200 409.100 H 245.100 C 245.155 409.100 245.200 409.055 245.200 409.000 V 403.000 C 245.200 402.945 245.155 402.900 245.100 402.900 H 242.200 C 242.100 402.900 242.200 403.000 242.200 402.900 V 397.100 C 242.200 397.000 242.100 397.100 242.200 397.100 H 245.100 C 245.155 397.100 245.200 397.055 245.200 397.000 V 391.000 C 245.200 390.945 245.155 390.900 245.100 390.900 H 242.200 C 242.100 390.900 242.200 391.000 242.200 390.900 V 385.100 C 242.200 385.000 242.100 385.100 242.200 385.100 H 245.100 C 245.155 385.100 245.200 385.055 245.200 385.000 V 375.500 C 245.200 375.445 245.155 375.400 245.100 375.400 H 242.100 H 13.100 H 10.100 C 10.045 375.400 10.000 375.445 10.000 375.500 V 385.000 C 10.000 385.055 10.045 385.100 10.100 385.100 H 13.000 C 13.100 385.100 13.000 385.000 13.000 385.100 V 390.900 C 13.000 391.000 13.100 390.900 13.000 390.900 H 10.100 C 10.045 390.900 10.000 390.945 10.000 391.000 V 397.000 C 10.000 397.055 10.045 397.100 10.100 397.100 H 13.000 C 13.100 397.100 13.000 397.000 13.000 397.100 V 402.900 C 13.000 403.000 13.100 402.900 13.000 402.900 H 10.100 C 10.045 402.900 10.000 402.945 10.000 403.000 V 409.000 C 10.000 409.055 10.045 409.100 10.100 409.100 H 13.000 C 13.100 409.100 13.000 409.000 13.000 409.100 V 414.900 C 13.000 415.000 13.100 414.900 13.000 414.900 H 10.100 C 10.045 414.900 10.000 414.945 10.000 415.000 V 421.000 C 10.000 421.055 10.045 421.100 10.100 421.100 H 13.000 C 13.100 421.100 13.000 421.000 13.000 421.100 V 426.900 C 13.000 427.000 13.100 426.900 13.000 426.900 H 10.100 C 10.045 426.900 10.000 426.945 10.000 427.000 V 433.000 C 10.000 433.055 10.045 433.100 10.100 433.100 H 13.000 C 13.100 433.100 13.000 433.000 13.000 433.100 V 438.900 C 13.000 439.000 13.100 438.900 13.000 438.900 H 10.100 C 10.045 438.900 10.000 438.945 10.000 439.000 V 445.000 C 10.000 445.055 10.045 445.100 10.100 445.100 H 13.000 C 13.100 445.100 13.000 445.000 13.000 445.100 V 450.900 C 13.000 451.000 13.100 450.900 13.000 450.900 H 10.100 C 10.045 450.900 10.000 450.945 10.000 451.000 V 457.000 C 10.000 457.055 10.045 457.100 10.100 457.100 H 13.000 C 13.100 457.100 13.000 457.000 13.000 457.100 V 462.900 C 13.000 463.000 13.100 462.900 13.000 462.900 H 10.100 C 10.045 462.900 10.000 462.945 10.000 463.000 V 469.000 C 10.000 469.055 10.045 469.100 10.100 469.100 H 13.000 C 13.100 469.100 13.000 469.000 13.000 469.100 V 474.900 C 13.000 475.000 13.100 474.900 13.000 474.900 H 10.100 C 10.045 474.900 10.000 474.945 10.000 475.000 V 481.000 C 10.000 481.055 10.045 481.100 10.100 481.100 H 13.000 C 13.100 481.100 13.000 481.000 13.000 481.100 V 486.900 C 13.000 487.000 13.100 486.900 13.000 486.900 H 10.100 C 10.045 486.900 10.000 486.945 10.000 487.000 V 493.000 C 10.000 493.055 10.045 493.100 10.100 493.100 H 13.000 C 13.100 493.100 13.000 493.000 13.000 493.100 V 498.900 C 13.000 499.000 13.100 498.900 13.000 498.900 H 10.100 C 10.045 498.900 10.000 498.945 10.000 499.000 V 505.000 C 10.000 505.055 10.045 505.100 10.100 505.100 H 13.000 C 13.100 505.100 13.000 505.000 13.000 505.100 V 510.900 C 13.000 511.000 13.100 510.900 13.000 510.900 H 10.100 C 10.045 510.900 10.000 510.945 10.000 511.000 V 517.000 C 10.000 517.055 10.045 517.100 10.100 517.100 H 13.000 C 13.100 517.100 13.000 517.000 13.000 517.100 V 522.900 C 13.000 523.000 13.100 522.900 13.000 522.900 H 10.100 C 10.045 522.900 10.000 522.945 10.000 523.000 V 529.000 C 10.000 529.055 10.045 529.100 10.100 529.100 H 13.000 C 13.100 529.100 13.000 529.000 13.000 529.100 V 534.900 C 13.000 535.000 13.100 534.900 13.000 534.900 H 10.100 C 10.045 534.900 10.000 534.945 10.000 535.000 V 541.000 C 10.000 541.055 10.045 541.100 10.100 541.100 H 13.000 C 13.100 541.100 13.000 541.000 13.000 541.100 V 546.900 C 13.000 547.000 13.100 546.900 13.000 546.900 H 10.100 C 10.045 546.900 10.000 546.945 10.000 547.000 V 553.000 C 10.000 553.055 10.045 553.100 10.100 553.100 H 13.000 C 13.100 553.100 13.000 553.000 13.000 553.100 V 558.900 C 13.000 559.000 13.100 558.900 13.000 558.900 H 10.100 C 10.045 558.900 10.000 558.945 10.000 559.000 V 568.500 C 10.000 568.555 10.045 568.600 10.100 568.600 H 13.100" stroke="rgb(0,0,0)" stroke-width="0.20" />
</g>
<g id="p-2" style="fill:none;stroke-linecap:round;stroke-linejoin:round;">
  <path d="M 25.600 370.700 H 22.700 C 22.600 370.700 22.700 370.800 22.700 370.700 V 367.900 C 22.700 367.800 22.600 367.900 22.700 367.900 H 28.500 C 28.600 367.900 28.500 367.800 28.500 367.900 V 370.700 C 28.500 370.800 28.600 370.700 28.500 370.700 H 25.600 Z" stroke="rgb(0,0,255)" stroke-width="0.20" />
  <path d="M 37.600 370.700 H 34.700 C 34.600 370.700 34.700 370.800 34.700 370.700 V 367.900 C 34.700 367.800 34.600 367.900 34.700 367.900 H 40.500 C 40.600 367.900 40.500 367.800 40.500 367.900 V 370.700 C 40.500 370.800 40.600 370.700 40.500 370.700 H 37.600 Z" stroke="rgb(0,0,255)" stroke-width="0.20" />
  <path d="M 49.600 370.700 H 46.700 C 46.600 370.700 46.700 370.800 46.700 370.700 V 367.900 C 46.700 367.800 46.600 367.900 46.700 367.900 H 52.500 C 52.600 367.900 52.500 367.800 52.500 367.900 V 370.700 C 52.500 370.800 52.600 370.700 52.500 370.700 H 49.600 Z" stroke="rgb(0,0,255)" stroke-width="0.20" />
  <path d="M 61.600 370.700 H 58.700 C 58.600 370.700 58.700 370.800 58.700 370.700 V 367.900 C 58.700 367.800 58.600 367.900 58.700 367.900 H 64.500 C 64.600 367.900 64.500 367.800 64.500 367.900 V 370.700 C 64.500 370.800 64.600 370.700 64.500 370.700 H 61.600 Z" stroke="rgb(0,0,255)" stroke-width="0.20" />
  <path d="M 73.600 370.700 H 70.700 C 70.600 370.700 70.700 370.800 70.700 370.700 V 367.900 C 70.700 367.800 70.600 367.900 70.700 367.900 H 76.500 C 76.600 367.900 76.500 367.800 76.500 367.900 V 370.700 C 76.500 370.800 76.600 370.700 76.500 370.700 H 73.600 Z" stroke="rgb(0,0,255)" stroke-width="0.20" />
  <path d="M 85.600 370.700 H 82.700 C 82.600 370.700 82.700 370.800 82.700 370.700 V 367.900 C 82.700 367.800 82.600 367.900 82.700 367.900 H 88.500 C 88.600 367.900 88.500 367.800 88.500 367.900 V 370.700 C 88.500 370.800 88.600 370.700 88.500 370.700 H 85.600 Z" stroke="rgb(0,0,255)" stroke-width="0.20" />
  <path d="M 97.600 370.700 H 94.700 C 94.600 370.700 94.700 370.800 94.700 370.700 V 367.900 C 94.700 367.800 94.600 367.900 94.700 367.900 H 100.500 C 100.600 367.900 100.500 367.800 100.500 367.900 V 370.700 C 100.500 370.800 100.600 370.700 100.500 370.700 H 97.600 Z" stroke="rgb(0,0,255)" stroke-width="0.20" />
  <path d="M 109.600 370.700 H 106.700 C 106.600 370.700 106.700 370.800 106.700 370.700 V 367.900 C 106.700 367.800 106.600 367.900 106.700 367.900 H 112.500 C 112.600 367.900 112.500 367.800 112.500 367.900 V 370.700 C 112.500 370.800 112.600 370.700 112.500 370.700 H 109.600 Z" stroke="rgb(0,0,255)" stroke-width="0.20" />
  <path d="M 121.600 370.700 H 118.700 C 118.600 370.700 118.700 370.800 118.700 370.700 V 367.900 C 118.700 367.800 118.600 367.900 118.700 367.900 H 124.500 C 124.600 367.900 124.500 367.800 124.500 367.900 V 370.700 C 124.500 370.800 124.600 370.700 124.500 370.700 H 121.600 Z" stroke="rgb(0,0,255)" stroke-width="0.20" />
  <path d="M 133.600 370.700 H 130.700 C 130.600 370.700 130.700 370.800 130.700 370.700 V 367.900 C 130.700 367.800 130.600 367.900 130.700 367.900 H 136.500 C 136.600 367.900 136.500 367.800 136.500 367.900 V 370.700 C 136.500 370.800 136.600 370.700 136.500 370.700 H 133.600 Z" stroke="rgb(0,0,255)" stroke-width="0.20" />
  <path d="M 145.600 370.700 H 142.700 C 142.600 370.700 142.700 370.800 142.700 370.700 V 367.900 C 142.700 367.800 142.600 367.900 142.700 367.900 H 148.500 C 148.600 367.900 148.500 367.800 148.500 367.900 V 370.700 C 148.500 370.800 148.600 370.700 148.500 370.700 H 145.600 Z" stroke="rgb(0,0,255)" stroke-width="0.20" />
  <path d="M 157.600 370.700 H 154.700 C 154.600 370.700 154.700 370.800 154.700 370.700 V 367.900 C 154.700 367.800 154.600 367.900 154.700 367.900 H 160.500 C 160.600 367.900 160.500 367.800 160.500 367.900 V 370.700 C 160.500 370.800 160.600 370.700 160.500 370.700 H 157.600 Z" stroke="rgb(0,0,255)" stroke-width="0.20" />
  <path d="M 169.600 370.700 H 166.700 C 166.600 370.700 166.700 370.800 166.700 370.700 V 367.900 C 166.700 367.800 166.600 367.900 166.700 367.900 H 172.500 C 172.600 367.900 172.500 367.800 172.500 367.900 V 370.700 C 172.500 370.800 172.600 370.700 172.500 370.700 H 169.600 Z" stroke="rgb(0,0,255)" stroke-width="0.20" />
  <path d="M 181.600 370.700 H 178.700 C 178.600 370.700 178.700 370.800 178.700 370.700 V 367.900 C 178.700 367.800 178.600 367.900 178.700 367.900 H 184.500 C 184.600 367.900 184.500 367.800 184.500 367.900 V 370.700 C 184.500 370.800 184.600 370.700 184.500 370.700 H 181.600 Z" stroke="rgb(0,0,255)" stroke-width="0.20" />
  <path d="M 193.600 370.700 H 190.700 C 190.600 370.700 190.700 370.800 190.700 370.700 V 367.900 C 190.700 367.800 190.600 367.900 190.700 367.900 H 196.500 C 196.600 367.900 196.500 367.800 196.500 367.900 V 370.700 C 196.500 370.800 196.600 370.700 196.500 370.700 H 193.600 Z" stroke="rgb(0,0,255)" stroke-width="0.20" />
  <path d="M 205.600 370.700 H 202.700 C 202.600 370.700 202.700 370.800 202.700 370.700 V 367.900 C 202.700 367.800 202.600 367.900 202.700 367.900 H 208.500 C 208.600 367.900 208.500 367.800 208.500 367.900 V 370.700 C 208.500 370.800 208.600 370.700 208.500 370.700 H 205.600 Z" stroke="rgb(0,0,255)" stroke-width="0.20" />
  <path d="M 217.600 370.700 H 214.700 C 214.600 370.700 214.700 370.800 214.700 370.700 V 367.900 C 214.700 367.800 214.600 367.900 214.700 367.900 H 220.500 C 220.600 367.900 220.500 367.800 220.500 367.900 V 370.700 C 220.500 370.800 220.600 370.700 220.500 370.700 H 217.600 Z" stroke="rgb(0,0,255)" stroke-width="0.20" />
  <path d="M 229.600 370.700 H 226.700 C 226.600 370.700 226.700 370.800 226.700 370.700 V 367.900 C 226.700 367.800 226.600 367.900 226.700 367.900 H 232.500 C 232.600 367.900 232.500 367.800 232.500 367.900 V 370.700 C 232.500 370.800 232.600 370.700 232.500 370.700 H 229.600 Z" stroke="rgb(0,0,255)" stroke-width="0.20" />
  <text dominant-baseline="hanging" font-size="4px" style="font-family: sans-serif ; font-weight: normal; font-style: normal; fill: rgb(255,0,0)" text-anchor="middle" transform="matrix( 1.000 0.000 0.000 1.000 127.600 275.400 )">back</text><path d="M 13.100 373.900 H 242.100 H 245.100 C 245.155 373.900 245.200 373.855 245.200 373.800 V 364.300 C 245.200 364.245 245.155 364.200 245.100 364.200 H 242.200 C 242.100 364.200 242.200 364.300 242.200 364.200 V 358.400 C 242.200 358.300 242.100 358.400 242.200 358.400 H 245.100 C 245.155 358.400 245.200 358.355 245.200 358.300 V 352.300 C 245.200 352.245 245.155 352.200 245.100 352.200 H 242.200 C 242.100 352.200 242.200 352.300 242.200 352.200 V 346.400 C 242.200 346.300 242.100 346.400 242.200 346.400 H 245.100 C 245.155 346.400 245.200 346.355 245.200 346.300 V 340.300 C 245.200 340.245 245.155 340.200 245.100 340.200 H 242.200 C 242.100 340.200 242.200 340.300 242.200 340.200 V 334.400 C 242.200 334.300 242.100 334.400 242.200 334.400 H 245.100 C 245.155 334.400 245.200 334.355 245.200 334.300 V 328.300 C 245.200 328.245 245.155 328.200 245.100 328.200 H 242.200 C 242.100 328.200 242.200 328.300 242.200 328.200 V 322.400 C 242.200 322.300 242.100 322.400 242.200 322.400 H 245.100 C 245.155 322.400 245.200 322.355 245.200 322.300 V 316.300 C 245.200 316.245 245.155 316.200 245.100 316.200 H 242.200 C 242.100 316.200 242.200 316.300 242.200 316.200 V 310.400 C 242.200 310.300 242.100 310.400 242.200 310.400 H 245.100 C 245.155 310.400 245.200 310.355 245.200 310.300 V 304.300 C 245.200 304.245 245.155 304.200 245.100 304.200 H 242.200 C 242.100 304.200 242.200 304.300 242.200 304.200 V 298.400 C 242.200 298.300 242.100 298.400 242.200 298.400 H 245.100 C 245.155 298.400 245.200 298.355 245.200 298.300 V 292.300 C 245.200 292.245 245.155 292.200 245.100 292.200 H 242.200 C 242.100 292.200 242.200 292.300 242.200 292.200 V 286.400 C 242.200 286.300 242.100 286.400 242.200 286.400 H 245.100 C 245.155 286.400 245.200 286.355 245.200 286.300 V 280.300 C 245.200 280.245 245.155 280.200 245.100 280.200 H 242.200 C 242.100 280.200 242.200 280.300 242.200 280.200 V 274.400 C 242.200 274.300 242.100 274.400 242.200 274.400 H 245.100 C 245.155 274.400 245.200 274.355 245.200 274.300 V 268.300 C 245.200 268.245 245.155 268.200 245.100 268.200 H 242.200 C 242.100 268.200 242.200 268.300 242.200 268.200 V 262.400 C 242.200 262.300 242.100 262.400 242.200 262.400 H 245.100 C 245.155 262.400 245.200 262.355 245.200 262.300 V 256.300 C 245.200 256.245 245.155 256.200 245.100 256.200 H 242.200 C 242.100 256.200 242.200 256.300 242.200 256.200 V 250.400 C 242.200 250.300 242.100 250.400 242.200 250.400 H 245.100 C 245.155 250.400 245.200 250.355 245.200 250.300 V 244.300 C 245.200 244.245 245.155 244.200 245.100 244.200 H 242.200 C 242.100 244.200 242.200 244.300 242.200 244.200 V 238.400 C 242.200 238.300 242.100 238.400 242.200 238.400 H 245.100 C 245.155 238.400 245.200 238.355 245.200 238.300 V 232.300 C 245.200 232.245 245.155 232.200 245.100 232.200 H 242.200 C 242.100 232.200 242.200 232.300 242.200 232.200 V 226.400 C 242.200 226.300 242.100 226.400 242.200 226.400 H 245.100 C 245.155 226.400 245.200 226.355 245.200 226.300 V 220.300 C 245.200 220.245 245.155 220.200 245.100 220.200 H 242.200 C 242.100 220.200 242.200 220.300 242.200 220.200 V 214.400 C 242.200 214.300 242.100 214.400 242.200 214.400 H 245.100 C 245.155 214.400 245.200 214.355 245.200 214.300 V 208.300 C 245.200 208.245 245.155 208.200 245.100 208.200 H 242.200 C 242.100 208.200 242.200 208.300 242.200 208.200 V 202.400 C 242.200 202.300 242.100 202.400 242.200 202.400 H 245.100 C 245.155 202.400 245.200 202.355 245.200 202.300 V 196.300 C 245.200 196.245 245.155 196.200 245.100 196.200 H 242.200 C 242.100 196.200 242.200 196.300 242.200 196.200 V 190.400 C 242.200 190.300 242.100 190.400 242.200 190.400 H 245.100 C 245.155 190.400 245.200 190.355 245.200 190.300 V 180.800 C 245.200 180.745 245.155 180.700 245.100 180.700 H 242.100 H 13.100 H 10.100 C 10.045 180.700 10.000 180.745 10.000 180.800 V 190.300 C 10.000 190.355 10.045 190.400 10.100 190.400 H 13.000 C 13.100 190.400 13.000 190.300 13.000 190.400 V 196.200 C 13.000 196.300 13.100 196.200 13.000 196.200 H 10.100 C 10.045 196.200 10.000 196.245 10.000 196.300 V 202.300 C 10.000 202.355 10.045 202.400 10.100 202.400 H 13.000 C 13.100 202.400 13.000 202.300 13.000 202.400 V 208.200 C 13.000 208.300 13.100 208.200 13.000 208.200 H 10.100 C 10.045 208.200 10.000 208.245 10.000 208.300 V 214.300 C 10.000 214.355 10.045 214.400 10.100 214.400 H 13.000 C 13.100 214.400 13.000 214.300 13.000 214.400 V 220.200 C 13.000 220.300 13.100 220.200 13.000 220.200 H 10.100 C 10.045 220.200 10.000 220.245 10.000 220.300 V 226.300 C 10.000 226.355 10.045 226.400 10.100 226.400 H 13.000 C 13.100 226.400 13.000 226.300 13.000 226.400 V 232.200 C 13.000 232.300 13.100 232.200 13.000 232.200 H 10.100 C 10.045 232.200 10.000 232.245 10.000 232.300 V 238.300 C 10.000 238.355 10.045 238.400 10.100 238.400 H 13.000 C 13.100 238.400 13.000 238.300 13.000 238.400 V 244.200 C 13.000 244.300 13.100 244.200 13.000 244.200 H 10.100 C 10.045 244.200 10.000 244.245 10.000 244.300 V 250.300 C 10.000 250.355 10.045 250.400 10.100 250.400 H 13.000 C 13.100 250.400 13.000 250.300 13.000 250.400 V 256.200 C 13.000 256.300 13.100 256.200 13.000 256.200 H 10.100 C 10.045 256.200 10.000 256.245 10.000 256.300 V 262.300 C 10.000 262.355 10.045 262.400 10.100 262.400 H 13.000 C 13.100 262.400 13.000 262.300 13.000 262.400 V 268.200 C 13.000 268.300 13.100 268.200 13.000 268.200 H 10.100 C 10.045 268.200 10.000 268.245 10.000 268.300 V 274.300 C 10.000 274.355 10.045 274.400 10.100 274.400 H 13.000 C 13.100 274.400 13.000 274.300 13.000 274.400 V 280.200 C 13.000 280.300 13.100 280.200 13.000 280.200 H 10.100 C 10.045 280.200 10.000 280.245 10.000 280.300 V 286.300 C 10.000 286.355 10.045 286.400 10.100 286.400 H 13.000 C 13.100 286.400 13.000 286.300 13.000 286.400 V 292.200 C 13.000 292.300 13.100 292.200 13.000 292.200 H 10.100 C 10.045 292.200 10.000 292.245 10.000 292.300 V 298.300 C 10.000 298.355 10.045 298.400 10.100 298.400 H 13.000 C 13.100 298.400 13.000 298.300 13.000 298.400 V 304.200 C 13.000 304.300 13.100 304.200 13.000 304.200 H 10.100 C 10.045 304.200 10.000 304.245 10.000 304.300 V 310.300 C 10.000 310.355 10.045 310.400 10.100 310.400 H 13.000 C 13.100 310.400 13.000 310.300 13.000 310.400 V 316.200 C 13.000 316.300 13.100 316.200 13.000 316.200 H 10.100 C 10.045 316.200 10.000 316.245 10.000 316.300 V 322.300 C 10.000 322.355 10.045 322.400 10.100 322.400 H 13.000 C 13.100 322.400 13.000 322.300 13.000 322.400 V 328.200 C 13.000 328.300 13.100 328.200 13.000 328.200 H 10.100 C 10.045 328.200 10.000 328.245 10.000 328.300 V 334.300 C 10.000 334.355 10.045 334.400 10.100 334.400 H 13.000 C 13.100 334.400 13.000 334.300 13.000 334.400 V 340.200 C 13.000 340.300 13.100 340.200 13.000 340.200 H 10.100 C 10.045 340.200 10.000 340.245 10.000 340.300 V 346.300 C 10.000 346.355 10.045 346.400 10.100 346.400 H 13.000 C 13.100 346.400 13.000 346.300 13.000 346.400 V 352.200 C 13.000 352.300 13.100 352.200 13.000 352.200 H 10.100 C 10.045 352.200 10.000 352.245 10.000 352.300 V 358.300 C 10.000 358.355 10.045 358.400 10.100 358.400 H 13.000 C 13.100 358.400 13.000 358.300 13.000 358.400 V 364.200 C 13.000 364.300 13.100 364.200 13.000 364.200 H 10.100 C 10.045 364.200 10.000 364.245 10.000 364.300 V 373.800 C 10.000 373.855 10.045 373.900 10.100 373.900 H 13.100" stroke="rgb(0,0,0)" stroke-width="0.20" />
</g>
<g id="p-3" style="fill:none;stroke-linecap:round;stroke-linejoin:round;">
  <text dominant-baseline="hanging" font-size="4px" style="font-family: sans-serif ; font-weight: normal; font-style: normal; fill: rgb(255,0,0)" text-anchor="middle" transform="matrix( 1.000 0.000 0.000 1.000 127.600 92.700 )">bottom</text><path d="M 13.100 176.200 H 22.500 C 22.600 176.200 22.500 176.100 22.500 176.200 V 179.100 C 22.500 179.155 22.545 179.200 22.600 179.200 H 28.600 C 28.655 179.200 28.700 179.155 28.700 179.100 V 176.200 C 28.700 176.100 28.600 176.200 28.700 176.200 H 34.500 C 34.600 176.200 34.500 176.100 34.500 176.200 V 179.100 C 34.500 179.155 34.545 179.200 34.600 179.200 H 40.600 C 40.655 179.200 40.700 179.155 40.700 179.100 V 176.200 C 40.700 176.100 40.600 176.200 40.700 176.200 H 46.500 C 46.600 176.200 46.500 176.100 46.500 176.200 V 179.100 C 46.500 179.155 46.545 179.200 46.600 179.200 H 52.600 C 52.655 179.200 52.700 179.155 52.700 179.100 V 176.200 C 52.700 176.100 52.600 176.200 52.700 176.200 H 58.500 C 58.600 176.200 58.500 176.100 58.500 176.200 V 179.100 C 58.500 179.155 58.545 179.200 58.600 179.200 H 64.600 C 64.655 179.200 64.700 179.155 64.700 179.100 V 176.200 C 64.700 176.100 64.600 176.200 64.700 176.200 H 70.500 C 70.600 176.200 70.500 176.100 70.500 176.200 V 179.100 C 70.500 179.155 70.545 179.200 70.600 179.200 H 76.600 C 76.655 179.200 76.700 179.155 76.700 179.100 V 176.200 C 76.700 176.100 76.600 176.200 76.700 176.200 H 82.500 C 82.600 176.200 82.500 176.100 82.500 176.200 V 179.100 C 82.500 179.155 82.545 179.200 82.600 179.200 H 88.600 C 88.655 179.200 88.700 179.155 88.700 179.100 V 176.200 C 88.700 176.100 88.600 176.200 88.700 176.200 H 94.500 C 94.600 176.200 94.500 176.100 94.500 176.200 V 179.100 C 94.500 179.155 94.545 179.200 94.600 179.200 H 100.600 C 100.655 179.200 100.700 179.155 100.700 179.100 V 176.200 C 100.700 176.100 100.600 176.200 100.700 176.200 H 106.500 C 106.600 176.200 106.500 176.100 106.500 176.200 V 179.100 C 106.500 179.155 106.545 179.200 106.600 179.200 H 112.600 C 112.655 179.200 112.700 179.155 112.700 179.100 V 176.200 C 112.700 176.100 112.600 176.200 112.700 176.200 H 118.500 C 118.600 176.200 118.500 176.100 118.500 176.200 V 179.100 C 118.500 179.155 118.545 179.200 118.600 179.200 H 124.600 C 124.655 179.200 124.700 179.155 124.700 179.100 V 176.200 C 124.700 176.100 124.600 176.200 124.700 176.200 H 130.500 C 130.600 176.200 130.500 176.100 130.500 176.200 V 179.100 C 130.500 179.155 130.545 179.200 130.600 179.200 H 136.600 C 136.655 179.200 136.700 179.155 136.700 179.100 V 176.200 C 136.700 176.100 136.600 176.200 136.700 176.200 H 142.500 C 142.600 176.200 142.500 176.100 142.500 176.200 V 179.100 C 142.500 179.155 142.545 179.200 142.600 179.200 H 148.600 C 148.655 179.200 148.700 179.155 148.700 179.100 V 176.200 C 148.700 176.100 148.600 176.200 148.700 176.200 H 154.500 C 154.600 176.200 154.500 176.100 154.500 176.200 V 179.100 C 154.500 179.155 154.545 179.200 154.600 179.200 H 160.600 C 160.655 179.200 160.700 179.155 160.700 179.100 V 176.200 C 160.700 176.100 160.600 176.200 160.700 176.200 H 166.500 C 166.600 176.200 166.500 176.100 166.500 176.200 V 179.100 C 166.500 179.155 166.545 179.200 166.600 179.200 H 172.600 C 172.655 179.200 172.700 179.155 172.700 179.100 V 176.200 C 172.700 176.100 172.600 176.200 172.700 176.200 H 178.500 C 178.600 176.200 178.500 176.100 178.500 176.200 V 179.100 C 178.500 179.155 178.545 179.200 178.600 179.200 H 184.600 C 184.655 179.200 184.700 179.155 184.700 179.100 V 176.200 C 184.700 176.100 184.600 176.200 184.700 176.200 H 190.500 C 190.600 176.200 190.500 176.100 190.500 176.200 V 179.100 C 190.500 179.155 190.545 179.200 190.600 179.200 H 196.600 C 196.655 179.200 196.700 179.155 196.700 179.100 V 176.200 C 196.700 176.100 196.600 176.200 196.700 176.200 H 202.500 C 202.600 176.200 202.500 176.100 202.500 176.200 V 179.100 C 202.500 179.155 202.545 179.200 202.600 179.200 H 208.600 C 208.655 179.200 208.700 179.155 208.700 179.100 V 176.200 C 208.700 176.100 208.600 176.200 208.700 176.200 H 214.500 C 214.600 176.200 214.500 176.100 214.500 176.200 V 179.100 C 214.500 179.155 214.545 179.200 214.600 179.200 H 220.600 C 220.655 179.200 220.700 179.155 220.700 179.100 V 176.200 C 220.700 176.100 220.600 176.200 220.700 176.200 H 226.500 C 226.600 176.200 226.500 176.100 226.500 176.200 V 179.100 C 226.500 179.155 226.545 179.200 226.600 179.200 H 232.600 C 232.655 179.200 232.700 179.155 232.700 179.100 V 176.200 C 232.700 176.100 232.600 176.200 232.700 176.200 H 242.100 C 242.155 176.200 242.200 176.155 242.200 176.100 V 169.700 C 242.200 169.600 242.100 169.700 242.200 169.700 H 245.100 C 245.155 169.700 245.200 169.655 245.200 169.600 V 163.600 C 245.200 163.545 245.155 163.500 245.100 163.500 H 242.200 C 242.100 163.500 242.200 163.600 242.200 163.500 V 157.700 C 242.200 157.600 242.100 157.700 242.200 157.700 H 245.100 C 245.155 157.700 245.200 157.655 245.200 157.600 V 151.600 C 245.200 151.545 245.155 151.500 245.100 151.500 H 242.200 C 242.100 151.500 242.200 151.600 242.200 151.500 V 145.700 C 242.200 145.600 242.100 145.700 242.200 145.700 H 245.100 C 245.155 145.700 245.200 145.655 245.200 145.600 V 139.600 C 245.200 139.545 245.155 139.500 245.100 139.500 H 242.200 C 242.100 139.500 242.200 139.600 242.200 139.500 V 133.700 C 242.200 133.600 242.100 133.700 242.200 133.700 H 245.100 C 245.155 133.700 245.200 133.655 245.200 133.600 V 127.600 C 245.200 127.545 245.155 127.500 245.100 127.500 H 242.200 C 242.100 127.500 242.200 127.600 242.200 127.500 V 121.700 C 242.200 121.600 242.100 121.700 242.200 121.700 H 245.100 C 245.155 121.700 245.200 121.655 245.200 121.600 V 115.600 C 245.200 115.545 245.155 115.500 245.100 115.500 H 242.200 C 242.100 115.500 242.200 115.600 242.200 115.500 V 109.700 C 242.200 109.600 242.100 109.700 242.200 109.700 H 245.100 C 245.155 109.700 245.200 109.655 245.200 109.600 V 103.600 C 245.200 103.545 245.155 103.500 245.100 103.500 H 242.200 C 242.100 103.500 242.200 103.600 242.200 103.500 V 97.700 C 242.200 97.600 242.100 97.700 242.200 97.700 H 245.100 C 245.155 97.700 245.200 97.655 245.200 97.600 V 91.600 C 245.200 91.545 245.155 91.500 245.100 91.500 H 242.200 C 242.100 91.500 242.200 91.600 242.200 91.500 V 85.700 C 242.200 85.600 242.100 85.700 242.200 85.700 H 245.100 C 245.155 85.700 245.200 85.655 245.200 85.600 V 79.600 C 245.200 79.545 245.155 79.500 245.100 79.500 H 242.200 C 242.100 79.500 242.200 79.600 242.200 79.500 V 73.700 C 242.200 73.600 242.100 73.700 242.200 73.700 H 245.100 C 245.155 73.700 245.200 73.655 245.200 73.600 V 67.600 C 245.200 67.545 245.155 67.500 245.100 67.500 H 242.200 C 242.100 67.500 242.200 67.600 242.200 67.500 V 61.700 C 242.200 61.600 242.100 61.700 242.200 61.700 H 245.100 C 245.155 61.700 245.200 61.655 245.200 61.600 V 55.600 C 245.200 55.545 245.155 55.500 245.100 55.500 H 242.200 C 242.100 55.500 242.200 55.600 242.200 55.500 V 49.700 C 242.200 49.600 242.100 49.700 242.200 49.700 H 245.100 C 245.155 49.700 245.200 49.655 245.200 49.600 V 43.600 C 245.200 43.545 245.155 43.500 245.100 43.500 H 242.200 C 242.100 43.500 242.200 43.600 242.200 43.500 V 37.700 C 242.200 37.600 242.100 37.700 242.200 37.700 H 245.100 C 245.155 37.700 245.200 37.655 245.200 37.600 V 31.600 C 245.200 31.545 245.155 31.500 245.100 31.500 H 242.200 C 242.100 31.500 242.200 31.600 242.200 31.500 V 25.700 C 242.200 25.600 242.100 25.700 242.200 25.700 H 245.100 C 245.155 25.700 245.200 25.655 245.200 25.600 V 19.600 C 245.200 19.545 245.155 19.500 245.100 19.500 H 242.200 C 242.100 19.500 242.200 19.600 242.200 19.500 V 13.100 C 242.200 13.045 242.155 13.000 242.100 13.000 H 232.700 C 232.600 13.000 232.700 13.100 232.700 13.000 V 10.100 C 232.700 10.045 232.655 10.000 232.600 10.000 H 226.600 C 226.545 10.000 226.500 10.045 226.500 10.100 V 13.000 C 226.500 13.100 226.600 13.000 226.500 13.000 H 220.700 C 220.600 13.000 220.700 13.100 220.700 13.000 V 10.100 C 220.700 10.045 220.655 10.000 220.600 10.000 H 214.600 C 214.545 10.000 214.500 10.045 214.500 10.100 V 13.000 C 214.500 13.100 214.600 13.000 214.500 13.000 H 208.700 C 208.600 13.000 208.700 13.100 208.700 13.000 V 10.100 C 208.700 10.045 208.655 10.000 208.600 10.000 H 202.600 C 202.545 10.000 202.500 10.045 202.500 10.100 V 13.000 C 202.500 13.100 202.600 13.000 202.500 13.000 H 196.700 C 196.600 13.000 196.700 13.100 196.700 13.000 V 10.100 C 196.700 10.045 196.655 10.000 196.600 10.000 H 190.600 C 190.545 10.000 190.500 10.045 190.500 10.100 V 13.000 C 190.500 13.100 190.600 13.000 190.500 13.000 H 184.700 C 184.600 13.000 184.700 13.100 184.700 13.000 V 10.100 C 184.700 10.045 184.655 10.000 184.600 10.000 H 178.600 C 178.545 10.000 178.500 10.045 178.500 10.100 V 13.000 C 178.500 13.100 178.600 13.000 178.500 13.000 H 172.700 C 172.600 13.000 172.700 13.100 172.700 13.000 V 10.100 C 172.700 10.045 172.655 10.000 172.600 10.000 H 166.600 C 166.545 10.000 166.500 10.045 166.500 10.100 V 13.000 C 166.500 13.100 166.600 13.000 166.500 13.000 H 160.700 C 160.600 13.000 160.700 13.100 160.700 13.000 V 10.100 C 160.700 10.045 160.655 10.000 160.600 10.000 H 154.600 C 154.545 10.000 154.500 10.045 154.500 10.100 V 13.000 C 154.500 13.100 154.600 13.000 154.500 13.000 H 148.700 C 148.600 13.000 148.700 13.100 148.700 13.000 V 10.100 C 148.700 10.045 148.655 10.000 148.600 10.000 H 142.600 C 142.545 10.000 142.500 10.045 142.500 10.100 V 13.000 C 142.500 13.100 142.600 13.000 142.500 13.000 H 136.700 C 136.600 13.000 136.700 13.100 136.700 13.000 V 10.100 C 136.700 10.045 136.655 10.000 136.600 10.000 H 130.600 C 130.545 10.000 130.500 10.045 130.500 10.100 V 13.000 C 130.500 13.100 130.600 13.000 130.500 13.000 H 124.700 C 124.600 13.000 124.700 13.100 124.700 13.000 V 10.100 C 124.700 10.045 124.655 10.000 124.600 10.000 H 118.600 C 118.545 10.000 118.500 10.045 118.500 10.100 V 13.000 C 118.500 13.100 118.600 13.000 118.500 13.000 H 112.700 C 112.600 13.000 112.700 13.100 112.700 13.000 V 10.100 C 112.700 10.045 112.655 10.000 112.600 10.000 H 106.600 C 106.545 10.000 106.500 10.045 106.500 10.100 V 13.000 C 106.500 13.100 106.600 13.000 106.500 13.000 H 100.700 C 100.600 13.000 100.700 13.100 100.700 13.000 V 10.100 C 100.700 10.045 100.655 10.000 100.600 10.000 H 94.600 C 94.545 10.000 94.500 10.045 94.500 10.100 V 13.000 C 94.500 13.100 94.600 13.000 94.500 13.000 H 88.700 C 88.600 13.000 88.700 13.100 88.700 13.000 V 10.100 C 88.700 10.045 88.655 10.000 88.600 10.000 H 82.600 C 82.545 10.000 82.500 10.045 82.500 10.100 V 13.000 C 82.500 13.100 82.600 13.000 82.500 13.000 H 76.700 C 76.600 13.000 76.700 13.100 76.700 13.000 V 10.100 C 76.700 10.045 76.655 10.000 76.600 10.000 H 70.600 C 70.545 10.000 70.500 10.045 70.500 10.100 V 13.000 C 70.500 13.100 70.600 13.000 70.500 13.000 H 64.700 C 64.600 13.000 64.700 13.100 64.700 13.000 V 10.100 C 64.700 10.045 64.655 10.000 64.600 10.000 H 58.600 C 58.545 10.000 58.500 10.045 58.500 10.100 V 13.000 C 58.500 13.100 58.600 13.000 58.500 13.000 H 52.700 C 52.600 13.000 52.700 13.100 52.700 13.000 V 10.100 C 52.700 10.045 52.655 10.000 52.600 10.000 H 46.600 C 46.545 10.000 46.500 10.045 46.500 10.100 V 13.000 C 46.500 13.100 46.600 13.000 46.500 13.000 H 40.700 C 40.600 13.000 40.700 13.100 40.700 13.000 V 10.100 C 40.700 10.045 40.655 10.000 40.600 10.000 H 34.600 C 34.545 10.000 34.500 10.045 34.500 10.100 V 13.000 C 34.500 13.100 34.600 13.000 34.500 13.000 H 28.700 C 28.600 13.000 28.700 13.100 28.700 13.000 V 10.100 C 28.700 10.045 28.655 10.000 28.600 10.000 H 22.600 C 22.545 10.000 22.500 10.045 22.500 10.100 V 13.000 C 22.500 13.100 22.600 13.000 22.500 13.000 H 13.100 C 13.045 13.000 13.000 13.045 13.000 13.100 V 19.500 C 13.000 19.600 13.100 19.500 13.000 19.500 H 10.100 C 10.045 19.500 10.000 19.545 10.000 19.600 V 25.600 C 10.000 25.655 10.045 25.700 10.100 25.700 H 13.000 C 13.100 25.700 13.000 25.600 13.000 25.700 V 31.500 C 13.000 31.600 13.100 31.500 13.000 31.500 H 10.100 C 10.045 31.500 10.000 31.545 10.000 31.600 V 37.600 C 10.000 37.655 10.045 37.700 10.100 37.700 H 13.000 C 13.100 37.700 13.000 37.600 13.000 37.700 V 43.500 C 13.000 43.600 13.100 43.500 13.000 43.500 H 10.100 C 10.045 43.500 10.000 43.545 10.000 43.600 V 49.600 C 10.000 49.655 10.045 49.700 10.100 49.700 H 13.000 C 13.100 49.700 13.000 49.600 13.000 49.700 V 55.500 C 13.000 55.600 13.100 55.500 13.000 55.500 H 10.100 C 10.045 55.500 10.000 55.545 10.000 55.600 V 61.600 C 10.000 61.655 10.045 61.700 10.100 61.700 H 13.000 C 13.100 61.700 13.000 61.600 13.000 61.700 V 67.500 C 13.000 67.600 13.100 67.500 13.000 67.500 H 10.100 C 10.045 67.500 10.000 67.545 10.000 67.600 V 73.600 C 10.000 73.655 10.045 73.700 10.100 73.700 H 13.000 C 13.100 73.700 13.000 73.600 13.000 73.700 V 79.500 C 13.000 79.600 13.100 79.500 13.000 79.500 H 10.100 C 10.045 79.500 10.000 79.545 10.000 79.600 V 85.600 C 10.000 85.655 10.045 85.700 10.100 85.700 H 13.000 C 13.100 85.700 13.000 85.600 13.000 85.700 V 91.500 C 13.000 91.600 13.100 91.500 13.000 91.500 H 10.100 C 10.045 91.500 10.000 91.545 10.000 91.600 V 97.600 C 10.000 97.655 10.045 97.700 10.100 97.700 H 13.000 C 13.100 97.700 13.000 97.600 13.000 97.700 V 103.500 C 13.000 103.600 13.100 103.500 13.000 103.500 H 10.100 C 10.045 103.500 10.000 103.545 10.000 103.600 V 109.600 C 10.000 109.655 10.045 109.700 10.100 109.700 H 13.000 C 13.100 109.700 13.000 109.600 13.000 109.700 V 115.500 C 13.000 115.600 13.100 115.500 13.000 115.500 H 10.100 C 10.045 115.500 10.000 115.545 10.000 115.600 V 121.600 C 10.000 121.655 10.045 121.700 10.100 121.700 H 13.000 C 13.100 121.700 13.000 121.600 13.000 121.700 V 127.500 C 13.000 127.600 13.100 127.500 13.000 127.500 H 10.100 C 10.045 127.500 10.000 127.545 10.000 127.600 V 133.600 C 10.000 133.655 10.045 133.700 10.100 133.700 H 13.000 C 13.100 133.700 13.000 133.600 13.000 133.700 V 139.500 C 13.000 139.600 13.100 139.500 13.000 139.500 H 10.100 C 10.045 139.500 10.000 139.545 10.000 139.600 V 145.600 C 10.000 145.655 10.045 145.700 10.100 145.700 H 13.000 C 13.100 145.700 13.000 145.600 13.000 145.700 V 151.500 C 13.000 151.600 13.100 151.500 13.000 151.500 H 10.100 C 10.045 151.500 10.000 151.545 10.000 151.600 V 157.600 C 10.000 157.655 10.045 157.700 10.100 157.700 H 13.000 C 13.100 157.700 13.000 157.600 13.000 157.700 V 163.500 C 13.000 163.600 13.100 163.500 13.000 163.500 H 10.100 C 10.045 163.500 10.000 163.545 10.000 163.600 V 169.600 C 10.000 169.655 10.045 169.700 10.100 169.700 H 13.000 C 13.100 169.700 13.000 169.600 13.000 169.700 V 176.100 C 13.000 176.155 13.045 176.200 13.100 176.200" stroke="rgb(0,0,0)" stroke-width="0.20" />
</g>
<g id="p-4" style="fill:none;stroke-linecap:round;stroke-linejoin:round;">
  <path d="M 259.300 565.400 H 256.400 C 256.300 565.400 256.400 565.500 256.400 565.400 V 562.600 C 256.400 562.500 256.300 562.600 256.400 562.600 H 262.200 C 262.300 562.600 262.200 562.500 262.200 562.600 V 565.400 C 262.200 565.500 262.300 565.400 262.200 565.400 H 259.300 Z" stroke="rgb(0,0,255)" stroke-width="0.20" />
  <path d="M 271.300 565.400 H 268.400 C 268.300 565.400 268.400 565.500 268.400 565.400 V 562.600 C 268.400 562.500 268.300 562.600 268.400 562.600 H 274.200 C 274.300 562.600 274.200 562.500 274.200 562.600 V 565.400 C 274.200 565.500 274.300 565.400 274.200 565.400 H 271.300 Z" stroke="rgb(0,0,255)" stroke-width="0.20" />
  <path d="M 283.300 565.400 H 280.400 C 280.300 565.400 280.400 565.500 280.400 565.400 V 562.600 C 280.400 562.500 280.300 562.600 280.400 562.600 H 286.200 C 286.300 562.600 286.200 562.500 286.200 562.600 V 565.400 C 286.200 565.500 286.300 565.400 286.200 565.400 H 283.300 Z" stroke="rgb(0,0,255)" stroke-width="0.20" />
  <path d="M 295.300 565.400 H 292.400 C 292.300 565.400 292.400 565.500 292.400 565.400 V 562.600 C 292.400 562.500 292.300 562.600 292.400 562.600 H 298.200 C 298.300 562.600 298.200 562.500 298.200 562.600 V 565.400 C 298.200 565.500 298.300 565.400 298.200 565.400 H 295.300 Z" stroke="rgb(0,0,255)" stroke-width="0.20" />
  <path d="M 307.300 565.400 H 304.400 C 304.300 565.400 304.400 565.500 304.400 565.400 V 562.600 C 304.400 562.500 304.300 562.600 304.400 562.600 H 310.200 C 310.300 562.600 310.200 562.500 310.200 562.600 V 565.400 C 310.200 565.500 310.300 565.400 310.200 565.400 H 307.300 Z" stroke="rgb(0,0,255)" stroke-width="0.20" />
  <path d="M 319.300 565.400 H 316.400 C 316.300 565.400 316.400 565.500 316.400 565.400 V 562.600 C 316.400 562.500 316.300 562.600 316.400 562.600 H 322.200 C 322.300 562.600 322.200 562.500 322.200 562.600 V 565.400 C 322.200 565.500 322.300 565.400 322.200 565.400 H 319.300 Z" stroke="rgb(0,0,255)" stroke-width="0.20" />
  <path d="M 331.300 565.400 H 328.400 C 328.300 565.400 328.400 565.500 328.400 565.400 V 562.600 C 328.400 562.500 328.300 562.600 328.400 562.600 H 334.200 C 334.300 562.600 334.200 562.500 334.200 562.600 V 565.400 C 334.200 565.500 334.300 565.400 334.200 565.400 H 331.300 Z" stroke="rgb(0,0,255)" stroke-width="0.20" />
  <path d="M 343.300 565.400 H 340.400 C 340.300 565.400 340.400 565.500 340.400 565.400 V 562.600 C 340.400 562.500 340.300 562.600 340.400 562.600 H 346.200 C 346.300 562.600 346.200 562.500 346.200 562.600 V 565.400 C 346.200 565.500 346.300 565.400 346.200 565.400 H 343.300 Z" stroke="rgb(0,0,255)" stroke-width="0.20" />
  <path d="M 355.300 565.400 H 352.400 C 352.300 565.400 352.400 565.500 352.400 565.400 V 562.600 C 352.400 562.500 352.300 562.600 352.400 562.600 H 358.200 C 358.300 562.600 358.200 562.500 358.200 562.600 V 565.400 C 358.200 565.500 358.300 565.400 358.200 565.400 H 355.300 Z" stroke="rgb(0,0,255)" stroke-width="0.20" />
  <path d="M 367.300 565.400 H 364.400 C 364.300 565.400 364.400 565.500 364.400 565.400 V 562.600 C 364.400 562.500 364.300 562.600 364.400 562.600 H 370.200 C 370.300 562.600 370.200 562.500 370.200 562.600 V 565.400 C 370.200 565.500 370.300 565.400 370.200 565.400 H 367.300 Z" stroke="rgb(0,0,255)" stroke-width="0.20" />
  <path d="M 379.300 565.400 H 376.400 C 376.300 565.400 376.400 565.500 376.400 565.400 V 562.600 C 376.400 562.500 376.300 562.600 376.400 562.600 H 382.200 C 382.300 562.600 382.200 562.500 382.200 562.600 V 565.400 C 382.200 565.500 382.300 565.400 382.200 565.400 H 379.300 Z" stroke="rgb(0,0,255)" stroke-width="0.20" />
  <path d="M 391.300 565.400 H 388.400 C 388.300 565.400 388.400 565.500 388.400 565.400 V 562.600 C 388.400 562.500 388.300 562.600 388.400 562.600 H 394.200 C 394.300 562.600 394.200 562.500 394.200 562.600 V 565.400 C 394.200 565.500 394.300 565.400 394.200 565.400 H 391.300 Z" stroke="rgb(0,0,255)" stroke-width="0.20" />
  <path d="M 403.300 565.400 H 400.400 C 400.300 565.400 400.400 565.500 400.400 565.400 V 562.600 C 400.400 562.500 400.300 562.600 400.400 562.600 H 406.200 C 406.300 562.600 406.200 562.500 406.200 562.600 V 565.400 C 406.200 565.500 406.300 565.400 406.200 565.400 H 403.300 Z" stroke="rgb(0,0,255)" stroke-width="0.20" />
  <text dominant-baseline="hanging" font-size="4px" style="font-family: sans-serif ; font-weight: normal; font-style: normal; fill: rgb(255,0,0)" text-anchor="middle" transform="matrix( 1.000 0.000 0.000 1.000 331.300 470.100 )">left</text><path d="M 249.800 568.600 H 412.800 C 412.855 568.600 412.900 568.555 412.900 568.500 V 559.100 C 412.900 559.000 412.800 559.100 412.900 559.100 H 415.800 C 415.855 559.100 415.900 559.055 415.900 559.000 V 553.000 C 415.900 552.945 415.855 552.900 415.800 552.900 H 412.900 C 412.800 552.900 412.900 553.000 412.900 552.900 V 547.100 C 412.900 547.000 412.800 547.100 412.900 547.100 H 415.800 C 415.855 547.100 415.900 547.055 415.900 547.000 V 541.000 C 415.900 540.945 415.855 540.900 415.800 540.900 H 412.900 C 412.800 540.900 412.900 541.000 412.900 540.900 V 535.100 C 412.900 535.000 412.800 535.100 412.900 535.100 H 415.800 C 415.855 535.100 415.900 535.055 415.900 535.000 V 529.000 C 415.900 528.945 415.855 528.900 415.800 528.900 H 412.900 C 412.800 528.900 412.900 529.000 412.900 528.900 V 523.100 C 412.900 523.000 412.800 523.100 412.900 523.100 H 415.800 C 415.855 523.100 415.900 523.055 415.900 523.000 V 517.000 C 415.900 516.945 415.855 516.900 415.800 516.900 H 412.900 C 412.800 516.900 412.900 517.000 412.900 516.900 V 511.100 C 412.900 511.000 412.800 511.100 412.900 511.100 H 415.800 C 415.855 511.100 415.900 511.055 415.900 511.000 V 505.000 C 415.900 504.945 415.855 504.900 415.800 504.900 H 412.900 C 412.800 504.900 412.900 505.000 412.900 504.900 V 499.100 C 412.900 499.000 412.800 499.100 412.900 499.100 H 415.800 C 415.855 499.100 415.900 499.055 415.900 499.000 V 493.000 C 415.900 492.945 415.855 492.900 415.800 492.900 H 412.900 C 412.800 492.900 412.900 493.000 412.900 492.900 V 487.100 C 412.900 487.000 412.800 487.100 412.900 487.100 H 415.800 C 415.855 487.100 415.900 487.055 415.900 487.000 V 481.000 C 415.900 480.945 415.855 480.900 415.800 480.900 H 412.900 C 412.800 480.900 412.900 481.000 412.900 480.900 V 475.100 C 412.900 475.000 412.800 475.100 412.900 475.100 H 415.800 C 415.855 475.100 415.900 475.055 415.900 475.000 V 469.000 C 415.900 468.945 415.855 468.900 415.800 468.900 H 412.900 C 412.800 468.900 412.900 469.000 412.900 468.900 V 463.100 C 412.900 463.000 412.800 463.100 412.900 463.100 H 415.800 C 415.855 463.100 415.900 463.055 415.900 463.000 V 457.000 C 415.900 456.945 415.855 456.900 415.800 456.900 H 412.900 C 412.800 456.900 412.900 457.000 412.900 456.900 V 451.100 C 412.900 451.000 412.800 451.100 412.900 451.100 H 415.800 C 415.855 451.100 415.900 451.055 415.900 451.000 V 445.000 C 415.900 444.945 415.855 444.900 415.800 444.900 H 412.900 C 412.800 444.900 412.900 445.000 412.900 444.900 V 439.100 C 412.900 439.000 412.800 439.100 412.900 439.100 H 415.800 C 415.855 439.100 415.900 439.055 415.900 439.000 V 433.000 C 415.900 432.945 415.855 432.900 415.800 432.900 H 412.900 C 412.800 432.900 412.900 433.000 412.900 432.900 V 427.100 C 412.900 427.000 412.800 427.100 412.900 427.100 H 415.800 C 415.855 427.100 415.900 427.055 415.900 427.000 V 421.000 C 415.900 420.945 415.855 420.900 415.800 420.900 H 412.900 C 412.800 420.900 412.900 421.000 412.900 420.900 V 415.100 C 412.900 415.000 412.800 415.100 412.900 415.100 H 415.800 C 415.855 415.100 415.900 415.055 415.900 415.000 V 409.000 C 415.900 408.945 415.855 408.900 415.800 408.900 H 412.900 C 412.800 408.900 412.900 409.000 412.900 408.900 V 403.100 C 412.900 403.000 412.800 403.100 412.900 403.100 H 415.800 C 415.855 403.100 415.900 403.055 415.900 403.000 V 397.000 C 415.900 396.945 415.855 396.900 415.800 396.900 H 412.900 C 412.800 396.900 412.900 397.000 412.900 396.900 V 391.100 C 412.900 391.000 412.800 391.100 412.900 391.100 H 415.800 C 415.855 391.100 415.900 391.055 415.900 391.000 V 385.000 C 415.900 384.945 415.855 384.900 415.800 384.900 H 412.900 C 412.800 384.900 412.900 385.000 412.900 384.900 V 375.500 C 412.900 375.445 412.855 375.400 412.800 375.400 H 249.800 C 249.745 375.400 249.700 375.445 249.700 375.500 V 384.900 C 249.700 385.000 249.800 384.900 249.700 384.900 H 246.800 C 246.745 384.900 246.700 384.945 246.700 385.000 V 391.000 C 246.700 391.055 246.745 391.100 246.800 391.100 H 249.700 C 249.800 391.100 249.700 391.000 249.700 391.100 V 396.900 C 249.700 397.000 249.800 396.900 249.700 396.900 H 246.800 C 246.745 396.900 246.700 396.945 246.700 397.000 V 403.000 C 246.700 403.055 246.745 403.100 246.800 403.100 H 249.700 C 249.800 403.100 249.700 403.000 249.700 403.100 V 408.900 C 249.700 409.000 249.800 408.900 249.700 408.900 H 246.800 C 246.745 408.900 246.700 408.945 246.700 409.000 V 415.000 C 246.700 415.055 246.745 415.100 246.800 415.100 H 249.700 C 249.800 415.100 249.700 415.000 249.700 415.100 V 420.900 C 249.700 421.000 249.800 420.900 249.700 420.900 H 246.800 C 246.745 420.900 246.700 420.945 246.700 421.000 V 427.000 C 246.700 427.055 246.745 427.100 246.800 427.100 H 249.700 C 249.800 427.100 249.700 427.000 249.700 427.100 V 432.900 C 249.700 433.000 249.800 432.900 249.700 432.900 H 246.800 C 246.745 432.900 246.700 432.945 246.700 433.000 V 439.000 C 246.700 439.055 246.745 439.100 246.800 439.100 H 249.700 C 249.800 439.100 249.700 439.000 249.700 439.100 V 444.900 C 249.700 445.000 249.800 444.900 249.700 444.900 H 246.800 C 246.745 444.900 246.700 444.945 246.700 445.000 V 451.000 C 246.700 451.055 246.745 451.100 246.800 451.100 H 249.700 C 249.800 451.100 249.700 451.000 249.700 451.100 V 456.900 C 249.700 457.000 249.800 456.900 249.700 456.900 H 246.800 C 246.745 456.900 246.700 456.945 246.700 457.000 V 463.000 C 246.700 463.055 246.745 463.100 246.800 463.100 H 249.700 C 249.800 463.100 249.700 463.000 249.700 463.100 V 468.900 C 249.700 469.000 249.800 468.900 249.700 468.900 H 246.800 C 246.745 468.900 246.700 468.945 246.700 469.000 V 475.000 C 246.700 475.055 246.745 475.100 246.800 475.100 H 249.700 C 249.800 475.100 249.700 475.000 249.700 475.100 V 480.900 C 249.700 481.000 249.800 480.900 249.700 480.900 H 246.800 C 246.745 480.900 246.700 480.945 246.700 481.000 V 487.000 C 246.700 487.055 246.745 487.100 246.800 487.100 H 249.700 C 249.800 487.100 249.700 487.000 249.700 487.100 V 492.900 C 249.700 493.000 249.800 492.900 249.700 492.900 H 246.800 C 246.745 492.900 246.700 492.945 246.700 493.000 V 499.000 C 246.700 499.055 246.745 499.100 246.800 499.100 H 249.700 C 249.800 499.100 249.700 499.000 249.700 499.100 V 504.900 C 249.700 505.000 249.800 504.900 249.700 504.900 H 246.800 C 246.745 504.900 246.700 504.945 246.700 505.000 V 511.000 C 246.700 511.055 246.745 511.100 246.800 511.100 H 249.700 C 249.800 511.100 249.700 511.000 249.700 511.100 V 516.900 C 249.700 517.000 249.800 516.900 249.700 516.900 H 246.800 C 246.745 516.900 246.700 516.945 246.700 517.000 V 523.000 C 246.700 523.055 246.745 523.100 246.800 523.100 H 249.700 C 249.800 523.100 249.700 523.000 249.700 523.100 V 528.900 C 249.700 529.000 249.800 528.900 249.700 528.900 H 246.800 C 246.745 528.900 246.700 528.945 246.700 529.000 V 535.000 C 246.700 535.055 246.745 535.100 246.800 535.100 H 249.700 C 249.800 535.100 249.700 535.000 249.700 535.100 V 540.900 C 249.700 541.000 249.800 540.900 249.700 540.900 H 246.800 C 246.745 540.900 246.700 540.945 246.700 541.000 V 547.000 C 246.700 547.055 246.745 547.100 246.800 547.100 H 249.700 C 249.800 547.100 249.700 547.000 249.700 547.100 V 552.900 C 249.700 553.000 249.800 552.900 249.700 552.900 H 246.800 C 246.745 552.900 246.700 552.945 246.700 553.000 V 559.000 C 246.700 559.055 246.745 559.100 246.800 559.100 H 249.700 C 249.800 559.100 249.700 559.000 249.700 559.100 V 568.500 C 249.700 568.555 249.745 568.600 249.800 568.600" stroke="rgb(0,0,0)" stroke-width="0.20" />
</g>
<g id="p-5" style="fill:none;stroke-linecap:round;stroke-linejoin:round;">
  <path d="M 259.300 370.700 H 256.400 C 256.300 370.700 256.400 370.800 256.400 370.700 V 367.900 C 256.400 367.800 256.300 367.900 256.400 367.900 H 262.200 C 262.300 367.900 262.200 367.800 262.200 367.900 V 370.700 C 262.200 370.800 262.300 370.700 262.200 370.700 H 259.300 Z" stroke="rgb(0,0,255)" stroke-width="0.20" />
  <path d="M 271.300 370.700 H 268.400 C 268.300 370.700 268.400 370.800 268.400 370.700 V 367.900 C 268.400 367.800 268.300 367.900 268.400 367.900 H 274.200 C 274.300 367.900 274.200 367.800 274.200 367.900 V 370.700 C 274.200 370.800 274.300 370.700 274.200 370.700 H 271.300 Z" stroke="rgb(0,0,255)" stroke-width="0.20" />
  <path d="M 283.300 370.700 H 280.400 C 280.300 370.700 280.400 370.800 280.400 370.700 V 367.900 C 280.400 367.800 280.300 367.900 280.400 367.900 H 286.200 C 286.300 367.900 286.200 367.800 286.200 367.900 V 370.700 C 286.200 370.800 286.300 370.700 286.200 370.700 H 283.300 Z" stroke="rgb(0,0,255)" stroke-width="0.20" />
  <path d="M 295.300 370.700 H 292.400 C 292.300 370.700 292.400 370.800 292.400 370.700 V 367.900 C 292.400 367.800 292.300 367.900 292.400 367.900 H 298.200 C 298.300 367.900 298.200 367.800 298.200 367.900 V 370.700 C 298.200 370.800 298.300 370.700 298.200 370.700 H 295.300 Z" stroke="rgb(0,0,255)" stroke-width="0.20" />
  <path d="M 307.300 370.700 H 304.400 C 304.300 370.700 304.400 370.800 304.400 370.700 V 367.900 C 304.400 367.800 304.300 367.900 304.400 367.900 H 310.200 C 310.300 367.900 310.200 367.800 310.200 367.900 V 370.700 C 310.200 370.800 310.300 370.700 310.200 370.700 H 307.300 Z" stroke="rgb(0,0,255)" stroke-width="0.20" />
  <path d="M 319.300 370.700 H 316.400 C 316.300 370.700 316.400 370.800 316.400 370.700 V 367.900 C 316.400 367.800 316.300 367.900 316.400 367.900 H 322.200 C 322.300 367.900 322.200 367.800 322.200 367.900 V 370.700 C 322.200 370.800 322.300 370.700 322.200 370.700 H 319.300 Z" stroke="rgb(0,0,255)" stroke-width="0.20" />
  <path d="M 331.300 370.700 H 328.400 C 328.300 370.700 328.400 370.800 328.400 370.700 V 367.900 C 328.400 367.800 328.300 367.900 328.400 367.900 H 334.200 C 334.300 367.900 334.200 367.800 334.200 367.900 V 370.700 C 334.200 370.800 334.300 370.700 334.200 370.700 H 331.300 Z" stroke="rgb(0,0,255)" stroke-width="0.20" />
  <path d="M 343.300 370.700 H 340.400 C 340.300 370.700 340.400 370.800 340.400 370.700 V 367.900 C 340.400 367.800 340.300 367.900 340.400 367.900 H 346.200 C 346.300 367.900 346.200 367.800 346.200 367.900 V 370.700 C 346.200 370.800 346.300 370.700 346.200 370.700 H 343.300 Z" stroke="rgb(0,0,255)" stroke-width="0.20" />
  <path d="M 355.300 370.700 H 352.400 C 352.300 370.700 352.400 370.800 352.400 370.700 V 367.900 C 352.400 367.800 352.300 367.900 352.400 367.900 H 358.200 C 358.300 367.900 358.200 367.800 358.200 367.900 V 370.700 C 358.200 370.800 358.300 370.700 358.200 370.700 H 355.300 Z" stroke="rgb(0,0,255)" stroke-width="0.20" />
  <path d="M 367.300 370.700 H 364.400 C 364.300 370.700 364.400 370.800 364.400 370.700 V 367.900 C 364.400 367.800 364.300 367.900 364.400 367.900 H 370.200 C 370.300 367.900 370.200 367.800 370.200 367.900 V 370.700 C 370.200 370.800 370.300 370.700 370.200 370.700 H 367.300 Z" stroke="rgb(0,0,255)" stroke-width="0.20" />
  <path d="M 379.300 370.700 H 376.400 C 376.300 370.700 376.400 370.800 376.400 370.700 V 367.900 C 376.400 367.800 376.300 367.900 376.400 367.900 H 382.200 C 382.300 367.900 382.200 367.800 382.200 367.900 V 370.700 C 382.200 370.800 382.300 370.700 382.200 370.700 H 379.300 Z" stroke="rgb(0,0,255)" stroke-width="0.20" />
  <path d="M 391.300 370.700 H 388.400 C 388.300 370.700 388.400 370.800 388.400 370.700 V 367.900 C 388.400 367.800 388.300 367.900 388.400 367.900 H 394.200 C 394.300 367.900 394.200 367.800 394.200 367.900 V 370.700 C 394.200 370.800 394.300 370.700 394.200 370.700 H 391.300 Z" stroke="rgb(0,0,255)" stroke-width="0.20" />
  <path d="M 403.300 370.700 H 400.400 C 400.300 370.700 400.400 370.800 400.400 370.700 V 367.900 C 400.400 367.800 400.300 367.900 400.400 367.900 H 406.200 C 406.300 367.900 406.200 367.800 406.200 367.900 V 370.700 C 406.200 370.800 406.300 370.700 406.200 370.700 H 403.300 Z" stroke="rgb(0,0,255)" stroke-width="0.20" />
  <text dominant-baseline="hanging" font-size="4px" style="font-family: sans-serif ; font-weight: normal; font-style: normal; fill: rgb(255,0,0)" text-anchor="middle" transform="matrix( 1.000 0.000 0.000 1.000 331.300 275.400 )">right</text><path d="M 249.800 373.900 H 412.800 C 412.855 373.900 412.900 373.855 412.900 373.800 V 364.400 C 412.900 364.300 412.800 364.400 412.900 364.400 H 415.800 C 415.855 364.400 415.900 364.355 415.900 364.300 V 358.300 C 415.900 358.245 415.855 358.200 415.800 358.200 H 412.900 C 412.800 358.200 412.900 358.300 412.900 358.200 V 352.400 C 412.900 352.300 412.800 352.400 412.900 352.400 H 415.800 C 415.855 352.400 415.900 352.355 415.900 352.300 V 346.300 C 415.900 346.245 415.855 346.200 415.800 346.200 H 412.900 C 412.800 346.200 412.900 346.300 412.900 346.200 V 340.400 C 412.900 340.300 412.800 340.400 412.900 340.400 H 415.800 C 415.855 340.400 415.900 340.355 415.900 340.300 V 334.300 C 415.900 334.245 415.855 334.200 415.800 334.200 H 412.900 C 412.800 334.200 412.900 334.300 412.900 334.200 V 328.400 C 412.900 328.300 412.800 328.400 412.900 328.400 H 415.800 C 415.855 328.400 415.900 328.355 415.900 328.300 V 322.300 C 415.900 322.245 415.855 322.200 415.800 322.200 H 412.900 C 412.800 322.200 412.900 322.300 412.900 322.200 V 316.400 C 412.900 316.300 412.800 316.400 412.900 316.400 H 415.800 C 415.855 316.400 415.900 316.355 415.900 316.300 V 310.300 C 415.900 310.245 415.855 310.200 415.800 310.200 H 412.900 C 412.800 310.200 412.900 310.300 412.900 310.200 V 304.400 C 412.900 304.300 412.800 304.400 412.900 304.400 H 415.800 C 415.855 304.400 415.900 304.355 415.900 304.300 V 298.300 C 415.900 298.245 415.855 298.200 415.800 298.200 H 412.900 C 412.800 298.200 412.900 298.300 412.900 298.200 V 292.400 C 412.900 292.300 412.800 292.400 412.900 292.400 H 415.800 C 415.855 292.400 415.900 292.355 415.900 292.300 V 286.300 C 415.900 286.245 415.855 286.200 415.800 286.200 H 412.900 C 412.800 286.200 412.900 286.300 412.900 286.200 V 280.400 C 412.900 280.300 412.800 280.400 412.900 280.400 H 415.800 C 415.855 280.400 415.900 280.355 415.900 280.300 V 274.300 C 415.900 274.245 415.855 274.200 415.800 274.200 H 412.900 C 412.800 274.200 412.900 274.300 412.900 274.200 V 268.400 C 412.900 268.300 412.800 268.400 412.900 268.400 H 415.800 C 415.855 268.400 415.900 268.355 415.900 268.300 V 262.300 C 415.900 262.245 415.855 262.200 415.800 262.200 H 412.900 C 412.800 262.200 412.900 262.300 412.900 262.200 V 256.400 C 412.900 256.300 412.800 256.400 412.900 256.400 H 415.800 C 415.855 256.400 415.900 256.355 415.900 256.300 V 250.300 C 415.900 250.245 415.855 250.200 415.800 250.200 H 412.900 C 412.800 250.200 412.900 250.300 412.900 250.200 V 244.400 C 412.900 244.300 412.800 244.400 412.900 244.400 H 415.800 C 415.855 244.400 415.900 244.355 415.900 244.300 V 238.300 C 415.900 238.245 415.855 238.200 415.800 238.200 H 412.900 C 412.800 238.200 412.900 238.300 412.900 238.200 V 232.400 C 412.900 232.300 412.800 232.400 412.900 232.400 H 415.800 C 415.855 232.400 415.900 232.355 415.900 232.300 V 226.300 C 415.900 226.245 415.855 226.200 415.800 226.200 H 412.900 C 412.800 226.200 412.900 226.300 412.900 226.200 V 220.400 C 412.900 220.300 412.800 220.400 412.900 220.400 H 415.800 C 415.855 220.400 415.900 220.355 415.900 220.300 V 214.300 C 415.900 214.245 415.855 214.200 415.800 214.200 H 412.900 C 412.800 214.200 412.900 214.300 412.900 214.200 V 208.400 C 412.900 208.300 412.800 208.400 412.900 208.400 H 415.800 C 415.855 208.400 415.900 208.355 415.900 208.300 V 202.300 C 415.900 202.245 415.855 202.200 415.800 202.200 H 412.900 C 412.800 202.200 412.900 202.300 412.900 202.200 V 196.400 C 412.900 196.300 412.800 196.400 412.900 196.400 H 415.800 C 415.855 196.400 415.900 196.355 415.900 196.300 V 190.300 C 415.900 190.245 415.855 190.200 415.800 190.200 H 412.900 C 412.800 190.200 412.900 190.300 412.900 190.200 V 180.800 C 412.900 180.745 412.855 180.700 412.800 180.700 H 249.800 C 249.745 180.700 249.700 180.745 249.700 180.800 V 190.200 C 249.700 190.300 249.800 190.200 249.700 190.200 H 246.800 C 246.745 190.200 246.700 190.245 246.700 190.300 V 196.300 C 246.700 196.355 246.745 196.400 246.800 196.400 H 249.700 C 249.800 196.400 249.700 196.300 249.700 196.400 V 202.200 C 249.700 202.300 249.800 202.200 249.700 202.200 H 246.800 C 246.745 202.200 246.700 202.245 246.700 202.300 V 208.300 C 246.700 208.355 246.745 208.400 246.800 208.400 H 249.700 C 249.800 208.400 249.700 208.300 249.700 208.400 V 214.200 C 249.700 214.300 249.800 214.200 249.700 214.200 H 246.800 C 246.745 214.200 246.700 214.245 246.700 214.300 V 220.300 C 246.700 220.355 246.745 220.400 246.800 220.400 H 249.700 C 249.800 220.400 249.700 220.300 249.700 220.400 V 226.200 C 249.700 226.300 249.800 226.200 249.700 226.200 H 246.800 C 246.745 226.200 246.700 226.245 246.700 226.300 V 232.300 C 246.700 232.355 246.745 232.400 246.800 232.400 H 249.700 C 249.800 232.400 249.700 232.300 249.700 232.400 V 238.200 C 249.700 238.300 249.800 238.200 249.700 238.200 H 246.800 C 246.745 238.200 246.700 238.245 246.700 238.300 V 244.300 C 246.700 244.355 246.745 244.400 246.800 244.400 H 249.700 C 249.800 244.400 249.700 244.300 249.700 244.400 V 250.200 C 249.700 250.300 249.800 250.200 249.700 250.200 H 246.800 C 246.745 250.200 246.700 250.245 246.700 250.300 V 256.300 C 246.700 256.355 246.745 256.400 246.800 256.400 H 249.700 C 249.800 256.400 249.700 256.300 249.700 256.400 V 262.200 C 249.700 262.300 249.800 262.200 249.700 262.200 H 246.800 C 246.745 262.200 246.700 262.245 246.700 262.300 V 268.300 C 246.700 268.355 246.745 268.400 246.800 268.400 H 249.700 C 249.800 268.400 249.700 268.300 249.700 268.400 V 274.200 C 249.700 274.300 249.800 274.200 249.700 274.200 H 246.800 C 246.745 274.200 246.700 274.245 246.700 274.300 V 280.300 C 246.700 280.355 246.745 280.400 246.800 280.400 H 249.700 C 249.800 280.400 249.700 280.300 249.700 280.400 V 286.200 C 249.700 286.300 249.800 286.200 249.700 286.200 H 246.800 C 246.745 286.200 246.700 286.245 246.700 286.300 V 292.300 C 246.700 292.355 246.745 292.400 246.800 292.400 H 249.700 C 249.800 292.400 249.700 292.300 249.700 292.400 V 298.200 C 249.700 298.300 249.800 298.200 249.700 298.200 H 246.800 C 246.745 298.200 246.700 298.245 246.700 298.300 V 304.300 C 246.700 304.355 246.745 304.400 246.800 304.400 H 249.700 C 249.800 304.400 249.700 304.300 249.700 304.400 V 310.200 C 249.700 310.300 249.800 310.200 249.700 310.200 H 246.800 C 246.745 310.200 246.700 310.245 246.700 310.300 V 316.300 C 246.700 316.355 246.745 316.400 246.800 316.400 H 249.700 C 249.800 316.400 249.700 316.300 249.700 316.400 V 322.200 C 249.700 322.300 249.800 322.200 249.700 322.200 H 246.800 C 246.745 322.200 246.700 322.245 246.700 322.300 V 328.300 C 246.700 328.355 246.745 328.400 246.800 328.400 H 249.700 C 249.800 328.400 249.700 328.300 249.700 328.400 V 334.200 C 249.700 334.300 249.800 334.200 249.700 334.200 H 246.800 C 246.745 334.200 246.700 334.245 246.700 334.300 V 340.300 C 246.700 340.355 246.745 340.400 246.800 340.400 H 249.700 C 249.800 340.400 249.700 340.300 249.700 340.400 V 346.200 C 249.700 346.300 249.800 346.200 249.700 346.200 H 246.800 C 246.745 346.200 246.700 346.245 246.700 346.300 V 352.300 C 246.700 352.355 246.745 352.400 246.800 352.400 H 249.700 C 249.800 352.400 249.700 352.300 249.700 352.400 V 358.200 C 249.700 358.300 249.800 358.200 249.700 358.200 H 246.800 C 246.745 358.200 246.700 358.245 246.700 358.300 V 364.300 C 246.700 364.355 246.745 364.400 246.800 364.400 H 249.700 C 249.800 364.400 249.700 364.300 249.700 364.400 V 373.800 C 249.700 373.855 249.745 373.900 249.800 373.900" stroke="rgb(0,0,0)" stroke-width="0.20" />
</g>
</svg>