<?xml version='1.0' encoding='utf-8'?>
<svg height="315.30mm" viewBox="0.0 0.0 251.90 315.30" width="251.90mm" xmlns="http://www.w3.org/2000/svg" xmlns:cc="http://creativecommons.org/ns#" xmlns:dc="http://purl.org/dc/elements/1.1/" xmlns:inkscape="http://www.inkscape.org/namespaces/inkscape" xmlns:rdf="http://www.w3.org/1999/02/22-rdf-syntax-ns#" xmlns:svg="http://www.w3.org/2000/svg" xmlns:xlink="http://www.w3.org/1999/xlink">
<!--
UniversalBox - Box with various options for different styles and lids

Created with Boxes.py (https://boxes.hackerspace-bamberg.de/)
Creation date: 2026-01-04 23:00:13
Command line (remove spaces between dashes): boxes UniversalBox - -x - -y - -output
-->
<title>UniversalBox</title>
<metadata>
<rdf:RDF><cc:Work>
<dc:title>Box - UniversalBox</dc:title>
<dc:date>2026-01-04 23:00:13</dc:date>
<dc:source>boxes UniversalBox --x 150.0 --y 80.0 --h 100.0 --thickness 3.0 --format svg --output 'D:\Programação\Projeto Caixa Criativa\Back-end\output\box_21505b39-7f43-4c7e-94fd-4ae154381ed8.svg'</dc:source>
<dc:description>Box with various options for different styles and lids

Created with Boxes.py (https://boxes.hackerspace-bamberg.de/)
Command line: boxes UniversalBox --x 150.0 --y 80.0 --h 100.0 --thickness 3.0 --format svg --output 'D:\Programação\Projeto Caixa Criativa\Back-end\output\box_21505b39-7f43-4c7e-94fd-4ae154381ed8.svg'
Command line short: boxes UniversalBox --x --y --output
</dc:description>
</cc:Work></rdf:RDF></metadata>
<g id="p-0" style="fill:none;stroke-linecap:round;stroke-linejoin:round;">
  <path d="M 10.100 305.300 H 110.100 V 295.300 H 10.100 V 305.300 Z" stroke="rgb(0,0,0)" stroke-width="0.20" />
  <text dominant-baseline="hanging" font-size="6px" style="font-family: sans-serif ; font-weight: normal; font-style: normal; fill: rgb(255,0,0)" text-anchor="middle" transform="matrix( 1.000 0.000 0.000 1.000 60.100 297.300 )">100.0mm, burn:0.10mm</text>
</g>
<g id="p-1" style="fill:none;stroke-linecap:round;stroke-linejoin:round;">
  <path d="M 25.100 290.400 H 22.200 C 22.100 290.400 22.200 290.500 22.200 290.400 V 287.600 C 22.200 287.500 22.100 287.600 22.200 287.600 H 28.000 C 28.100 287.600 28.000 287.500 28.000 287.600 V 290.400 C 28.000 290.500 28.100 290.400 28.000 290.400 H 25.100 Z" stroke="rgb(0,0,255)" stroke-width="0.20" />
  <path d="M 37.100 290.400 H 34.200 C 34.100 290.400 34.200 290.500 34.200 290.400 V 287.600 C 34.200 287.500 34.100 287.600 34.200 287.600 H 40.000 C 40.100 287.600 40.000 287.500 40.000 287.600 V 290.400 C 40.000 290.500 40.100 290.400 40.000 290.400 H 37.100 Z" stroke="rgb(0,0,255)" stroke-width="0.20" />
  <path d="M 49.100 290.400 H 46.200 C 46.100 290.400 46.200 290.500 46.200 290.400 V 287.600 C 46.200 287.500 46.100 287.600 46.200 287.600 H 52.000 C 52.100 287.600 52.000 287.500 52.000 287.600 V 290.400 C 52.000 290.500 52.100 290.400 52.000 290.400 H 49.100 Z" stroke="rgb(0,0,255)" stroke-width="0.20" />
  <path d="M 61.100 290.400 H 58.200 C 58.100 290.400 58.200 290.500 58.200 290.400 V 287.600 C 58.200 287.500 58.100 287.600 58.200 287.600 H 64.000 C 64.100 287.600 64.000 287.500 64.000 287.600 V 290.400 C 64.000 290.500 64.100 290.400 64.000 290.400 H 61.100 Z" stroke="rgb(0,0,255)" stroke-width="0.20" />
  <path d="M 73.100 290.400 H 70.200 C 70.100 290.400 70.200 290.500 70.200 290.400 V 287.600 C 70.200 287.500 70.100 287.600 70.200 287.600 H 76.000 C 76.100 287.600 76.000 287.500 76.000 287.600 V 290.400 C 76.000 290.500 76.100 290.400 76.000 290.400 H 73.100 Z" stroke="rgb(0,0,255)" stroke-width="0.20" />
  <path d="M 85.100 290.400 H 82.200 C 82.100 290.400 82.200 290.500 82.200 290.400 V 287.600 C 82.200 287.500 82.100 287.600 82.200 287.600 H 88.000 C 88.100 287.600 88.000 287.500 88.000 287.600 V 290.400 C 88.000 290.500 88.100 290.400 88.000 290.400 H 85.100 Z" stroke="rgb(0,0,255)" stroke-width="0.20" />
  <path d="M 97.100 290.400 H 94.200 C 94.100 290.400 94.200 290.500 94.200 290.400 V 287.600 C 94.200 287.500 94.100 287.600 94.200 287.600 H 100.000 C 100.100 287.600 100.000 287.500 100.000 287.600 V 290.400 C 100.000 290.500 100.100 290.400 100.000 290.400 H 97.100 Z" stroke="rgb(0,0,255)" stroke-width="0.20" />
  <path d="M 109.100 290.400 H 106.200 C 106.100 290.400 106.200 290.500 106.200 290.400 V 287.600 C 106.200 287.500 106.100 287.600 106.200 287.600 H 112.000 C 112.100 287.600 112.000 287.500 112.000 287.600 V 290.400 C 112.000 290.500 112.100 290.400 112.000 290.400 H 109.100 Z" stroke="rgb(0,0,255)" stroke-width="0.20" />
  <path d="M 121.100 290.400 H 118.200 C 118.100 290.400 118.200 290.500 118.200 290.400 V 287.600 C 118.200 287.500 118.100 287.600 118.200 287.600 H 124.000 C 124.100 287.600 124.000 287.500 124.000 287.600 V 290.400 C 124.000 290.500 124.100 290.400 124.000 290.400 H 121.100 Z" stroke="rgb(0,0,255)" stroke-width="0.20" />
  <path d="M 133.100 290.400 H 130.200 C 130.100 290.400 130.200 290.500 130.200 290.400 V 287.600 C 130.200 287.500 130.100 287.600 130.200 287.600 H 136.000 C 136.100 287.600 136.000 287.500 136.000 287.600 V 290.400 C 136.000 290.500 136.100 290.400 136.000 290.400 H 133.100 Z" stroke="rgb(0,0,255)" stroke-width="0.20" />
  <path d="M 145.100 290.400 H 142.200 C 142.100 290.400 142.200 290.500 142.200 290.400 V 287.600 C 142.200 287.500 142.100 287.600 142.200 287.600 H 148.000 C 148.100 287.600 148.000 287.500 148.000 287.600 V 290.400 C 148.000 290.500 148.100 290.400 148.000 290.400 H 145.100 Z" stroke="rgb(0,0,255)" stroke-width="0.20" />
  <text dominant-baseline="hanging" font-size="4px" style="font-family: sans-serif ; font-weight: normal; font-style: normal; fill: rgb(255,0,0)" text-anchor="middle" transform="matrix( 1.000 0.000 0.000 1.000 85.100 241.600 )">front</text><path d="M 13.100 293.600 H 157.100 H 160.100 C 160.155 293.600 160.200 293.555 160.200 293.500 V 282.500 C 160.200 282.445 160.155 282.400 160.100 282.400 H 157.200 C 157.100 282.400 157.200 282.500 157.200 282.400 V 276.600 C 157.200 276.500 157.100 276.600 157.200 276.600 H 160.100 C 160.155 276.600 160.200 276.555 160.200 276.500 V 270.500 C 160.200 270.445 160.155 270.400 160.100 270.400 H 157.200 C 157.100 270.400 157.200 270.500 157.200 270.400 V 264.600 C 157.200 264.500 157.100 264.600 157.200 264.600 H 160.100 C 160.155 264.600 160.200 264.555 160.200 264.500 V 258.500 C 160.200 258.445 160.155 258.400 160.100 258.400 H 157.200 C 157.100 258.400 157.200 258.500 157.200 258.400 V 252.600 C 157.200 252.500 157.100 252.600 157.200 252.600 H 160.100 C 160.155 252.600 160.200 252.555 160.200 252.500 V 246.500 C 160.200 246.445 160.155 246.400 160.100 246.400 H 157.200 C 157.100 246.400 157.200 246.500 157.200 246.400 V 240.600 C 157.200 240.500 157.100 240.600 157.200 240.600 H 160.100 C 160.155 240.600 160.200 240.555 160.200 240.500 V 234.500 C 160.200 234.445 160.155 234.400 160.100 234.400 H 157.200 C 157.100 234.400 157.200 234.500 157.200 234.400 V 228.600 C 157.200 228.500 157.100 228.600 157.200 228.600 H 160.100 C 160.155 228.600 160.200 228.555 160.200 228.500 V 222.500 C 160.200 222.445 160.155 222.400 160.100 222.400 H 157.200 C 157.100 222.400 157.200 222.500 157.200 222.400 V 216.600 C 157.200 216.500 157.100 216.600 157.200 216.600 H 160.100 C 160.155 216.600 160.200 216.555 160.200 216.500 V 210.500 C 160.200 210.445 160.155 210.400 160.100 210.400 H 157.200 C 157.100 210.400 157.200 210.500 157.200 210.400 V 204.600 C 157.200 204.500 157.100 204.600 157.200 204.600 H 160.100 C 160.155 204.600 160.200 204.555 160.200 204.500 V 193.500 C 160.200 193.445 160.155 193.400 160.100 193.400 H 157.100 H 13.100 H 10.100 C 10.045 193.400 10.000 193.445 10.000 193.500 V 204.500 C 10.000 204.555 10.045 204.600 10.100 204.600 H 13.000 C 13.100 204.600 13.000 204.500 13.000 204.600 V 210.400 C 13.000 210.500 13.100 210.400 13.000 210.400 H 10.100 C 10.045 210.400 10.000 210.445 10.000 210.500 V 216.500 C 10.000 216.555 10.045 216.600 10.100 216.600 H 13.000 C 13.100 216.600 13.000 216.500 13.000 216.600 V 222.400 C 13.000 222.500 13.100 222.400 13.000 222.400 H 10.100 C 10.045 222.400 10.000 222.445 10.000 222.500 V 228.500 C 10.000 228.555 10.045 228.600 10.100 228.600 H 13.000 C 13.100 228.600 13.000 228.500 13.000 228.600 V 234.400 C 13.000 234.500 13.100 234.400 13.000 234.400 H 10.100 C 10.045 234.400 10.000 234.445 10.000 234.500 V 240.500 C 10.000 240.555 10.045 240.600 10.100 240.600 H 13.000 C 13.100 240.600 13.000 240.500 13.000 240.600 V 246.400 C 13.000 246.500 13.100 246.400 13.000 246.400 H 10.100 C 10.045 246.400 10.000 246.445 10.000 246.500 V 252.500 C 10.000 252.555 10.045 252.600 10.100 252.600 H 13.000 C 13.100 252.600 13.000 252.500 13.000 252.600 V 258.400 C 13.000 258.500 13.100 258.400 13.000 258.400 H 10.100 C 10.045 258.400 10.000 258.445 10.000 258.500 V 264.500 C 10.000 264.555 10.045 264.600 10.100 264.600 H 13.000 C 13.100 264.600 13.000 264.500 13.000 264.600 V 270.400 C 13.000 270.500 13.100 270.400 13.000 270.400 H 10.100 C 10.045 270.400 10.000 270.445 10.000 270.500 V 276.500 C 10.000 276.555 10.045 276.600 10.100 276.600 H 13.000 C 13.100 276.600 13.000 276.500 13.000 276.600 V 282.400 C 13.000 282.500 13.100 282.400 13.000 282.400 H 10.100 C 10.045 282.400 10.000 282.445 10.000 282.500 V 293.500 C 10.000 293.555 10.045 293.600 10.100 293.600 H 13.100" stroke="rgb(0,0,0)" stroke-width="0.20" />
</g>
<g id="p-2" style="fill:none;stroke-linecap:round;stroke-linejoin:round;">
  <path d="M 25.100 188.700 H 22.200 C 22.100 188.700 22.200 188.800 22.200 188.700 V 185.900 C 22.200 185.800 22.100 185.900 22.200 185.900 H 28.000 C 28.100 185.900 28.000 185.800 28.000 185.900 V 188.700 C 28.000 188.800 28.100 188.700 28.000 188.700 H 25.100 Z" stroke="rgb(0,0,255)" stroke-width="0.20" />
  <path d="M 37.100 188.700 H 34.200 C 34.100 188.700 34.200 188.800 34.200 188.700 V 185.900 C 34.200 185.800 34.100 185.900 34.200 185.900 H 40.000 C 40.100 185.900 40.000 185.800 40.000 185.900 V 188.700 C 40.000 188.800 40.100 188.700 40.000 188.700 H 37.100 Z" stroke="rgb(0,0,255)" stroke-width="0.20" />
  <path d="M 49.100 188.700 H 46.200 C 46.100 188.700 46.200 188.800 46.200 188.700 V 185.900 C 46.200 185.800 46.100 185.900 46.200 185.900 H 52.000 C 52.100 185.900 52.000 185.800 52.000 185.900 V 188.700 C 52.000 188.800 52.100 188.700 52.000 188.700 H 49.100 Z" stroke="rgb(0,0,255)" stroke-width="0.20" />
  <path d="M 61.100 188.700 H 58.200 C 58.100 188.700 58.200 188.800 58.200 188.700 V 185.900 C 58.200 185.800 58.100 185.900 58.200 185.900 H 64.000 C 64.100 185.900 64.000 185.800 64.000 185.900 V 188.700 C 64.000 188.800 64.100 188.700 64.000 188.700 H 61.100 Z" stroke="rgb(0,0,255)" stroke-width="0.20" />
  <path d="M 73.100 188.700 H 70.200 C 70.100 188.700 70.200 188.800 70.200 188.700 V 185.900 C 70.200 185.800 70.100 185.900 70.200 185.900 H 76.000 C 76.100 185.900 76.000 185.800 76.000 185.900 V 188.700 C 76.000 188.800 76.100 188.700 76.000 188.700 H 73.100 Z" stroke="rgb(0,0,255)" stroke-width="0.20" />
  <path d="M 85.100 188.700 H 82.200 C 82.100 188.700 82.200 188.800 82.200 188.700 V 185.900 C 82.200 185.800 82.100 185.900 82.200 185.900 H 88.000 C 88.100 185.900 88.000 185.800 88.000 185.900 V 188.700 C 88.000 188.800 88.100 188.700 88.000 188.700 H 85.100 Z" stroke="rgb(0,0,255)" stroke-width="0.20" />
  <path d="M 97.100 188.700 H 94.200 C 94.100 188.700 94.200 188.800 94.200 188.700 V 185.900 C 94.200 185.800 94.100 185.900 94.200 185.900 H 100.000 C 100.100 185.900 100.000 185.800 100.000 185.900 V 188.700 C 100.000 188.800 100.100 188.700 100.000 188.700 H 97.100 Z" stroke="rgb(0,0,255)" stroke-width="0.20" />
  <path d="M 109.100 188.700 H 106.200 C 106.100 188.700 106.200 188.800 106.200 188.700 V 185.900 C 106.200 185.800 106.100 185.900 106.200 185.900 H 112.000 C 112.100 185.900 112.000 185.800 112.000 185.900 V 188.700 C 112.000 188.800 112.100 188.700 112.000 188.700 H 109.100 Z" stroke="rgb(0,0,255)" stroke-width="0.20" />
  <path d="M 121.100 188.700 H 118.200 C 118.100 188.700 118.200 188.800 118.200 188.700 V 185.900 C 118.200 185.800 118.100 185.900 118.200 185.900 H 124.000 C 124.100 185.900 124.000 185.800 124.000 185.900 V 188.700 C 124.000 188.800 124.100 188.700 124.000 188.700 H 121.100 Z" stroke="rgb(0,0,255)" stroke-width="0.20" />
  <path d="M 133.100 188.700 H 130.200 C 130.100 188.700 130.200 188.800 130.200 188.700 V 185.900 C 130.200 185.800 130.100 185.900 130.200 185.900 H 136.000 C 136.100 185.900 136.000 185.800 136.000 185.900 V 188.700 C 136.000 188.800 136.100 188.700 136.000 188.700 H 133.100 Z" stroke="rgb(0,0,255)" stroke-width="0.20" />
  <path d="M 145.100 188.700 H 142.200 C 142.100 188.700 142.200 188.800 142.200 188.700 V 185.900 C 142.200 185.800 142.100 185.900 142.200 185.900 H 148.000 C 148.100 185.900 148.000 185.800 148.000 185.900 V 188.700 C 148.000 188.800 148.100 188.700 148.000 188.700 H 145.100 Z" stroke="rgb(0,0,255)" stroke-width="0.20" />
  <text dominant-baseline="hanging" font-size="4px" style="font-family: sans-serif ; font-weight: normal; font-style: normal; fill: rgb(255,0,0)" text-anchor="middle" transform="matrix( 1.000 0.000 0.000 1.000 85.100 139.900 )">back</text><path d="M 13.100 191.900 H 157.100 H 160.100 C 160.155 191.900 160.200 191.855 160.200 191.800 V 180.800 C 160.200 180.745 160.155 180.700 160.100 180.700 H 157.200 C 157.100 180.700 157.200 180.800 157.200 180.700 V 174.900 C 157.200 174.800 157.100 174.900 157.200 174.900 H 160.100 C 160.155 174.900 160.200 174.855 160.200 174.800 V 168.800 C 160.200 168.745 160.155 168.700 160.100 168.700 H 157.200 C 157.100 168.700 157.200 168.800 157.200 168.700 V 162.900 C 157.200 162.800 157.100 162.900 157.200 162.900 H 160.100 C 160.155 162.900 160.200 162.855 160.200 162.800 V 156.800 C 160.200 156.745 160.155 156.700 160.100 156.700 H 157.200 C 157.100 156.700 157.200 156.800 157.200 156.700 V 150.900 C 157.200 150.800 157.100 150.900 157.200 150.900 H 160.100 C 160.155 150.900 160.200 150.855 160.200 150.800 V 144.800 C 160.200 144.745 160.155 144.700 160.100 144.700 H 157.200 C 157.100 144.700 157.200 144.800 157.200 144.700 V 138.900 C 157.200 138.800 157.100 138.900 157.200 138.900 H 160.100 C 160.155 138.900 160.200 138.855 160.200 138.800 V 132.800 C 160.200 132.745 160.155 132.700 160.100 132.700 H 157.200 C 157.100 132.700 157.200 132.800 157.200 132.700 V 126.900 C 157.200 126.800 157.100 126.900 157.200 126.900 H 160.100 C 160.155 126.900 160.200 126.855 160.200 126.800 V 120.800 C 160.200 120.745 160.155 120.700 160.100 120.700 H 157.200 C 157.100 120.700 157.200 120.800 157.200 120.700 V 114.900 C 157.200 114.800 157.100 114.900 157.200 114.900 H 160.100 C 160.155 114.900 160.200 114.855 160.200 114.800 V 108.800 C 160.200 108.745 160.155 108.700 160.100 108.700 H 157.200 C 157.100 108.700 157.200 108.800 157.200 108.700 V 102.900 C 157.200 102.800 157.100 102.900 157.200 102.900 H 160.100 C 160.155 102.900 160.200 102.855 160.200 102.800 V 91.800 C 160.200 91.745 160.155 91.700 160.100 91.700 H 157.100 H 13.100 H 10.100 C 10.045 91.700 10.000 91.745 10.000 91.800 V 102.800 C 10.000 102.855 10.045 102.900 10.100 102.900 H 13.000 C 13.100 102.900 13.000 102.800 13.000 102.900 V 108.700 C 13.000 108.800 13.100 108.700 13.000 108.700 H 10.100 C 10.045 108.700 10.000 108.745 10.000 108.800 V 114.800 C 10.000 114.855 10.045 114.900 10.100 114.900 H 13.000 C 13.100 114.900 13.000 114.800 13.000 114.900 V 120.700 C 13.000 120.800 13.100 120.700 13.000 120.700 H 10.100 C 10.045 120.700 10.000 120.745 10.000 120.800 V 126.800 C 10.000 126.855 10.045 126.900 10.100 126.900 H 13.000 C 13.100 126.900 13.000 126.800 13.000 126.900 V 132.700 C 13.000 132.800 13.100 132.700 13.000 132.700 H 10.100 C 10.045 132.700 10.000 132.745 10.000 132.800 V 138.800 C 10.000 138.855 10.045 138.900 10.100 138.900 H 13.000 C 13.100 138.900 13.000 138.800 13.000 138.900 V 144.700 C 13.000 144.800 13.100 144.700 13.000 144.700 H 10.100 C 10.045 144.700 10.000 144.745 10.000 144.800 V 150.800 C 10.000 150.855 10.045 150.900 10.100 150.900 H 13.000 C 13.100 150.900 13.000 150.800 13.000 150.900 V 156.700 C 13.000 156.800 13.100 156.700 13.000 156.700 H 10.100 C 10.045 156.700 10.000 156.745 10.000 156.800 V 162.800 C 10.000 162.855 10.045 162.900 10.100 162.900 H 13.000 C 13.100 162.900 13.000 162.800 13.000 162.900 V 168.700 C 13.000 168.800 13.100 168.700 13.000 168.700 H 10.100 C 10.045 168.700 10.000 168.745 10.000 168.800 V 174.800 C 10.000 174.855 10.045 174.900 10.100 174.900 H 13.000 C 13.100 174.900 13.000 174.800 13.000 174.900 V 180.700 C 13.000 180.800 13.100 180.700 13.000 180.700 H 10.100 C 10.045 180.700 10.000 180.745 10.000 180.800 V 191.800 C 10.000 191.855 10.045 191.900 10.100 191.900 H 13.100" stroke="rgb(0,0,0)" stroke-width="0.20" />
</g>
<g id="p-3" style="fill:none;stroke-linecap:round;stroke-linejoin:round;">
  <text dominant-baseline="hanging" font-size="4px" style="font-family: sans-serif ; font-weight: normal; font-style: normal; fill: rgb(255,0,0)" text-anchor="middle" transform="matrix( 1.000 0.000 0.000 1.000 85.100 48.200 )">bottom</text><path d="M 13.100 87.200 H 22.000 C 22.100 87.200 22.000 87.100 22.000 87.200 V 90.100 C 22.000 90.155 22.045 90.200 22.100 90.200 H 28.100 C 28.155 90.200 28.200 90.155 28.200 90.100 V 87.200 C 28.200 87.100 28.100 87.200 28.200 87.200 H 34.000 C 34.100 87.200 34.000 87.100 34.000 87.200 V 90.100 C 34.000 90.155 34.045 90.200 34.100 90.200 H 40.100 C 40.155 90.200 40.200 90.155 40.200 90.100 V 87.200 C 40.200 87.100 40.100 87.200 40.200 87.200 H 46.000 C 46.100 87.200 46.000 87.100 46.000 87.200 V 90.100 C 46.000 90.155 46.045 90.200 46.100 90.200 H 52.100 C 52.155 90.200 52.200 90.155 52.200 90.100 V 87.200 C 52.200 87.100 52.100 87.200 52.200 87.200 H 58.000 C 58.100 87.200 58.000 87.100 58.000 87.200 V 90.100 C 58.000 90.155 58.045 90.200 58.100 90.200 H 64.100 C 64.155 90.200 64.200 90.155 64.200 90.100 V 87.200 C 64.200 87.100 64.100 87.200 64.200 87.200 H 70.000 C 70.100 87.200 70.000 87.100 70.000 87.200 V 90.100 C 70.000 90.155 70.045 90.200 70.100 90.200 H 76.100 C 76.155 90.200 76.200 90.155 76.200 90.100 V 87.200 C 76.200 87.100 76.100 87.200 76.200 87.200 H 82.000 C 82.100 87.200 82.000 87.100 82.000 87.200 V 90.100 C 82.000 90.155 82.045 90.200 82.100 90.200 H 88.100 C 88.155 90.200 88.200 90.155 88.200 90.100 V 87.200 C 88.200 87.100 88.100 87.200 88.200 87.200 H 94.000 C 94.100 87.200 94.000 87.100 94.000 87.200 V 90.100 C 94.000 90.155 94.045 90.200 94.100 90.200 H 100.100 C 100.155 90.200 100.200 90.155 100.200 90.100 V 87.200 C 100.200 87.100 100.100 87.200 100.200 87.200 H 106.000 C 106.100 87.200 106.000 87.100 106.000 87.200 V 90.100 C 106.000 90.155 106.045 90.200 106.100 90.200 H 112.100 C 112.155 90.200 112.200 90.155 112.200 90.100 V 87.200 C 112.200 87.100 112.100 87.200 112.200 87.200 H 118.000 C 118.100 87.200 118.000 87.100 118.000 87.200 V 90.100 C 118.000 90.155 118.045 90.200 118.100 90.200 H 124.100 C 124.155 90.200 124.200 90.155 124.200 90.100 V 87.200 C 124.200 87.100 124.100 87.200 124.200 87.200 H 130.000 C 130.100 87.200 130.000 87.100 130.000 87.200 V 90.100 C 130.000 90.155 130.045 90.200 130.100 90.200 H 136.100 C 136.155 90.200 136.200 90.155 136.200 90.100 V 87.200 C 136.200 87.100 136.100 87.200 136.200 87.200 H 142.000 C 142.100 87.200 142.000 87.100 142.000 87.200 V 90.100 C 142.000 90.155 142.045 90.200 142.100 90.200 H 148.100 C 148.155 90.200 148.200 90.155 148.200 90.100 V 87.200 C 148.200 87.100 148.100 87.200 148.200 87.200 H 157.100 C 157.155 87.200 157.200 87.155 157.200 87.100 V 77.200 C 157.200 77.100 157.100 77.200 157.200 77.200 H 160.100 C 160.155 77.200 160.200 77.155 160.200 77.100 V 71.100 C 160.200 71.045 160.155 71.000 160.100 71.000 H 157.200 C 157.100 71.000 157.200 71.100 157.200 71.000 V 65.200 C 157.200 65.100 157.100 65.200 157.200 65.200 H 160.100 C 160.155 65.200 160.200 65.155 160.200 65.100 V 59.100 C 160.200 59.045 160.155 59.000 160.100 59.000 H 157.200 C 157.100 59.000 157.200 59.100 157.200 59.000 V 53.200 C 157.200 53.100 157.100 53.200 157.200 53.200 H 160.100 C 160.155 53.200 160.200 53.155 160.200 53.100 V 47.100 C 160.200 47.045 160.155 47.000 160.100 47.000 H 157.200 C 157.100 47.000 157.200 47.100 157.200 47.000 V 41.200 C 157.200 41.100 157.100 41.200 157.200 41.200 H 160.100 C 160.155 41.200 160.200 41.155 160.200 41.100 V 35.100 C 160.200 35.045 160.155 35.000 160.100 35.000 H 157.200 C 157.100 35.000 157.200 35.100 157.200 35.000 V 29.200 C 157.200 29.100 157.100 29.200 157.200 29.200 H 160.100 C 160.155 29.200 160.200 29.155 160.200 29.100 V 23.100 C 160.200 23.045 160.155 23.000 160.100 23.000 H 157.200 C 157.100 23.000 157.200 23.100 157.200 23.000 V 13.100 C 157.200 13.045 157.155 13.000 157.100 13.000 H 148.200 C 148.100 13.000 148.200 13.100 148.200 13.000 V 10.100 C 148.200 10.045 148.155 10.000 148.100 10.000 H 142.100 C 142.045 10.000 142.000 10.045 142.000 10.100 V 13.000 C 142.000 13.100 142.100 13.000 142.000 13.000 H 136.200 C 136.100 13.000 136.200 13.100 136.200 13.000 V 10.100 C 136.200 10.045 136.155 10.000 136.100 10.000 H 130.100 C 130.045 10.000 130.000 10.045 130.000 10.100 V 13.000 C 130.000 13.100 130.100 13.000 130.000 13.000 H 124.200 C 124.100 13.000 124.200 13.100 124.200 13.000 V 10.100 C 124.200 10.045 124.155 10.000 124.100 10.000 H 118.100 C 118.045 10.000 118.000 10.045 118.000 10.100 V 13.000 C 118.000 13.100 118.100 13.000 118.000 13.000 H 112.200 C 112.100 13.000 112.200 13.100 112.200 13.000 V 10.100 C 112.200 10.045 112.155 10.000 112.100 10.000 H 106.100 C 106.045 10.000 106.000 10.045 106.000 10.100 V 13.000 C 106.000 13.100 106.100 13.000 106.000 13.000 H 100.200 C 100.100 13.000 100.200 13.100 100.200 13.000 V 10.100 C 100.200 10.045 100.155 10.000 100.100 10.000 H 94.100 C 94.045 10.000 94.000 10.045 94.000 10.100 V 13.000 C 94.000 13.100 94.100 13.000 94.000 13.000 H 88.200 C 88.100 13.000 88.200 13.100 88.200 13.000 V 10.100 C 88.200 10.045 88.155 10.000 88.100 10.000 H 82.100 C 82.045 10.000 82.000 10.045 82.000 10.100 V 13.000 C 82.000 13.100 82.100 13.000 82.000 13.000 H 76.200 C 76.100 13.000 76.200 13.100 76.200 13.000 V 10.100 C 76.200 10.045 76.155 10.000 76.100 10.000 H 70.100 C 70.045 10.000 70.000 10.045 70.000 10.100 V 13.000 C 70.000 13.100 70.100 13.000 70.000 13.000 H 64.200 C 64.100 13.000 64.200 13.100 64.200 13.000 V 10.100 C 64.200 10.045 64.155 10.000 64.100 10.000 H 58.100 C 58.045 10.000 58.000 10.045 58.000 10.100 V 13.000 C 58.000 13.100 58.100 13.000 58.000 13.000 H 52.200 C 52.100 13.000 52.200 13.100 52.200 13.000 V 10.100 C 52.200 10.045 52.155 10.000 52.100 10.000 H 46.100 C 46.045 10.000 46.000 10.045 46.000 10.100 V 13.000 C 46.000 13.100 46.100 13.000 46.000 13.000 H 40.200 C 40.100 13.000 40.200 13.100 40.200 13.000 V 10.100 C 40.200 10.045 40.155 10.000 40.100 10.000 H 34.100 C 34.045 10.000 34.000 10.045 34.000 10.100 V 13.000 C 34.000 13.100 34.100 13.000 34.000 13.000 H 28.200 C 28.100 13.000 28.200 13.100 28.200 13.000 V 10.100 C 28.200 10.045 28.155 10.000 28.100 10.000 H 22.100 C 22.045 10.000 22.000 10.045 22.000 10.100 V 13.000 C 22.000 13.100 22.100 13.000 22.000 13.000 H 13.100 C 13.045 13.000 13.000 13.045 13.000 13.100 V 23.000 C 13.000 23.100 13.100 23.000 13.000 23.000 H 10.100 C 10.045 23.000 10.000 23.045 10.000 23.100 V 29.100 C 10.000 29.155 10.045 29.200 10.100 29.200 H 13.000 C 13.100 29.200 13.000 29.100 13.000 29.200 V 35.000 C 13.000 35.100 13.100 35.000 13.000 35.000 H 10.100 C 10.045 35.000 10.000 35.045 10.000 35.100 V 41.100 C 10.000 41.155 10.045 41.200 10.100 41.200 H 13.000 C 13.100 41.200 13.000 41.100 13.000 41.200 V 47.000 C 13.000 47.100 13.100 47.000 13.000 47.000 H 10.100 C 10.045 47.000 10.000 47.045 10.000 47.100 V 53.100 C 10.000 53.155 10.045 53.200 10.100 53.200 H 13.000 C 13.100 53.200 13.000 53.100 13.000 53.200 V 59.000 C 13.000 59.100 13.100 59.000 13.000 59.000 H 10.100 C 10.045 59.000 10.000 59.045 10.000 59.100 V 65.100 C 10.000 65.155 10.045 65.200 10.100 65.200 H 13.000 C 13.100 65.200 13.000 65.100 13.000 65.200 V 71.000 C 13.000 71.100 13.100 71.000 13.000 71.000 H 10.100 C 10.045 71.000 10.000 71.045 10.000 71.100 V 77.100 C 10.000 77.155 10.045 77.200 10.100 77.200 H 13.000 C 13.100 77.200 13.000 77.100 13.000 77.200 V 87.100 C 13.000 87.155 13.045 87.200 13.100 87.200" stroke="rgb(0,0,0)" stroke-width="0.20" />
</g>
<g id="p-4" style="fill:none;stroke-linecap:round;stroke-linejoin:round;">
  <path d="M 177.800 290.400 H 174.900 C 174.800 290.400 174.900 290.500 174.900 290.400 V 287.600 C 174.900 287.500 174.800 287.600 174.900 287.600 H 180.700 C 180.800 287.600 180.700 287.500 180.700 287.600 V 290.400 C 180.700 290.500 180.800 290.400 180.700 290.400 H 177.800 Z" stroke="rgb(0,0,255)" stroke-width="0.20" />
  <path d="M 189.800 290.400 H 186.900 C 186.800 290.400 186.900 290.500 186.900 290.400 V 287.600 C 186.900 287.500 186.800 287.600 186.900 287.600 H 192.700 C 192.800 287.600 192.700 287.500 192.700 287.600 V 290.400 C 192.700 290.500 192.800 290.400 192.700 290.400 H 189.800 Z" stroke="rgb(0,0,255)" stroke-width="0.20" />
  <path d="M 201.800 290.400 H 198.900 C 198.800 290.400 198.900 290.500 198.900 290.400 V 287.600 C 198.900 287.500 198.800 287.600 198.900 287.600 H 204.700 C 204.800 287.600 204.700 287.500 204.700 287.600 V 290.400 C 204.700 290.500 204.800 290.400 204.700 290.400 H 201.800 Z" stroke="rgb(0,0,255)" stroke-width="0.20" />
  <path d="M 213.800 290.400 H 210.900 C 210.800 290.400 210.900 290.500 210.900 290.400 V 287.600 C 210.900 287.500 210.800 287.600 210.900 287.600 H 216.700 C 216.800 287.600 216.700 287.500 216.700 287.600 V 290.400 C 216.700 290.500 216.800 290.400 216.700 290.400 H 213.800 Z" stroke="rgb(0,0,255)" stroke-width="0.20" />
  <path d="M 225.800 290.400 H 222.900 C 222.800 290.400 222.900 290.500 222.900 290.400 V 287.600 C 222.900 287.500 222.800 287.600 222.900 287.600 H 228.700 C 228.800 287.600 228.700 287.500 228.700 287.600 V 290.400 C 228.700 290.500 228.800 290.400 228.700 290.400 H 225.800 Z" stroke="rgb(0,0,255)" stroke-width="0.20" />
  <text dominant-baseline="hanging" font-size="4px" style="font-family: sans-serif ; font-weight: normal; font-style: normal; fill: rgb(255,0,0)" text-anchor="middle" transform="matrix( 1.000 0.000 0.000 1.000 201.800 241.600 )">left</text><path d="M 164.800 293.600 H 238.800 C 238.855 293.600 238.900 293.555 238.900 293.500 V 282.600 C 238.900 282.500 238.800 282.600 238.900 282.600 H 241.800 C 241.855 282.600 241.900 282.555 241.900 282.500 V 276.500 C 241.900 276.445 241.855 276.400 241.800 276.400 H 238.900 C 238.800 276.400 238.900 276.500 238.900 276.400 V 270.600 C 238.900 270.500 238.800 270.600 238.900 270.600 H 241.800 C 241.855 270.600 241.900 270.555 241.900 270.500 V 264.500 C 241.900 264.445 241.855 264.400 241.800 264.400 H 238.900 C 238.800 264.400 238.900 264.500 238.900 264.400 V 258.600 C 238.900 258.500 238.800 258.600 238.900 258.600 H 241.800 C 241.855 258.600 241.900 258.555 241.900 258.500 V 252.500 C 241.900 252.445 241.855 252.400 241.800 252.400 H 238.900 C 238.800 252.400 238.900 252.500 238.900 252.400 V 246.600 C 238.900 246.500 238.800 246.600 238.900 246.600 H 241.800 C 241.855 246.600 241.900 246.555 241.900 246.500 V 240.500 C 241.900 240.445 241.855 240.400 241.800 240.400 H 238.900 C 238.800 240.400 238.900 240.500 238.900 240.400 V 234.600 C 238.900 234.500 238.800 234.600 238.900 234.600 H 241.800 C 241.855 234.600 241.900 234.555 241.900 234.500 V 228.500 C 241.900 228.445 241.855 228.400 241.800 228.400 H 238.900 C 238.800 228.400 238.900 228.500 238.900 228.400 V 222.600 C 238.900 222.500 238.800 222.600 238.900 222.600 H 241.800 C 241.855 222.600 241.900 222.555 241.900 222.500 V 216.500 C 241.900 216.445 241.855 216.400 241.800 216.400 H 238.900 C 238.800 216.400 238.900 216.500 238.900 216.400 V 210.600 C 238.900 210.500 238.800 210.600 238.900 210.600 H 241.800 C 241.855 210.600 241.900 210.555 241.900 210.500 V 204.500 C 241.900 204.445 241.855 204.400 241.800 204.400 H 238.900 C 238.800 204.400 238.900 204.500 238.900 204.400 V 193.500 C 238.900 193.445 238.855 193.400 238.800 193.400 H 164.800 C 164.745 193.400 164.700 193.445 164.700 193.500 V 204.400 C 164.700 204.500 164.800 204.400 164.700 204.400 H 161.800 C 161.745 204.400 161.700 204.445 161.700 204.500 V 210.500 C 161.700 210.555 161.745 210.600 161.800 210.600 H 164.700 C 164.800 210.600 164.700 210.500 164.700 210.600 V 216.400 C 164.700 216.500 164.800 216.400 164.700 216.400 H 161.800 C 161.745 216.400 161.700 216.445 161.700 216.500 V 222.500 C 161.700 222.555 161.745 222.600 161.800 222.600 H 164.700 C 164.800 222.600 164.700 222.500 164.700 222.600 V 228.400 C 164.700 228.500 164.800 228.400 164.700 228.400 H 161.800 C 161.745 228.400 161.700 228.445 161.700 228.500 V 234.500 C 161.700 234.555 161.745 234.600 161.800 234.600 H 164.700 C 164.800 234.600 164.700 234.500 164.700 234.600 V 240.400 C 164.700 240.500 164.800 240.400 164.700 240.400 H 161.800 C 161.745 240.400 161.700 240.445 161.700 240.500 V 246.500 C 161.700 246.555 161.745 246.600 161.800 246.600 H 164.700 C 164.800 246.600 164.700 246.500 164.700 246.600 V 252.400 C 164.700 252.500 164.800 252.400 164.700 252.400 H 161.800 C 161.745 252.400 161.700 252.445 161.700 252.500 V 258.500 C 161.700 258.555 161.745 258.600 161.800 258.600 H 164.700 C 164.800 258.600 164.700 258.500 164.700 258.600 V 264.400 C 164.700 264.500 164.800 264.400 164.700 264.400 H 161.800 C 161.745 264.400 161.700 264.445 161.700 264.500 V 270.500 C 161.700 270.555 161.745 270.600 161.800 270.600 H 164.700 C 164.800 270.600 164.700 270.500 164.700 270.600 V 276.400 C 164.700 276.500 164.800 276.400 164.700 276.400 H 161.800 C 161.745 276.400 161.700 276.445 161.700 276.500 V 282.500 C 161.700 282.555 161.745 282.600 161.800 282.600 H 164.700 C 164.800 282.600 164.700 282.500 164.700 282.600 V 293.500 C 164.700 293.555 164.745 293.600 164.800 293.600" stroke="rgb(0,0,0)" stroke-width="0.20" />
</g>
<g id="p-5" style="fill:none;stroke-linecap:round;stroke-linejoin:round;">
  <path d="M 177.800 188.700 H 174.900 C 174.800 188.700 174.900 188.800 174.900 188.700 V 185.900 C 174.900 185.800 174.800 185.900 174.900 185.900 H 180.700 C 180.800 185.900 180.700 185.800 180.700 185.900 V 188.700 C 180.700 188.800 180.800 188.700 180.700 188.700 H 177.800 Z" stroke="rgb(0,0,255)" stroke-width="0.20" />
  <path d="M 189.800 188.700 H 186.900 C 186.800 188.700 186.900 188.800 186.900 188.700 V 185.900 C 186.900 185.800 186.800 185.900 186.900 185.900 H 192.700 C 192.800 185.900 192.700 185.800 192.700 185.900 V 188.700 C 192.700 188.800 192.800 188.700 192.700 188.700 H 189.800 Z" stroke="rgb(0,0,255)" stroke-width="0.20" />
  <path d="M 201.800 188.700 H 198.900 C 198.800 188.700 198.900 188.800 198.900 188.700 V 185.900 C 198.900 185.800 198.800 185.900 198.900 185.900 H 204.700 C 204.800 185.900 204.700 185.800 204.700 185.900 V 188.700 C 204.700 188.800 204.800 188.700 204.700 188.700 H 201.800 Z" stroke="rgb(0,0,255)" stroke-width="0.20" />
  <path d="M 213.800 188.700 H 210.900 C 210.800 188.700 210.900 188.800 210.900 188.700 V 185.900 C 210.900 185.800 210.800 185.900 210.900 185.900 H 216.700 C 216.800 185.900 216.700 185.800 216.700 185.900 V 188.700 C 216.700 188.800 216.800 188.700 216.700 188.700 H 213.800 Z" stroke="rgb(0,0,255)" stroke-width="0.20" />
  <path d="M 225.800 188.700 H 222.900 C 222.800 188.700 222.900 188.800 222.900 188.700 V 185.900 C 222.900 185.800 222.800 185.900 222.900 185.900 H 228.700 C 228.800 185.900 228.700 185.800 228.700 185.900 V 188.700 C 228.700 188.800 228.800 188.700 228.700 188.700 H 225.800 Z" stroke="rgb(0,0,255)" stroke-width="0.20" />
  <text dominant-baseline="hanging" font-size="4px" style="font-family: sans-serif ; font-weight: normal; font-style: normal; fill: rgb(255,0,0)" text-anchor="middle" transform="matrix( 1.000 0.000 0.000 1.000 201.800 139.900 )">right</text><path d="M 164.800 191.900 H 238.800 C 238.855 191.900 238.900 191.855 238.900 191.800 V 180.900 C 238.900 180.800 238.800 180.900 238.900 180.900 H 241.800 C 241.855 180.900 241.900 180.855 241.900 180.800 V 174.800 C 241.900 174.745 241.855 174.700 241.800 174.700 H 238.900 C 238.800 174.700 238.900 174.800 238.900 174.700 V 168.900 C 238.900 168.800 238.800 168.900 238.900 168.900 H 241.800 C 241.855 168.900 241.900 168.855 241.900 168.800 V 162.800 C 241.900 162.745 241.855 162.700 241.800 162.700 H 238.900 C 238.800 162.700 238.900 162.800 238.900 162.700 V 156.900 C 238.900 156.800 238.800 156.900 238.900 156.900 H 241.800 C 241.855 156.900 241.900 156.855 241.900 156.800 V 150.800 C 241.900 150.745 241.855 150.700 241.800 150.700 H 238.900 C 238.800 150.700 238.900 150.800 238.900 150.700 V 144.900 C 238.900 144.800 238.800 144.900 238.900 144.900 H 241.800 C 241.855 144.900 241.900 144.855 241.900 144.800 V 138.800 C 241.900 138.745 241.855 138.700 241.800 138.700 H 238.900 C 238.800 138.700 238.900 138.800 238.900 138.700 V 132.900 C 238.900 132.800 238.800 132.900 238.900 132.900 H 241.800 C 241.855 132.900 241.900 132.855 241.900 132.800 V 126.800 C 241.900 126.745 241.855 126.700 241.800 126.700 H 238.900 C 238.800 126.700 238.900 126.800 238.900 126.700 V 120.900 C 238.900 120.800 238.800 120.900 238.900 120.900 H 241.800 C 241.855 120.900 241.900 120.855 241.900 120.800 V 114.800 C 241.900 114.745 241.855 114.700 241.800 114.700 H 238.900 C 238.800 114.700 238.900 114.800 238.900 114.700 V 108.900 C 238.900 108.800 238.800 108.900 238.900 108.900 H 241.800 C 241.855 108.900 241.900 108.855 241.900 108.800 V 102.800 C 241.900 102.745 241.855 102.700 241.800 102.700 H 238.900 C 238.800 102.700 238.900 102.800 238.900 102.700 V 91.800 C 238.900 91.745 238.855 91.700 238.800 91.700 H 164.800 C 164.745 91.700 164.700 91.745 164.700 91.800 V 102.700 C 164.700 102.800 164.800 102.700 164.700 102.700 H 161.800 C 161.745 102.700 161.700 102.745 161.700 102.800 V 108.800 C 161.700 108.855 161.745 108.900 161.800 108.900 H 164.700 C 164.800 108.900 164.700 108.800 164.700 108.900 V 114.700 C 164.700 114.800 164.800 114.700 164.700 114.700 H 161.800 C 161.745 114.700 161.700 114.745 161.700 114.800 V 120.800 C 161.700 120.855 161.745 120.900 161.800 120.900 H 164.700 C 164.800 120.900 164.700 120.800 164.700 120.900 V 126.700 C 164.700 126.800 164.800 126.700 164.700 126.700 H 161.800 C 161.745 126.700 161.700 126.745 161.700 126.800 V 132.800 C 161.700 132.855 161.745 132.900 161.800 132.900 H 164.700 C 164.800 132.900 164.700 132.800 164.700 132.900 V 138.700 C 164.700 138.800 164.800 138.700 164.700 138.700 H 161.800 C 161.745 138.700 161.700 138.745 161.700 138.800 V 144.800 C 161.700 144.855 161.745 144.900 161.800 144.900 H 164.700 C 164.800 144.900 164.700 144.800 164.700 144.900 V 150.700 C 164.700 150.800 164.800 150.700 164.700 150.700 H 161.800 C 161.745 150.700 161.700 150.745 161.700 150.800 V 156.800 C 161.700 156.855 161.745 156.900 161.800 156.900 H 164.700 C 164.800 156.900 164.700 156.800 164.700 156.900 V 162.700 C 164.700 162.800 164.800 162.700 164.700 162.700 H 161.800 C 161.745 162.700 161.700 162.745 161.700 162.800 V 168.800 C 161.700 168.855 161.745 168.900 161.800 168.900 H 164.700 C 164.800 168.900 164.700 168.800 164.700 168.900 V 174.700 C 164.700 174.800 164.800 174.700 164.700 174.700 H 161.800 C 161.745 174.700 161.700 174.745 161.700 174.800 V 180.800 C 161.700 180.855 161.745 180.900 161.800 180.900 H 164.700 C 164.800 180.900 164.700 180.800 164.700 180.900 V 191.800 C 164.700 191.855 164.745 191.900 164.800 191.900" stroke="rgb(0,0,0)" stroke-width="0.20" />
</g>
</svg>