<?xml version='1.0' encoding='utf-8'?>
<svg height="315.30mm" viewBox="0.0 0.0 301.90 315.30" width="301.90mm" xmlns="http://www.w3.org/2000/svg" xmlns:cc="http://creativecommons.org/ns#" xmlns:dc="http://purl.org/dc/elements/1.1/" xmlns:inkscape="http://www.inkscape.org/namespaces/inkscape" xmlns:rdf="http://www.w3.org/1999/02/22-rdf-syntax-ns#" xmlns:svg="http://www.w3.org/2000/svg" xmlns:xlink="http://www.w3.org/1999/xlink">
<!--
UniversalBox - Box with various options for different styles and lids

Created with Boxes.py (https://boxes.hackerspace-bamberg.de/)
Creation date: 2026-01-04 23:01:41
Command line (remove spaces between dashes): boxes UniversalBox - -x - -y - -output
-->
<title>UniversalBox</title>
<metadata>
<rdf:RDF><cc:Work>
<dc:title>Box - UniversalBox</dc:title>
<dc:date>2026-01-04 23:01:41</dc:date>
<dc:source>boxes UniversalBox --x 200.0 --y 80.0 --h 100.0 --thickness 3.0 --format svg --output 'D:\Programação\Projeto Caixa Criativa\Back-end\output\box_2e6c14c1-3593-4933-8386-fb27c01d1cd8.svg'</dc:source>
<dc:description>Box with various options for different styles and lids

Created with Boxes.py (https://boxes.hackerspace-bamberg.de/)
Command line: boxes UniversalBox --x 200.0 --y 80.0 --h 100.0 --thickness 3.0 --format svg --output 'D:\Programação\Projeto Caixa Criativa\Back-end\output\box_2e6c14c1-3593-4933-8386-fb27c01d1cd8.svg'
Command line short: boxes UniversalBox --x --y --output
</dc:description>
</cc:Work></rdf:RDF></metadata>
<g id="p-0" style="fill:none;stroke-linecap:round;stroke-linejoin:round;">
  <path d="M 10.100 305.300 H 110.100 V 295.300 H 10.100 V 305.300 Z" stroke="rgb(0,0,0)" stroke-width="0.20" />
  <text dominant-baseline="hanging" font-size="6px" style="font-family: sans-serif ; font-weight: normal; font-style: normal; fill: rgb(255,0,0)" text-anchor="middle" transform="matrix( 1.000 0.000 0.000 1.000 60.100 297.300 )">100.0mm, burn:0.10mm</text>
</g>
<g id="p-1" style="fill:none;stroke-linecap:round;stroke-linejoin:round;">
  <path d="M 26.100 290.400 H 23.200 C 23.100 290.400 23.200 290.500 23.200 290.400 V 287.600 C 23.200 287.500 23.100 287.600 23.200 287.600 H 29.000 C 29.100 287.600 29.000 287.500 29.000 287.600 V 290.400 C 29.000 290.500 29.100 290.400 29.000 290.400 H 26.100 Z" stroke="rgb(0,0,255)" stroke-width="0.20" />
  <path d="M 38.100 290.400 H 35.200 C 35.100 290.400 35.200 290.500 35.200 290.400 V 287.600 C 35.200 287.500 35.100 287.600 35.200 287.600 H 41.000 C 41.100 287.600 41.000 287.500 41.000 287.600 V 290.400 C 41.000 290.500 41.100 290.400 41.000 290.400 H 38.100 Z" stroke="rgb(0,0,255)" stroke-width="0.20" />
  <path d="M 50.100 290.400 H 47.200 C 47.100 290.400 47.200 290.500 47.200 290.400 V 287.600 C 47.200 287.500 47.100 287.600 47.200 287.600 H 53.000 C 53.100 287.600 53.000 287.500 53.000 287.600 V 290.400 C 53.000 290.500 53.100 290.400 53.000 290.400 H 50.100 Z" stroke="rgb(0,0,255)" stroke-width="0.20" />
  <path d="M 62.100 290.400 H 59.200 C 59.100 290.400 59.200 290.500 59.200 290.400 V 287.600 C 59.200 287.500 59.100 287.600 59.200 287.600 H 65.000 C 65.100 287.600 65.000 287.500 65.000 287.600 V 290.400 C 65.000 290.500 65.100 290.400 65.000 290.400 H 62.100 Z" stroke="rgb(0,0,255)" stroke-width="0.20" />
  <path d="M 74.100 290.400 H 71.200 C 71.100 290.400 71.200 290.500 71.200 290.400 V 287.600 C 71.200 287.500 71.100 287.600 71.200 287.600 H 77.000 C 77.100 287.600 77.000 287.500 77.000 287.600 V 290.400 C 77.000 290.500 77.100 290.400 77.000 290.400 H 74.100 Z" stroke="rgb(0,0,255)" stroke-width="0.20" />
  <path d="M 86.100 290.400 H 83.200 C 83.100 290.400 83.200 290.500 83.200 290.400 V 287.600 C 83.200 287.500 83.100 287.600 83.200 287.600 H 89.000 C 89.100 287.600 89.000 287.500 89.000 287.600 V 290.400 C 89.000 290.500 89.100 290.400 89.000 290.400 H 86.100 Z" stroke="rgb(0,0,255)" stroke-width="0.20" />
  <path d="M 98.100 290.400 H 95.200 C 95.100 290.400 95.200 290.500 95.200 290.400 V 287.600 C 95.200 287.500 95.100 287.600 95.200 287.600 H 101.000 C 101.100 287.600 101.000 287.500 101.000 287.600 V 290.400 C 101.000 290.500 101.100 290.400 101.000 290.400 H 98.100 Z" stroke="rgb(0,0,255)" stroke-width="0.20" />
  <path d="M 110.100 290.400 H 107.200 C 107.100 290.400 107.200 290.500 107.200 290.400 V 287.600 C 107.200 287.500 107.100 287.600 107.200 287.600 H 113.000 C 113.100 287.600 113.000 287.500 113.000 287.600 V 290.400 C 113.000 290.500 113.100 290.400 113.000 290.400 H 110.100 Z" stroke="rgb(0,0,255)" stroke-width="0.20" />
  <path d="M 122.100 290.400 H 119.200 C 119.100 290.400 119.200 290.500 119.200 290.400 V 287.600 C 119.200 287.500 119.100 287.600 119.200 287.600 H 125.000 C 125.100 287.600 125.000 287.500 125.000 287.600 V 290.400 C 125.000 290.500 125.100 290.400 125.000 290.400 H 122.100 Z" stroke="rgb(0,0,255)" stroke-width="0.20" />
  <path d="M 134.100 290.400 H 131.200 C 131.100 290.400 131.200 290.500 131.200 290.400 V 287.600 C 131.200 287.500 131.100 287.600 131.200 287.600 H 137.000 C 137.100 287.600 137.000 287.500 137.000 287.600 V 290.400 C 137.000 290.500 137.100 290.400 137.000 290.400 H 134.100 Z" stroke="rgb(0,0,255)" stroke-width="0.20" />
  <path d="M 146.100 290.400 H 143.200 C 143.100 290.400 143.200 290.500 143.200 290.400 V 287.600 C 143.200 287.500 143.100 287.600 143.200 287.600 H 149.000 C 149.100 287.600 149.000 287.500 149.000 287.600 V 290.400 C 149.000 290.500 149.100 290.400 149.000 290.400 H 146.100 Z" stroke="rgb(0,0,255)" stroke-width="0.20" />
  <path d="M 158.100 290.400 H 155.200 C 155.100 290.400 155.200 290.500 155.200 290.400 V 287.600 C 155.200 287.500 155.100 287.600 155.200 287.600 H 161.000 C 161.100 287.600 161.000 287.500 161.000 287.600 V 290.400 C 161.000 290.500 161.100 290.400 161.000 290.400 H 158.100 Z" stroke="rgb(0,0,255)" stroke-width="0.20" />
  <path d="M 170.100 290.400 H 167.200 C 167.100 290.400 167.200 290.500 167.200 290.400 V 287.600 C 167.200 287.500 167.100 287.600 167.200 287.600 H 173.000 C 173.100 287.600 173.000 287.500 173.000 287.600 V 290.400 C 173.000 290.500 173.100 290.400 173.000 290.400 H 170.100 Z" stroke="rgb(0,0,255)" stroke-width="0.20" />
  <path d="M 182.100 290.400 H 179.200 C 179.100 290.400 179.200 290.500 179.200 290.400 V 287.600 C 179.200 287.500 179.100 287.600 179.200 287.600 H 185.000 C 185.100 287.600 185.000 287.500 185.000 287.600 V 290.400 C 185.000 290.500 185.100 290.400 185.000 290.400 H 182.100 Z" stroke="rgb(0,0,255)" stroke-width="0.20" />
  <path d="M 194.100 290.400 H 191.200 C 191.100 290.400 191.200 290.500 191.200 290.400 V 287.600 C 191.200 287.500 191.100 287.600 191.200 287.600 H 197.000 C 197.100 287.600 197.000 287.500 197.000 287.600 V 290.400 C 197.000 290.500 197.100 290.400 197.000 290.400 H 194.100 Z" stroke="rgb(0,0,255)" stroke-width="0.20" />
  <text dominant-baseline="hanging" font-size="4px" style="font-family: sans-serif ; font-weight: normal; font-style: normal; fill: rgb(255,0,0)" text-anchor="middle" transform="matrix( 1.000 0.000 0.000 1.000 110.100 241.600 )">front</text><path d="M 13.100 293.600 H 207.100 H 210.100 C 210.155 293.600 210.200 293.555 210.200 293.500 V 282.500 C 210.200 282.445 210.155 282.400 210.100 282.400 H 207.200 C 207.100 282.400 207.200 282.500 207.200 282.400 V 276.600 C 207.200 276.500 207.100 276.600 207.200 276.600 H 210.100 C 210.155 276.600 210.200 276.555 210.200 276.500 V 270.500 C 210.200 270.445 210.155 270.400 210.100 270.400 H 207.200 C 207.100 270.400 207.200 270.500 207.200 270.400 V 264.600 C 207.200 264.500 207.100 264.600 207.200 264.600 H 210.100 C 210.155 264.600 210.200 264.555 210.200 264.500 V 258.500 C 210.200 258.445 210.155 258.400 210.100 258.400 H 207.200 C 207.100 258.400 207.200 258.500 207.200 258.400 V 252.600 C 207.200 252.500 207.100 252.600 207.200 252.600 H 210.100 C 210.155 252.600 210.200 252.555 210.200 252.500 V 246.500 C 210.200 246.445 210.155 246.400 210.100 246.400 H 207.200 C 207.100 246.400 207.200 246.500 207.200 246.400 V 240.600 C 207.200 240.500 207.100 240.600 207.200 240.600 H 210.100 C 210.155 240.600 210.200 240.555 210.200 240.500 V 234.500 C 210.200 234.445 210.155 234.400 210.100 234.400 H 207.200 C 207.100 234.400 207.200 234.500 207.200 234.400 V 228.600 C 207.200 228.500 207.100 228.600 207.200 228.600 H 210.100 C 210.155 228.600 210.200 228.555 210.200 228.500 V 222.500 C 210.200 222.445 210.155 222.400 210.100 222.400 H 207.200 C 207.100 222.400 207.200 222.500 207.200 222.400 V 216.600 C 207.200 216.500 207.100 216.600 207.200 216.600 H 210.100 C 210.155 216.600 210.200 216.555 210.200 216.500 V 210.500 C 210.200 210.445 210.155 210.400 210.100 210.400 H 207.200 C 207.100 210.400 207.200 210.500 207.200 210.400 V 204.600 C 207.200 204.500 207.100 204.600 207.200 204.600 H 210.100 C 210.155 204.600 210.200 204.555 210.200 204.500 V 193.500 C 210.200 193.445 210.155 193.400 210.100 193.400 H 207.100 H 13.100 H 10.100 C 10.045 193.400 10.000 193.445 10.000 193.500 V 204.500 C 10.000 204.555 10.045 204.600 10.100 204.600 H 13.000 C 13.100 204.600 13.000 204.500 13.000 204.600 V 210.400 C 13.000 210.500 13.100 210.400 13.000 210.400 H 10.100 C 10.045 210.400 10.000 210.445 10.000 210.500 V 216.500 C 10.000 216.555 10.045 216.600 10.100 216.600 H 13.000 C 13.100 216.600 13.000 216.500 13.000 216.600 V 222.400 C 13.000 222.500 13.100 222.400 13.000 222.400 H 10.100 C 10.045 222.400 10.000 222.445 10.000 222.500 V 228.500 C 10.000 228.555 10.045 228.600 10.100 228.600 H 13.000 C 13.100 228.600 13.000 228.500 13.000 228.600 V 234.400 C 13.000 234.500 13.100 234.400 13.000 234.400 H 10.100 C 10.045 234.400 10.000 234.445 10.000 234.500 V 240.500 C 10.000 240.555 10.045 240.600 10.100 240.600 H 13.000 C 13.100 240.600 13.000 240.500 13.000 240.600 V 246.400 C 13.000 246.500 13.100 246.400 13.000 246.400 H 10.100 C 10.045 246.400 10.000 246.445 10.000 246.500 V 252.500 C 10.000 252.555 10.045 252.600 10.100 252.600 H 13.000 C 13.100 252.600 13.000 252.500 13.000 252.600 V 258.400 C 13.000 258.500 13.100 258.400 13.000 258.400 H 10.100 C 10.045 258.400 10.000 258.445 10.000 258.500 V 264.500 C 10.000 264.555 10.045 264.600 10.100 264.600 H 13.000 C 13.100 264.600 13.000 264.500 13.000 264.600 V 270.400 C 13.000 270.500 13.100 270.400 13.000 270.400 H 10.100 C 10.045 270.400 10.000 270.445 10.000 270.500 V 276.500 C 10.000 276.555 10.045 276.600 10.100 276.600 H 13.000 C 13.100 276.600 13.000 276.500 13.000 276.600 V 282.400 C 13.000 282.500 13.100 282.400 13.000 282.400 H 10.100 C 10.045 282.400 10.000 282.445 10.000 282.500 V 293.500 C 10.000 293.555 10.045 293.600 10.100 293.600 H 13.100" stroke="rgb(0,0,0)" stroke-width="0.20" />
</g>
<g id="p-2" style="fill:none;stroke-linecap:round;stroke-linejoin:round;">
  <path d="M 26.100 188.700 H 23.200 C 23.100 188.700 23.200 188.800 23.200 188.700 V 185.900 C 23.200 185.800 23.100 185.900 23.200 185.900 H 29.000 C 29.100 185.900 29.000 185.800 29.000 185.900 V 188.700 C 29.000 188.800 29.100 188.700 29.000 188.700 H 26.100 Z" stroke="rgb(0,0,255)" stroke-width="0.20" />
  <path d="M 38.100 188.700 H 35.200 C 35.100 188.700 35.200 188.800 35.200 188.700 V 185.900 C 35.200 185.800 35.100 185.900 35.200 185.900 H 41.000 C 41.100 185.900 41.000 185.800 41.000 185.900 V 188.700 C 41.000 188.800 41.100 188.700 41.000 188.700 H 38.100 Z" stroke="rgb(0,0,255)" stroke-width="0.20" />
  <path d="M 50.100 188.700 H 47.200 C 47.100 188.700 47.200 188.800 47.200 188.700 V 185.900 C 47.200 185.800 47.100 185.900 47.200 185.900 H 53.000 C 53.100 185.900 53.000 185.800 53.000 185.900 V 188.700 C 53.000 188.800 53.100 188.700 53.000 188.700 H 50.100 Z" stroke="rgb(0,0,255)" stroke-width="0.20" />
  <path d="M 62.100 188.700 H 59.200 C 59.100 188.700 59.200 188.800 59.200 188.700 V 185.900 C 59.200 185.800 59.100 185.900 59.200 185.900 H 65.000 C 65.100 185.900 65.000 185.800 65.000 185.900 V 188.700 C 65.000 188.800 65.100 188.700 65.000 188.700 H 62.100 Z" stroke="rgb(0,0,255)" stroke-width="0.20" />
  <path d="M 74.100 188.700 H 71.200 C 71.100 188.700 71.200 188.800 71.200 188.700 V 185.900 C 71.200 185.800 71.100 185.900 71.200 185.900 H 77.000 C 77.100 185.900 77.000 185.800 77.000 185.900 V 188.700 C 77.000 188.800 77.100 188.700 77.000 188.700 H 74.100 Z" stroke="rgb(0,0,255)" stroke-width="0.20" />
  <path d="M 86.100 188.700 H 83.200 C 83.100 188.700 83.200 188.800 83.200 188.700 V 185.900 C 83.200 185.800 83.100 185.900 83.200 185.900 H 89.000 C 89.100 185.900 89.000 185.800 89.000 185.900 V 188.700 C 89.000 188.800 89.100 188.700 89.000 188.700 H 86.100 Z" stroke="rgb(0,0,255)" stroke-width="0.20" />
  <path d="M 98.100 188.700 H 95.200 C 95.100 188.700 95.200 188.800 95.200 188.700 V 185.900 C 95.200 185.800 95.100 185.900 95.200 185.900 H 101.000 C 101.100 185.900 101.000 185.800 101.000 185.900 V 188.700 C 101.000 188.800 101.100 188.700 101.000 188.700 H 98.100 Z" stroke="rgb(0,0,255)" stroke-width="0.20" />
  <path d="M 110.100 188.700 H 107.200 C 107.100 188.700 107.200 188.800 107.200 188.700 V 185.900 C 107.200 185.800 107.100 185.900 107.200 185.900 H 113.000 C 113.100 185.900 113.000 185.800 113.000 185.900 V 188.700 C 113.000 188.800 113.100 188.700 113.000 188.700 H 110.100 Z" stroke="rgb(0,0,255)" stroke-width="0.20" />
  <path d="M 122.100 188.700 H 119.200 C 119.100 188.700 119.200 188.800 119.200 188.700 V 185.900 C 119.200 185.800 119.100 185.900 119.200 185.900 H 125.000 C 125.100 185.900 125.000 185.800 125.000 185.900 V 188.700 C 125.000 188.800 125.100 188.700 125.000 188.700 H 122.100 Z" stroke="rgb(0,0,255)" stroke-width="0.20" />
  <path d="M 134.100 188.700 H 131.200 C 131.100 188.700 131.200 188.800 131.200 188.700 V 185.900 C 131.200 185.800 131.100 185.900 131.200 185.900 H 137.000 C 137.100 185.900 137.000 185.800 137.000 185.900 V 188.700 C 137.000 188.800 137.100 188.700 137.000 188.700 H 134.100 Z" stroke="rgb(0,0,255)" stroke-width="0.20" />
  <path d="M 146.100 188.700 H 143.200 C 143.100 188.700 143.200 188.800 143.200 188.700 V 185.900 C 143.200 185.800 143.100 185.900 143.200 185.900 H 149.000 C 149.100 185.900 149.000 185.800 149.000 185.900 V 188.700 C 149.000 188.800 149.100 188.700 149.000 188.700 H 146.100 Z" stroke="rgb(0,0,255)" stroke-width="0.20" />
  <path d="M 158.100 188.700 H 155.200 C 155.100 188.700 155.200 188.800 155.200 188.700 V 185.900 C 155.200 185.800 155.100 185.900 155.200 185.900 H 161.000 C 161.100 185.900 161.000 185.800 161.000 185.900 V 188.700 C 161.000 188.800 161.100 188.700 161.000 188.700 H 158.100 Z" stroke="rgb(0,0,255)" stroke-width="0.20" />
  <path d="M 170.100 188.700 H 167.200 C 167.100 188.700 167.200 188.800 167.200 188.700 V 185.900 C 167.200 185.800 167.100 185.900 167.200 185.900 H 173.000 C 173.100 185.900 173.000 185.800 173.000 185.900 V 188.700 C 173.000 188.800 173.100 188.700 173.000 188.700 H 170.100 Z" stroke="rgb(0,0,255)" stroke-width="0.20" />
  <path d="M 182.100 188.700 H 179.200 C 179.100 188.700 179.200 188.800 179.200 188.700 V 185.900 C 179.200 185.800 179.100 185.900 179.200 185.900 H 185.000 C 185.100 185.900 185.000 185.800 185.000 185.900 V 188.700 C 185.000 188.800 185.100 188.700 185.000 188.700 H 182.100 Z" stroke="rgb(0,0,255)" stroke-width="0.20" />
  <path d="M 194.100 188.700 H 191.200 C 191.100 188.700 191.200 188.800 191.200 188.700 V 185.900 C 191.200 185.800 191.100 185.900 191.200 185.900 H 197.000 C 197.100 185.900 197.000 185.800 197.000 185.900 V 188.700 C 197.000 188.800 197.100 188.700 197.000 188.700 H 194.100 Z" stroke="rgb(0,0,255)" stroke-width="0.20" />
  <text dominant-baseline="hanging" font-size="4px" style="font-family: sans-serif ; font-weight: normal; font-style: normal; fill: rgb(255,0,0)" text-anchor="middle" transform="matrix( 1.000 0.000 0.000 1.000 110.100 139.900 )">back</text><path d="M 13.100 191.900 H 207.100 H 210.100 C 210.155 191.900 210.200 191.855 210.200 191.800 V 180.800 C 210.200 180.745 210.155 180.700 210.100 180.700 H 207.200 C 207.100 180.700 207.200 180.800 207.200 180.700 V 174.900 C 207.200 174.800 207.100 174.900 207.200 174.900 H 210.100 C 210.155 174.900 210.200 174.855 210.200 174.800 V 168.800 C 210.200 168.745 210.155 168.700 210.100 168.700 H 207.200 C 207.100 168.700 207.200 168.800 207.200 168.700 V 162.900 C 207.200 162.800 207.100 162.900 207.200 162.900 H 210.100 C 210.155 162.900 210.200 162.855 210.200 162.800 V 156.800 C 210.200 156.745 210.155 156.700 210.100 156.700 H 207.200 C 207.100 156.700 207.200 156.800 207.200 156.700 V 150.900 C 207.200 150.800 207.100 150.900 207.200 150.900 H 210.100 C 210.155 150.900 210.200 150.855 210.200 150.800 V 144.800 C 210.200 144.745 210.155 144.700 210.100 144.700 H 207.200 C 207.100 144.700 207.200 144.800 207.200 144.700 V 138.900 C 207.200 138.800 207.100 138.900 207.200 138.900 H 210.100 C 210.155 138.900 210.200 138.855 210.200 138.800 V 132.800 C 210.200 132.745 210.155 132.700 210.100 132.700 H 207.200 C 207.100 132.700 207.200 132.800 207.200 132.700 V 126.900 C 207.200 126.800 207.100 126.900 207.200 126.900 H 210.100 C 210.155 126.900 210.200 126.855 210.200 126.800 V 120.800 C 210.200 120.745 210.155 120.700 210.100 120.700 H 207.200 C 207.100 120.700 207.200 120.800 207.200 120.700 V 114.900 C 207.200 114.800 207.100 114.900 207.200 114.900 H 210.100 C 210.155 114.900 210.200 114.855 210.200 114.800 V 108.800 C 210.200 108.745 210.155 108.700 210.100 108.700 H 207.200 C 207.100 108.700 207.200 108.800 207.200 108.700 V 102.900 C 207.200 102.800 207.100 102.900 207.200 102.900 H 210.100 C 210.155 102.900 210.200 102.855 210.200 102.800 V 91.800 C 210.200 91.745 210.155 91.700 210.100 91.700 H 207.100 H 13.100 H 10.100 C 10.045 91.700 10.000 91.745 10.000 91.800 V 102.800 C 10.000 102.855 10.045 102.900 10.100 102.900 H 13.000 C 13.100 102.900 13.000 102.800 13.000 102.900 V 108.700 C 13.000 108.800 13.100 108.700 13.000 108.700 H 10.100 C 10.045 108.700 10.000 108.745 10.000 108.800 V 114.800 C 10.000 114.855 10.045 114.900 10.100 114.900 H 13.000 C 13.100 114.900 13.000 114.800 13.000 114.900 V 120.700 C 13.000 120.800 13.100 120.700 13.000 120.700 H 10.100 C 10.045 120.700 10.000 120.745 10.000 120.800 V 126.800 C 10.000 126.855 10.045 126.900 10.100 126.900 H 13.000 C 13.100 126.900 13.000 126.800 13.000 126.900 V 132.700 C 13.000 132.800 13.100 132.700 13.000 132.700 H 10.100 C 10.045 132.700 10.000 132.745 10.000 132.800 V 138.800 C 10.000 138.855 10.045 138.900 10.100 138.900 H 13.000 C 13.100 138.900 13.000 138.800 13.000 138.900 V 144.700 C 13.000 144.800 13.100 144.700 13.000 144.700 H 10.100 C 10.045 144.700 10.000 144.745 10.000 144.800 V 150.800 C 10.000 150.855 10.045 150.900 10.100 150.900 H 13.000 C 13.100 150.900 13.000 150.800 13.000 150.900 V 156.700 C 13.000 156.800 13.100 156.700 13.000 156.700 H 10.100 C 10.045 156.700 10.000 156.745 10.000 156.800 V 162.800 C 10.000 162.855 10.045 162.900 10.100 162.900 H 13.000 C 13.100 162.900 13.000 162.800 13.000 162.900 V 168.700 C 13.000 168.800 13.100 168.700 13.000 168.700 H 10.100 C 10.045 168.700 10.000 168.745 10.000 168.800 V 174.800 C 10.000 174.855 10.045 174.900 10.100 174.900 H 13.000 C 13.100 174.900 13.000 174.800 13.000 174.900 V 180.700 C 13.000 180.800 13.100 180.700 13.000 180.700 H 10.100 C 10.045 180.700 10.000 180.745 10.000 180.800 V 191.800 C 10.000 191.855 10.045 191.900 10.100 191.900 H 13.100" stroke="rgb(0,0,0)" stroke-width="0.20" />
</g>
<g id="p-3" style="fill:none;stroke-linecap:round;stroke-linejoin:round;">
  <text dominant-baseline="hanging" font-size="4px" style="font-family: sans-serif ; font-weight: normal; font-style: normal; fill: rgb(255,0,0)" text-anchor="middle" transform="matrix( 1.000 0.000 0.000 1.000 110.100 48.200 )">bottom</text><path d="M 13.100 87.200 H 23.000 C 23.100 87.200 23.000 87.100 23.000 87.200 V 90.100 C 23.000 90.155 23.045 90.200 23.100 90.200 H 29.100 C 29.155 90.200 29.200 90.155 29.200 90.100 V 87.200 C 29.200 87.100 29.100 87.200 29.200 87.200 H 35.000 C 35.100 87.200 35.000 87.100 35.000 87.200 V 90.100 C 35.000 90.155 35.045 90.200 35.100 90.200 H 41.100 C 41.155 90.200 41.200 90.155 41.200 90.100 V 87.200 C 41.200 87.100 41.100 87.200 41.200 87.200 H 47.000 C 47.100 87.200 47.000 87.100 47.000 87.200 V 90.100 C 47.000 90.155 47.045 90.200 47.100 90.200 H 53.100 C 53.155 90.200 53.200 90.155 53.200 90.100 V 87.200 C 53.200 87.100 53.100 87.200 53.200 87.200 H 59.000 C 59.100 87.200 59.000 87.100 59.000 87.200 V 90.100 C 59.000 90.155 59.045 90.200 59.100 90.200 H 65.100 C 65.155 90.200 65.200 90.155 65.200 90.100 V 87.200 C 65.200 87.100 65.100 87.200 65.200 87.200 H 71.000 C 71.100 87.200 71.000 87.100 71.000 87.200 V 90.100 C 71.000 90.155 71.045 90.200 71.100 90.200 H 77.100 C 77.155 90.200 77.200 90.155 77.200 90.100 V 87.200 C 77.200 87.100 77.100 87.200 77.200 87.200 H 83.000 C 83.100 87.200 83.000 87.100 83.000 87.200 V 90.100 C 83.000 90.155 83.045 90.200 83.100 90.200 H 89.100 C 89.155 90.200 89.200 90.155 89.200 90.100 V 87.200 C 89.200 87.100 89.100 87.200 89.200 87.200 H 95.000 C 95.100 87.200 95.000 87.100 95.000 87.200 V 90.100 C 95.000 90.155 95.045 90.200 95.100 90.200 H 101.100 C 101.155 90.200 101.200 90.155 101.200 90.100 V 87.200 C 101.200 87.100 101.100 87.200 101.200 87.200 H 107.000 C 107.100 87.200 107.000 87.100 107.000 87.200 V 90.100 C 107.000 90.155 107.045 90.200 107.100 90.200 H 113.100 C 113.155 90.200 113.200 90.155 113.200 90.100 V 87.200 C 113.200 87.100 113.100 87.200 113.200 87.200 H 119.000 C 119.100 87.200 119.000 87.100 119.000 87.200 V 90.100 C 119.000 90.155 119.045 90.200 119.100 90.200 H 125.100 C 125.155 90.200 125.200 90.155 125.200 90.100 V 87.200 C 125.200 87.100 125.100 87.200 125.200 87.200 H 131.000 C 131.100 87.200 131.000 87.100 131.000 87.200 V 90.100 C 131.000 90.155 131.045 90.200 131.100 90.200 H 137.100 C 137.155 90.200 137.200 90.155 137.200 90.100 V 87.200 C 137.200 87.100 137.100 87.200 137.200 87.200 H 143.000 C 143.100 87.200 143.000 87.100 143.000 87.200 V 90.100 C 143.000 90.155 143.045 90.200 143.100 90.200 H 149.100 C 149.155 90.200 149.200 90.155 149.200 90.100 V 87.200 C 149.200 87.100 149.100 87.200 149.200 87.200 H 155.000 C 155.100 87.200 155.000 87.100 155.000 87.200 V 90.100 C 155.000 90.155 155.045 90.200 155.100 90.200 H 161.100 C 161.155 90.200 161.200 90.155 161.200 90.100 V 87.200 C 161.200 87.100 161.100 87.200 161.200 87.200 H 167.000 C 167.100 87.200 167.000 87.100 167.000 87.200 V 90.100 C 167.000 90.155 167.045 90.200 167.100 90.200 H 173.100 C 173.155 90.200 173.200 90.155 173.200 90.100 V 87.200 C 173.200 87.100 173.100 87.200 173.200 87.200 H 179.000 C 179.100 87.200 179.000 87.100 179.000 87.200 V 90.100 C 179.000 90.155 179.045 90.200 179.100 90.200 H 185.100 C 185.155 90.200 185.200 90.155 185.200 90.100 V 87.200 C 185.200 87.100 185.100 87.200 185.200 87.200 H 191.000 C 191.100 87.200 191.000 87.100 191.000 87.200 V 90.100 C 191.000 90.155 191.045 90.200 191.100 90.200 H 197.100 C 197.155 90.200 197.200 90.155 197.200 90.100 V 87.200 C 197.200 87.100 197.100 87.200 197.200 87.200 H 207.100 C 207.155 87.200 207.200 87.155 207.200 87.100 V 77.200 C 207.200 77.100 207.100 77.200 207.200 77.200 H 210.100 C 210.155 77.200 210.200 77.155 210.200 77.100 V 71.100 C 210.200 71.045 210.155 71.000 210.100 71.000 H 207.200 C 207.100 71.000 207.200 71.100 207.200 71.000 V 65.200 C 207.200 65.100 207.100 65.200 207.200 65.200 H 210.100 C 210.155 65.200 210.200 65.155 210.200 65.100 V 59.100 C 210.200 59.045 210.155 59.000 210.100 59.000 H 207.200 C 207.100 59.000 207.200 59.100 207.200 59.000 V 53.200 C 207.200 53.100 207.100 53.200 207.200 53.200 H 210.100 C 210.155 53.200 210.200 53.155 210.200 53.100 V 47.100 C 210.200 47.045 210.155 47.000 210.100 47.000 H 207.200 C 207.100 47.000 207.200 47.100 207.200 47.000 V 41.200 C 207.200 41.100 207.100 41.200 207.200 41.200 H 210.100 C 210.155 41.200 210.200 41.155 210.200 41.100 V 35.100 C 210.200 35.045 210.155 35.000 210.100 35.000 H 207.200 C 207.100 35.000 207.200 35.100 207.200 35.000 V 29.200 C 207.200 29.100 207.100 29.200 207.200 29.200 H 210.100 C 210.155 29.200 210.200 29.155 210.200 29.100 V 23.100 C 210.200 23.045 210.155 23.000 210.100 23.000 H 207.200 C 207.100 23.000 207.200 23.100 207.200 23.000 V 13.100 C 207.200 13.045 207.155 13.000 207.100 13.000 H 197.200 C 197.100 13.000 197.200 13.100 197.200 13.000 V 10.100 C 197.200 10.045 197.155 10.000 197.100 10.000 H 191.100 C 191.045 10.000 191.000 10.045 191.000 10.100 V 13.000 C 191.000 13.100 191.100 13.000 191.000 13.000 H 185.200 C 185.100 13.000 185.200 13.100 185.200 13.000 V 10.100 C 185.200 10.045 185.155 10.000 185.100 10.000 H 179.100 C 179.045 10.000 179.000 10.045 179.000 10.100 V 13.000 C 179.000 13.100 179.100 13.000 179.000 13.000 H 173.200 C 173.100 13.000 173.200 13.100 173.200 13.000 V 10.100 C 173.200 10.045 173.155 10.000 173.100 10.000 H 167.100 C 167.045 10.000 167.000 10.045 167.000 10.100 V 13.000 C 167.000 13.100 167.100 13.000 167.000 13.000 H 161.200 C 161.100 13.000 161.200 13.100 161.200 13.000 V 10.100 C 161.200 10.045 161.155 10.000 161.100 10.000 H 155.100 C 155.045 10.000 155.000 10.045 155.000 10.100 V 13.000 C 155.000 13.100 155.100 13.000 155.000 13.000 H 149.200 C 149.100 13.000 149.200 13.100 149.200 13.000 V 10.100 C 149.200 10.045 149.155 10.000 149.100 10.000 H 143.100 C 143.045 10.000 143.000 10.045 143.000 10.100 V 13.000 C 143.000 13.100 143.100 13.000 143.000 13.000 H 137.200 C 137.100 13.000 137.200 13.100 137.200 13.000 V 10.100 C 137.200 10.045 137.155 10.000 137.100 10.000 H 131.100 C 131.045 10.000 131.000 10.045 131.000 10.100 V 13.000 C 131.000 13.100 131.100 13.000 131.000 13.000 H 125.200 C 125.100 13.000 125.200 13.100 125.200 13.000 V 10.100 C 125.200 10.045 125.155 10.000 125.100 10.000 H 119.100 C 119.045 10.000 119.000 10.045 119.000 10.100 V 13.000 C 119.000 13.100 119.100 13.000 119.000 13.000 H 113.200 C 113.100 13.000 113.200 13.100 113.200 13.000 V 10.100 C 113.200 10.045 113.155 10.000 113.100 10.000 H 107.100 C 107.045 10.000 107.000 10.045 107.000 10.100 V 13.000 C 107.000 13.100 107.100 13.000 107.000 13.000 H 101.200 C 101.100 13.000 101.200 13.100 101.200 13.000 V 10.100 C 101.200 10.045 101.155 10.000 101.100 10.000 H 95.100 C 95.045 10.000 95.000 10.045 95.000 10.100 V 13.000 C 95.000 13.100 95.100 13.000 95.000 13.000 H 89.200 C 89.100 13.000 89.200 13.100 89.200 13.000 V 10.100 C 89.200 10.045 89.155 10.000 89.100 10.000 H 83.100 C 83.045 10.000 83.000 10.045 83.000 10.100 V 13.000 C 83.000 13.100 83.100 13.000 83.000 13.000 H 77.200 C 77.100 13.000 77.200 13.100 77.200 13.000 V 10.100 C 77.200 10.045 77.155 10.000 77.100 10.000 H 71.100 C 71.045 10.000 71.000 10.045 71.000 10.100 V 13.000 C 71.000 13.100 71.100 13.000 71.000 13.000 H 65.200 C 65.100 13.000 65.200 13.100 65.200 13.000 V 10.100 C 65.200 10.045 65.155 10.000 65.100 10.000 H 59.100 C 59.045 10.000 59.000 10.045 59.000 10.100 V 13.000 C 59.000 13.100 59.100 13.000 59.000 13.000 H 53.200 C 53.100 13.000 53.200 13.100 53.200 13.000 V 10.100 C 53.200 10.045 53.155 10.000 53.100 10.000 H 47.100 C 47.045 10.000 47.000 10.045 47.000 10.100 V 13.000 C 47.000 13.100 47.100 13.000 47.000 13.000 H 41.200 C 41.100 13.000 41.200 13.100 41.200 13.000 V 10.100 C 41.200 10.045 41.155 10.000 41.100 10.000 H 35.100 C 35.045 10.000 35.000 10.045 35.000 10.100 V 13.000 C 35.000 13.100 35.100 13.000 35.000 13.000 H 29.200 C 29.100 13.000 29.200 13.100 29.200 13.000 V 10.100 C 29.200 10.045 29.155 10.000 29.100 10.000 H 23.100 C 23.045 10.000 23.000 10.045 23.000 10.100 V 13.000 C 23.000 13.100 23.100 13.000 23.000 13.000 H 13.100 C 13.045 13.000 13.000 13.045 13.000 13.100 V 23.000 C 13.000 23.100 13.100 23.000 13.000 23.000 H 10.100 C 10.045 23.000 10.000 23.045 10.000 23.100 V 29.100 C 10.000 29.155 10.045 29.200 10.100 29.200 H 13.000 C 13.100 29.200 13.000 29.100 13.000 29.200 V 35.000 C 13.000 35.100 13.100 35.000 13.000 35.000 H 10.100 C 10.045 35.000 10.000 35.045 10.000 35.100 V 41.100 C 10.000 41.155 10.045 41.200 10.100 41.200 H 13.000 C 13.100 41.200 13.000 41.100 13.000 41.200 V 47.000 C 13.000 47.100 13.100 47.000 13.000 47.000 H 10.100 C 10.045 47.000 10.000 47.045 10.000 47.100 V 53.100 C 10.000 53.155 10.045 53.200 10.100 53.200 H 13.000 C 13.100 53.200 13.000 53.100 13.000 53.200 V 59.000 C 13.000 59.100 13.100 59.000 13.000 59.000 H 10.100 C 10.045 59.000 10.000 59.045 10.000 59.100 V 65.100 C 10.000 65.155 10.045 65.200 10.100 65.200 H 13.000 C 13.100 65.200 13.000 65.100 13.000 65.200 V 71.000 C 13.000 71.100 13.100 71.000 13.000 71.000 H 10.100 C 10.045 71.000 10.000 71.045 10.000 71.100 V 77.100 C 10.000 77.155 10.045 77.200 10.100 77.200 H 13.000 C 13.100 77.200 13.000 77.100 13.000 77.200 V 87.100 C 13.000 87.155 13.045 87.200 13.100 87.200" stroke="rgb(0,0,0)" stroke-width="0.20" />
</g>
<g id="p-4" style="fill:none;stroke-linecap:round;stroke-linejoin:round;">
  <path d="M 227.800 290.400 H 224.900 C 224.800 290.400 224.900 290.500 224.900 290.400 V 287.600 C 224.900 287.500 224.800 287.600 224.900 287.600 H 230.700 C 230.800 287.600 230.700 287.500 230.700 287.600 V 290.400 C 230.700 290.500 230.800 290.400 230.700 290.400 H 227.800 Z" stroke="rgb(0,0,255)" stroke-width="0.20" />
  <path d="M 239.800 290.400 H 236.900 C 236.800 290.400 236.900 290.500 236.900 290.400 V 287.600 C 236.900 287.500 236.800 287.600 236.900 287.600 H 242.700 C 242.800 287.600 242.700 287.500 242.700 287.600 V 290.400 C 242.700 290.500 242.800 290.400 242.700 290.400 H 239.800 Z" stroke="rgb(0,0,255)" stroke-width="0.20" />
  <path d="M 251.800 290.400 H 248.900 C 248.800 290.400 248.900 290.500 248.900 290.400 V 287.600 C 248.900 287.500 248.800 287.600 248.900 287.600 H 254.700 C 254.800 287.600 254.700 287.500 254.700 287.600 V 290.400 C 254.700 290.500 254.800 290.400 254.700 290.400 H 251.800 Z" stroke="rgb(0,0,255)" stroke-width="0.20" />
  <path d="M 263.800 290.400 H 260.900 C 260.800 290.400 260.900 290.500 260.900 290.400 V 287.600 C 260.900 287.500 260.800 287.600 260.900 287.600 H 266.700 C 266.800 287.600 266.700 287.500 266.700 287.600 V 290.400 C 266.700 290.500 266.800 290.400 266.700 290.400 H 263.800 Z" stroke="rgb(0,0,255)" stroke-width="0.20" />
  <path d="M 275.800 290.400 H 272.900 C 272.800 290.400 272.900 290.500 272.900 290.400 V 287.600 C 272.900 287.500 272.800 287.600 272.900 287.600 H 278.700 C 278.800 287.600 278.700 287.500 278.700 287.600 V 290.400 C 278.700 290.500 278.800 290.400 278.700 290.400 H 275.800 Z" stroke="rgb(0,0,255)" stroke-width="0.20" />
  <text dominant-baseline="hanging" font-size="4px" style="font-family: sans-serif ; font-weight: normal; font-style: normal; fill: rgb(255,0,0)" text-anchor="middle" transform="matrix( 1.000 0.000 0.000 1.000 251.800 241.600 )">left</text><path d="M 214.800 293.600 H 288.800 C 288.855 293.600 288.900 293.555 288.900 293.500 V 282.600 C 288.900 282.500 288.800 282.600 288.900 282.600 H 291.800 C 291.855 282.600 291.900 282.555 291.900 282.500 V 276.500 C 291.900 276.445 291.855 276.400 291.800 276.400 H 288.900 C 288.800 276.400 288.900 276.500 288.900 276.400 V 270.600 C 288.900 270.500 288.800 270.600 288.900 270.600 H 291.800 C 291.855 270.600 291.900 270.555 291.900 270.500 V 264.500 C 291.900 264.445 291.855 264.400 291.800 264.400 H 288.900 C 288.800 264.400 288.900 264.500 288.900 264.400 V 258.600 C 288.900 258.500 288.800 258.600 288.900 258.600 H 291.800 C 291.855 258.600 291.900 258.555 291.900 258.500 V 252.500 C 291.900 252.445 291.855 252.400 291.800 252.400 H 288.900 C 288.800 252.400 288.900 252.500 288.900 252.400 V 246.600 C 288.900 246.500 288.800 246.600 288.900 246.600 H 291.800 C 291.855 246.600 291.900 246.555 291.900 246.500 V 240.500 C 291.900 240.445 291.855 240.400 291.800 240.400 H 288.900 C 288.800 240.400 288.900 240.500 288.900 240.400 V 234.600 C 288.900 234.500 288.800 234.600 288.900 234.600 H 291.800 C 291.855 234.600 291.900 234.555 291.900 234.500 V 228.500 C 291.900 228.445 291.855 228.400 291.800 228.400 H 288.900 C 288.800 228.400 288.900 228.500 288.900 228.400 V 222.600 C 288.900 222.500 288.800 222.600 288.900 222.600 H 291.800 C 291.855 222.600 291.900 222.555 291.900 222.500 V 216.500 C 291.900 216.445 291.855 216.400 291.800 216.400 H 288.900 C 288.800 216.400 288.900 216.500 288.900 216.400 V 210.600 C 288.900 210.500 288.800 210.600 288.900 210.600 H 291.800 C 291.855 210.600 291.900 210.555 291.900 210.500 V 204.500 C 291.900 204.445 291.855 204.400 291.800 204.400 H 288.900 C 288.800 204.400 288.900 204.500 288.900 204.400 V 193.500 C 288.900 193.445 288.855 193.400 288.800 193.400 H 214.800 C 214.745 193.400 214.700 193.445 214.700 193.500 V 204.400 C 214.700 204.500 214.800 204.400 214.700 204.400 H 211.800 C 211.745 204.400 211.700 204.445 211.700 204.500 V 210.500 C 211.700 210.555 211.745 210.600 211.800 210.600 H 214.700 C 214.800 210.600 214.700 210.500 214.700 210.600 V 216.400 C 214.700 216.500 214.800 216.400 214.700 216.400 H 211.800 C 211.745 216.400 211.700 216.445 211.700 216.500 V 222.500 C 211.700 222.555 211.745 222.600 211.800 222.600 H 214.700 C 214.800 222.600 214.700 222.500 214.700 222.600 V 228.400 C 214.700 228.500 214.800 228.400 214.700 228.400 H 211.800 C 211.745 228.400 211.700 228.445 211.700 228.500 V 234.500 C 211.700 234.555 211.745 234.600 211.800 234.600 H 214.700 C 214.800 234.600 214.700 234.500 214.700 234.600 V 240.400 C 214.700 240.500 214.800 240.400 214.700 240.400 H 211.800 C 211.745 240.400 211.700 240.445 211.700 240.500 V 246.500 C 211.700 246.555 211.745 246.600 211.800 246.600 H 214.700 C 214.800 246.600 214.700 246.500 214.700 246.600 V 252.400 C 214.700 252.500 214.800 252.400 214.700 252.400 H 211.800 C 211.745 252.400 211.700 252.445 211.700 252.500 V 258.500 C 211.700 258.555 211.745 258.600 211.800 258.600 H 214.700 C 214.800 258.600 214.700 258.500 214.700 258.600 V 264.400 C 214.700 264.500 214.800 264.400 214.700 264.400 H 211.800 C 211.745 264.400 211.700 264.445 211.700 264.500 V 270.500 C 211.700 270.555 211.745 270.600 211.800 270.600 H 214.700 C 214.800 270.600 214.700 270.500 214.700 270.600 V 276.400 C 214.700 276.500 214.800 276.400 214.700 276.400 H 211.800 C 211.745 276.400 211.700 276.445 211.700 276.500 V 282.500 C 211.700 282.555 211.745 282.600 211.800 282.600 H 214.700 C 214.800 282.600 214.700 282.500 214.700 282.600 V 293.500 C 214.700 293.555 214.745 293.600 214.800 293.600" stroke="rgb(0,0,0)" stroke-width="0.20" />
</g>
<g id="p-5" style="fill:none;stroke-linecap:round;stroke-linejoin:round;">
  <path d="M 227.800 188.700 H 224.900 C 224.800 188.700 224.900 188.800 224.900 188.700 V 185.900 C 224.900 185.800 224.800 185.900 224.900 185.900 H 230.700 C 230.800 185.900 230.700 185.800 230.700 185.900 V 188.700 C 230.700 188.800 230.800 188.700 230.700 188.700 H 227.800 Z" stroke="rgb(0,0,255)" stroke-width="0.20" />
  <path d="M 239.800 188.700 H 236.900 C 236.800 188.700 236.900 188.800 236.900 188.700 V 185.900 C 236.900 185.800 236.800 185.900 236.900 185.900 H 242.700 C 242.800 185.900 242.700 185.800 242.700 185.900 V 188.700 C 242.700 188.800 242.800 188.700 242.700 188.700 H 239.800 Z" stroke="rgb(0,0,255)" stroke-width="0.20" />
  <path d="M 251.800 188.700 H 248.900 C 248.800 188.700 248.900 188.800 248.900 188.700 V 185.900 C 248.900 185.800 248.800 185.900 248.900 185.900 H 254.700 C 254.800 185.900 254.700 185.800 254.700 185.900 V 188.700 C 254.700 188.800 254.800 188.700 254.700 188.700 H 251.800 Z" stroke="rgb(0,0,255)" stroke-width="0.20" />
  <path d="M 263.800 188.700 H 260.900 C 260.800 188.700 260.900 188.800 260.900 188.700 V 185.900 C 260.900 185.800 260.800 185.900 260.900 185.900 H 266.700 C 266.800 185.900 266.700 185.800 266.700 185.900 V 188.700 C 266.700 188.800 266.800 188.700 266.700 188.700 H 263.800 Z" stroke="rgb(0,0,255)" stroke-width="0.20" />
  <path d="M 275.800 188.700 H 272.900 C 272.800 188.700 272.900 188.800 272.900 188.700 V 185.900 C 272.900 185.800 272.800 185.900 272.900 185.900 H 278.700 C 278.800 185.900 278.700 185.800 278.700 185.900 V 188.700 C 278.700 188.800 278.800 188.700 278.700 188.700 H 275.800 Z" stroke="rgb(0,0,255)" stroke-width="0.20" />
  <text dominant-baseline="hanging" font-size="4px" style="font-family: sans-serif ; font-weight: normal; font-style: normal; fill: rgb(255,0,0)" text-anchor="middle" transform="matrix( 1.000 0.000 0.000 1.000 251.800 139.900 )">right</text><path d="M 214.800 191.900 H 288.800 C 288.855 191.900 288.900 191.855 288.900 191.800 V 180.900 C 288.900 180.800 288.800 180.900 288.900 180.900 H 291.800 C 291.855 180.900 291.900 180.855 291.900 180.800 V 174.800 C 291.900 174.745 291.855 174.700 291.800 174.700 H 288.900 C 288.800 174.700 288.900 174.800 288.900 174.700 V 168.900 C 288.900 168.800 288.800 168.900 288.900 168.900 H 291.800 C 291.855 168.900 291.900 168.855 291.900 168.800 V 162.800 C 291.900 162.745 291.855 162.700 291.800 162.700 H 288.900 C 288.800 162.700 288.900 162.800 288.900 162.700 V 156.900 C 288.900 156.800 288.800 156.900 288.900 156.900 H 291.800 C 291.855 156.900 291.900 156.855 291.900 156.800 V 150.800 C 291.900 150.745 291.855 150.700 291.800 150.700 H 288.900 C 288.800 150.700 288.900 150.800 288.900 150.700 V 144.900 C 288.900 144.800 288.800 144.900 288.900 144.900 H 291.800 C 291.855 144.900 291.900 144.855 291.900 144.800 V 138.800 C 291.900 138.745 291.855 138.700 291.800 138.700 H 288.900 C 288.800 138.700 288.900 138.800 288.900 138.700 V 132.900 C 288.900 132.800 288.800 132.900 288.900 132.900 H 291.800 C 291.855 132.900 291.900 132.855 291.900 132.800 V 126.800 C 291.900 126.745 291.855 126.700 291.800 126.700 H 288.900 C 288.800 126.700 288.900 126.800 288.900 126.700 V 120.900 C 288.900 120.800 288.800 120.900 288.900 120.900 H 291.800 C 291.855 120.900 291.900 120.855 291.900 120.800 V 114.800 C 291.900 114.745 291.855 114.700 291.800 114.700 H 288.900 C 288.800 114.700 288.900 114.800 288.900 114.700 V 108.900 C 288.900 108.800 288.800 108.900 288.900 108.900 H 291.800 C 291.855 108.900 291.900 108.855 291.900 108.800 V 102.800 C 291.900 102.745 291.855 102.700 291.800 102.700 H 288.900 C 288.800 102.700 288.900 102.800 288.900 102.700 V 91.800 C 288.900 91.745 288.855 91.700 288.800 91.700 H 214.800 C 214.745 91.700 214.700 91.745 214.700 91.800 V 102.700 C 214.700 102.800 214.800 102.700 214.700 102.700 H 211.800 C 211.745 102.700 211.700 102.745 211.700 102.800 V 108.800 C 211.700 108.855 211.745 108.900 211.800 108.900 H 214.700 C 214.800 108.900 214.700 108.800 214.700 108.900 V 114.700 C 214.700 114.800 214.800 114.700 214.700 114.700 H 211.800 C 211.745 114.700 211.700 114.745 211.700 114.800 V 120.800 C 211.700 120.855 211.745 120.900 211.800 120.900 H 214.700 C 214.800 120.900 214.700 120.800 214.700 120.900 V 126.700 C 214.700 126.800 214.800 126.700 214.700 126.700 H 211.800 C 211.745 126.700 211.700 126.745 211.700 126.800 V 132.800 C 211.700 132.855 211.745 132.900 211.800 132.900 H 214.700 C 214.800 132.900 214.700 132.800 214.700 132.900 V 138.700 C 214.700 138.800 214.800 138.700 214.700 138.700 H 211.800 C 211.745 138.700 211.700 138.745 211.700 138.800 V 144.800 C 211.700 144.855 211.745 144.900 211.800 144.900 H 214.700 C 214.800 144.900 214.700 144.800 214.700 144.900 V 150.700 C 214.700 150.800 214.800 150.700 214.700 150.700 H 211.800 C 211.745 150.700 211.700 150.745 211.700 150.800 V 156.800 C 211.700 156.855 211.745 156.900 211.800 156.900 H 214.700 C 214.800 156.900 214.700 156.800 214.700 156.900 V 162.700 C 214.700 162.800 214.800 162.700 214.700 162.700 H 211.800 C 211.745 162.700 211.700 162.745 211.700 162.800 V 168.800 C 211.700 168.855 211.745 168.900 211.800 168.900 H 214.700 C 214.800 168.900 214.700 168.800 214.700 168.900 V 174.700 C 214.700 174.800 214.800 174.700 214.700 174.700 H 211.800 C 211.745 174.700 211.700 174.745 211.700 174.800 V 180.800 C 211.700 180.855 211.745 180.900 211.800 180.900 H 214.700 C 214.800 180.900 214.700 180.800 214.700 180.900 V 191.800 C 214.700 191.855 214.745 191.900 214.800 191.900" stroke="rgb(0,0,0)" stroke-width="0.20" />
</g>
</svg>