<?xml version='1.0' encoding='utf-8'?>
<svg height="435.30mm" viewBox="0.0 0.0 321.90 435.30" width="321.90mm" xmlns="http://www.w3.org/2000/svg" xmlns:cc="http://creativecommons.org/ns#" xmlns:dc="http://purl.org/dc/elements/1.1/" xmlns:inkscape="http://www.inkscape.org/namespaces/inkscape" xmlns:rdf="http://www.w3.org/1999/02/22-rdf-syntax-ns#" xmlns:svg="http://www.w3.org/2000/svg" xmlns:xlink="http://www.w3.org/1999/xlink">
<!--
UniversalBox - Box with various options for different styles and lids

Created with Boxes.py (https://boxes.hackerspace-bamberg.de/)
Creation date: 2026-01-04 22:47:36
Command line (remove spaces between dashes): boxes UniversalBox - -x - -h - -output
-->
<title>UniversalBox</title>
<metadata>
<rdf:RDF><cc:Work>
<dc:title>Box - UniversalBox</dc:title>
<dc:date>2026-01-04 22:47:36</dc:date>
<dc:source>boxes UniversalBox --x 200.0 --y 100.0 --h 150.0 --thickness 3.0 --format svg --output 'D:\Programação\Projeto Caixa Criativa\box-api\output\ff763e42-44aa-4fcd-a94a-633dfd208853.svg'</dc:source>
<dc:description>Box with various options for different styles and lids

Created with Boxes.py (https://boxes.hackerspace-bamberg.de/)
Command line: boxes UniversalBox --x 200.0 --y 100.0 --h 150.0 --thickness 3.0 --format svg --output 'D:\Programação\Projeto Caixa Criativa\box-api\output\ff763e42-44aa-4fcd-a94a-633dfd208853.svg'
Command line short: boxes UniversalBox --x --h --output
</dc:description>
</cc:Work></rdf:RDF></metadata>
<g id="p-0" style="fill:none;stroke-linecap:round;stroke-linejoin:round;">
  <path d="M 10.100 425.300 H 110.100 V 415.300 H 10.100 V 425.300 Z" stroke="rgb(0,0,0)" stroke-width="0.20" />
  <text dominant-baseline="hanging" font-size="6px" style="font-family: sans-serif ; font-weight: normal; font-style: normal; fill: rgb(255,0,0)" text-anchor="middle" transform="matrix( 1.000 0.000 0.000 1.000 60.100 417.300 )">100.0mm, burn:0.10mm</text>
</g>
<g id="p-1" style="fill:none;stroke-linecap:round;stroke-linejoin:round;">
  <path d="M 26.100 410.400 H 23.200 C 23.100 410.400 23.200 410.500 23.200 410.400 V 407.600 C 23.200 407.500 23.100 407.600 23.200 407.600 H 29.000 C 29.100 407.600 29.000 407.500 29.000 407.600 V 410.400 C 29.000 410.500 29.100 410.400 29.000 410.400 H 26.100 Z" stroke="rgb(0,0,255)" stroke-width="0.20" />
  <path d="M 38.100 410.400 H 35.200 C 35.100 410.400 35.200 410.500 35.200 410.400 V 407.600 C 35.200 407.500 35.100 407.600 35.200 407.600 H 41.000 C 41.100 407.600 41.000 407.500 41.000 407.600 V 410.400 C 41.000 410.500 41.100 410.400 41.000 410.400 H 38.100 Z" stroke="rgb(0,0,255)" stroke-width="0.20" />
  <path d="M 50.100 410.400 H 47.200 C 47.100 410.400 47.200 410.500 47.200 410.400 V 407.600 C 47.200 407.500 47.100 407.600 47.200 407.600 H 53.000 C 53.100 407.600 53.000 407.500 53.000 407.600 V 410.400 C 53.000 410.500 53.100 410.400 53.000 410.400 H 50.100 Z" stroke="rgb(0,0,255)" stroke-width="0.20" />
  <path d="M 62.100 410.400 H 59.200 C 59.100 410.400 59.200 410.500 59.200 410.400 V 407.600 C 59.200 407.500 59.100 407.600 59.200 407.600 H 65.000 C 65.100 407.600 65.000 407.500 65.000 407.600 V 410.400 C 65.000 410.500 65.100 410.400 65.000 410.400 H 62.100 Z" stroke="rgb(0,0,255)" stroke-width="0.20" />
  <path d="M 74.100 410.400 H 71.200 C 71.100 410.400 71.200 410.500 71.200 410.400 V 407.600 C 71.200 407.500 71.100 407.600 71.200 407.600 H 77.000 C 77.100 407.600 77.000 407.500 77.000 407.600 V 410.400 C 77.000 410.500 77.100 410.400 77.000 410.400 H 74.100 Z" stroke="rgb(0,0,255)" stroke-width="0.20" />
  <path d="M 86.100 410.400 H 83.200 C 83.100 410.400 83.200 410.500 83.200 410.400 V 407.600 C 83.200 407.500 83.100 407.600 83.200 407.600 H 89.000 C 89.100 407.600 89.000 407.500 89.000 407.600 V 410.400 C 89.000 410.500 89.100 410.400 89.000 410.400 H 86.100 Z" stroke="rgb(0,0,255)" stroke-width="0.20" />
  <path d="M 98.100 410.400 H 95.200 C 95.100 410.400 95.200 410.500 95.200 410.400 V 407.600 C 95.200 407.500 95.100 407.600 95.200 407.600 H 101.000 C 101.100 407.600 101.000 407.500 101.000 407.600 V 410.400 C 101.000 410.500 101.100 410.400 101.000 410.400 H 98.100 Z" stroke="rgb(0,0,255)" stroke-width="0.20" />
  <path d="M 110.100 410.400 H 107.200 C 107.100 410.400 107.200 410.500 107.200 410.400 V 407.600 C 107.200 407.500 107.100 407.600 107.200 407.600 H 113.000 C 113.100 407.600 113.000 407.500 113.000 407.600 V 410.400 C 113.000 410.500 113.100 410.400 113.000 410.400 H 110.100 Z" stroke="rgb(0,0,255)" stroke-width="0.20" />
  <path d="M 122.100 410.400 H 119.200 C 119.100 410.400 119.200 410.500 119.200 410.400 V 407.600 C 119.200 407.500 119.100 407.600 119.200 407.600 H 125.000 C 125.100 407.600 125.000 407.500 125.000 407.600 V 410.400 C 125.000 410.500 125.100 410.400 125.000 410.400 H 122.100 Z" stroke="rgb(0,0,255)" stroke-width="0.20" />
  <path d="M 134.100 410.400 H 131.200 C 131.100 410.400 131.200 410.500 131.200 410.400 V 407.600 C 131.200 407.500 131.100 407.600 131.200 407.600 H 137.000 C 137.100 407.600 137.000 407.500 137.000 407.600 V 410.400 C 137.000 410.500 137.100 410.400 137.000 410.400 H 134.100 Z" stroke="rgb(0,0,255)" stroke-width="0.20" />
  <path d="M 146.100 410.400 H 143.200 C 143.100 410.400 143.200 410.500 143.200 410.400 V 407.600 C 143.200 407.500 143.100 407.600 143.200 407.600 H 149.000 C 149.100 407.600 149.000 407.500 149.000 407.600 V 410.400 C 149.000 410.500 149.100 410.400 149.000 410.400 H 146.100 Z" stroke="rgb(0,0,255)" stroke-width="0.20" />
  <path d="M 158.100 410.400 H 155.200 C 155.100 410.400 155.200 410.500 155.200 410.400 V 407.600 C 155.200 407.500 155.100 407.600 155.200 407.600 H 161.000 C 161.100 407.600 161.000 407.500 161.000 407.600 V 410.400 C 161.000 410.500 161.100 410.400 161.000 410.400 H 158.100 Z" stroke="rgb(0,0,255)" stroke-width="0.20" />
  <path d="M 170.100 410.400 H 167.200 C 167.100 410.400 167.200 410.500 167.200 410.400 V 407.600 C 167.200 407.500 167.100 407.600 167.200 407.600 H 173.000 C 173.100 407.600 173.000 407.500 173.000 407.600 V 410.400 C 173.000 410.500 173.100 410.400 173.000 410.400 H 170.100 Z" stroke="rgb(0,0,255)" stroke-width="0.20" />
  <path d="M 182.100 410.400 H 179.200 C 179.100 410.400 179.200 410.500 179.200 410.400 V 407.600 C 179.200 407.500 179.100 407.600 179.200 407.600 H 185.000 C 185.100 407.600 185.000 407.500 185.000 407.600 V 410.400 C 185.000 410.500 185.100 410.400 185.000 410.400 H 182.100 Z" stroke="rgb(0,0,255)" stroke-width="0.20" />
  <path d="M 194.100 410.400 H 191.200 C 191.100 410.400 191.200 410.500 191.200 410.400 V 407.600 C 191.200 407.500 191.100 407.600 191.200 407.600 H 197.000 C 197.100 407.600 197.000 407.500 197.000 407.600 V 410.400 C 197.000 410.500 197.100 410.400 197.000 410.400 H 194.100 Z" stroke="rgb(0,0,255)" stroke-width="0.20" />
  <text dominant-baseline="hanging" font-size="4px" style="font-family: sans-serif ; font-weight: normal; font-style: normal; fill: rgb(255,0,0)" text-anchor="middle" transform="matrix( 1.000 0.000 0.000 1.000 110.100 336.600 )">front</text><path d="M 13.100 413.600 H 207.100 H 210.100 C 210.155 413.600 210.200 413.555 210.200 413.500 V 407.500 C 210.200 407.445 210.155 407.400 210.100 407.400 H 207.200 C 207.100 407.400 207.200 407.500 207.200 407.400 V 401.600 C 207.200 401.500 207.100 401.600 207.200 401.600 H 210.100 C 210.155 401.600 210.200 401.555 210.200 401.500 V 395.500 C 210.200 395.445 210.155 395.400 210.100 395.400 H 207.200 C 207.100 395.400 207.200 395.500 207.200 395.400 V 389.600 C 207.200 389.500 207.100 389.600 207.200 389.600 H 210.100 C 210.155 389.600 210.200 389.555 210.200 389.500 V 383.500 C 210.200 383.445 210.155 383.400 210.100 383.400 H 207.200 C 207.100 383.400 207.200 383.500 207.200 383.400 V 377.600 C 207.200 377.500 207.100 377.600 207.200 377.600 H 210.100 C 210.155 377.600 210.200 377.555 210.200 377.500 V 371.500 C 210.200 371.445 210.155 371.400 210.100 371.400 H 207.200 C 207.100 371.400 207.200 371.500 207.200 371.400 V 365.600 C 207.200 365.500 207.100 365.600 207.200 365.600 H 210.100 C 210.155 365.600 210.200 365.555 210.200 365.500 V 359.500 C 210.200 359.445 210.155 359.400 210.100 359.400 H 207.200 C 207.100 359.400 207.200 359.500 207.200 359.400 V 353.600 C 207.200 353.500 207.100 353.600 207.200 353.600 H 210.100 C 210.155 353.600 210.200 353.555 210.200 353.500 V 347.500 C 210.200 347.445 210.155 347.400 210.100 347.400 H 207.200 C 207.100 347.400 207.200 347.500 207.200 347.400 V 341.600 C 207.200 341.500 207.100 341.600 207.200 341.600 H 210.100 C 210.155 341.600 210.200 341.555 210.200 341.500 V 335.500 C 210.200 335.445 210.155 335.400 210.100 335.400 H 207.200 C 207.100 335.400 207.200 335.500 207.200 335.400 V 329.600 C 207.200 329.500 207.100 329.600 207.200 329.600 H 210.100 C 210.155 329.600 210.200 329.555 210.200 329.500 V 323.500 C 210.200 323.445 210.155 323.400 210.100 323.400 H 207.200 C 207.100 323.400 207.200 323.500 207.200 323.400 V 317.600 C 207.200 317.500 207.100 317.600 207.200 317.600 H 210.100 C 210.155 317.600 210.200 317.555 210.200 317.500 V 311.500 C 210.200 311.445 210.155 311.400 210.100 311.400 H 207.200 C 207.100 311.400 207.200 311.500 207.200 311.400 V 305.600 C 207.200 305.500 207.100 305.600 207.200 305.600 H 210.100 C 210.155 305.600 210.200 305.555 210.200 305.500 V 299.500 C 210.200 299.445 210.155 299.400 210.100 299.400 H 207.200 C 207.100 299.400 207.200 299.500 207.200 299.400 V 293.600 C 207.200 293.500 207.100 293.600 207.200 293.600 H 210.100 C 210.155 293.600 210.200 293.555 210.200 293.500 V 287.500 C 210.200 287.445 210.155 287.400 210.100 287.400 H 207.200 C 207.100 287.400 207.200 287.500 207.200 287.400 V 281.600 C 207.200 281.500 207.100 281.600 207.200 281.600 H 210.100 C 210.155 281.600 210.200 281.555 210.200 281.500 V 275.500 C 210.200 275.445 210.155 275.400 210.100 275.400 H 207.200 C 207.100 275.400 207.200 275.500 207.200 275.400 V 269.600 C 207.200 269.500 207.100 269.600 207.200 269.600 H 210.100 C 210.155 269.600 210.200 269.555 210.200 269.500 V 263.500 C 210.200 263.445 210.155 263.400 210.100 263.400 H 207.100 H 13.100 H 10.100 C 10.045 263.400 10.000 263.445 10.000 263.500 V 269.500 C 10.000 269.555 10.045 269.600 10.100 269.600 H 13.000 C 13.100 269.600 13.000 269.500 13.000 269.600 V 275.400 C 13.000 275.500 13.100 275.400 13.000 275.400 H 10.100 C 10.045 275.400 10.000 275.445 10.000 275.500 V 281.500 C 10.000 281.555 10.045 281.600 10.100 281.600 H 13.000 C 13.100 281.600 13.000 281.500 13.000 281.600 V 287.400 C 13.000 287.500 13.100 287.400 13.000 287.400 H 10.100 C 10.045 287.400 10.000 287.445 10.000 287.500 V 293.500 C 10.000 293.555 10.045 293.600 10.100 293.600 H 13.000 C 13.100 293.600 13.000 293.500 13.000 293.600 V 299.400 C 13.000 299.500 13.100 299.400 13.000 299.400 H 10.100 C 10.045 299.400 10.000 299.445 10.000 299.500 V 305.500 C 10.000 305.555 10.045 305.600 10.100 305.600 H 13.000 C 13.100 305.600 13.000 305.500 13.000 305.600 V 311.400 C 13.000 311.500 13.100 311.400 13.000 311.400 H 10.100 C 10.045 311.400 10.000 311.445 10.000 311.500 V 317.500 C 10.000 317.555 10.045 317.600 10.100 317.600 H 13.000 C 13.100 317.600 13.000 317.500 13.000 317.600 V 323.400 C 13.000 323.500 13.100 323.400 13.000 323.400 H 10.100 C 10.045 323.400 10.000 323.445 10.000 323.500 V 329.500 C 10.000 329.555 10.045 329.600 10.100 329.600 H 13.000 C 13.100 329.600 13.000 329.500 13.000 329.600 V 335.400 C 13.000 335.500 13.100 335.400 13.000 335.400 H 10.100 C 10.045 335.400 10.000 335.445 10.000 335.500 V 341.500 C 10.000 341.555 10.045 341.600 10.100 341.600 H 13.000 C 13.100 341.600 13.000 341.500 13.000 341.600 V 347.400 C 13.000 347.500 13.100 347.400 13.000 347.400 H 10.100 C 10.045 347.400 10.000 347.445 10.000 347.500 V 353.500 C 10.000 353.555 10.045 353.600 10.100 353.600 H 13.000 C 13.100 353.600 13.000 353.500 13.000 353.600 V 359.400 C 13.000 359.500 13.100 359.400 13.000 359.400 H 10.100 C 10.045 359.400 10.000 359.445 10.000 359.500 V 365.500 C 10.000 365.555 10.045 365.600 10.100 365.600 H 13.000 C 13.100 365.600 13.000 365.500 13.000 365.600 V 371.400 C 13.000 371.500 13.100 371.400 13.000 371.400 H 10.100 C 10.045 371.400 10.000 371.445 10.000 371.500 V 377.500 C 10.000 377.555 10.045 377.600 10.100 377.600 H 13.000 C 13.100 377.600 13.000 377.500 13.000 377.600 V 383.400 C 13.000 383.500 13.100 383.400 13.000 383.400 H 10.100 C 10.045 383.400 10.000 383.445 10.000 383.500 V 389.500 C 10.000 389.555 10.045 389.600 10.100 389.600 H 13.000 C 13.100 389.600 13.000 389.500 13.000 389.600 V 395.400 C 13.000 395.500 13.100 395.400 13.000 395.400 H 10.100 C 10.045 395.400 10.000 395.445 10.000 395.500 V 401.500 C 10.000 401.555 10.045 401.600 10.100 401.600 H 13.000 C 13.100 401.600 13.000 401.500 13.000 401.600 V 407.400 C 13.000 407.500 13.100 407.400 13.000 407.400 H 10.100 C 10.045 407.400 10.000 407.445 10.000 407.500 V 413.500 C 10.000 413.555 10.045 413.600 10.100 413.600 H 13.100" stroke="rgb(0,0,0)" stroke-width="0.20" />
</g>
<g id="p-2" style="fill:none;stroke-linecap:round;stroke-linejoin:round;">
  <path d="M 26.100 258.700 H 23.200 C 23.100 258.700 23.200 258.800 23.200 258.700 V 255.900 C 23.200 255.800 23.100 255.900 23.200 255.900 H 29.000 C 29.100 255.900 29.000 255.800 29.000 255.900 V 258.700 C 29.000 258.800 29.100 258.700 29.000 258.700 H 26.100 Z" stroke="rgb(0,0,255)" stroke-width="0.20" />
  <path d="M 38.100 258.700 H 35.200 C 35.100 258.700 35.200 258.800 35.200 258.700 V 255.900 C 35.200 255.800 35.100 255.900 35.200 255.900 H 41.000 C 41.100 255.900 41.000 255.800 41.000 255.900 V 258.700 C 41.000 258.800 41.100 258.700 41.000 258.700 H 38.100 Z" stroke="rgb(0,0,255)" stroke-width="0.20" />
  <path d="M 50.100 258.700 H 47.200 C 47.100 258.700 47.200 258.800 47.200 258.700 V 255.900 C 47.200 255.800 47.100 255.900 47.200 255.900 H 53.000 C 53.100 255.900 53.000 255.800 53.000 255.900 V 258.700 C 53.000 258.800 53.100 258.700 53.000 258.700 H 50.100 Z" stroke="rgb(0,0,255)" stroke-width="0.20" />
  <path d="M 62.100 258.700 H 59.200 C 59.100 258.700 59.200 258.800 59.200 258.700 V 255.900 C 59.200 255.800 59.100 255.900 59.200 255.900 H 65.000 C 65.100 255.900 65.000 255.800 65.000 255.900 V 258.700 C 65.000 258.800 65.100 258.700 65.000 258.700 H 62.100 Z" stroke="rgb(0,0,255)" stroke-width="0.20" />
  <path d="M 74.100 258.700 H 71.200 C 71.100 258.700 71.200 258.800 71.200 258.700 V 255.900 C 71.200 255.800 71.100 255.900 71.200 255.900 H 77.000 C 77.100 255.900 77.000 255.800 77.000 255.900 V 258.700 C 77.000 258.800 77.100 258.700 77.000 258.700 H 74.100 Z" stroke="rgb(0,0,255)" stroke-width="0.20" />
  <path d="M 86.100 258.700 H 83.200 C 83.100 258.700 83.200 258.800 83.200 258.700 V 255.900 C 83.200 255.800 83.100 255.900 83.200 255.900 H 89.000 C 89.100 255.900 89.000 255.800 89.000 255.900 V 258.700 C 89.000 258.800 89.100 258.700 89.000 258.700 H 86.100 Z" stroke="rgb(0,0,255)" stroke-width="0.20" />
  <path d="M 98.100 258.700 H 95.200 C 95.100 258.700 95.200 258.800 95.200 258.700 V 255.900 C 95.200 255.800 95.100 255.900 95.200 255.900 H 101.000 C 101.100 255.900 101.000 255.800 101.000 255.900 V 258.700 C 101.000 258.800 101.100 258.700 101.000 258.700 H 98.100 Z" stroke="rgb(0,0,255)" stroke-width="0.20" />
  <path d="M 110.100 258.700 H 107.200 C 107.100 258.700 107.200 258.800 107.200 258.700 V 255.900 C 107.200 255.800 107.100 255.900 107.200 255.900 H 113.000 C 113.100 255.900 113.000 255.800 113.000 255.900 V 258.700 C 113.000 258.800 113.100 258.700 113.000 258.700 H 110.100 Z" stroke="rgb(0,0,255)" stroke-width="0.20" />
  <path d="M 122.100 258.700 H 119.200 C 119.100 258.700 119.200 258.800 119.200 258.700 V 255.900 C 119.200 255.800 119.100 255.900 119.200 255.900 H 125.000 C 125.100 255.900 125.000 255.800 125.000 255.900 V 258.700 C 125.000 258.800 125.100 258.700 125.000 258.700 H 122.100 Z" stroke="rgb(0,0,255)" stroke-width="0.20" />
  <path d="M 134.100 258.700 H 131.200 C 131.100 258.700 131.200 258.800 131.200 258.700 V 255.900 C 131.200 255.800 131.100 255.900 131.200 255.900 H 137.000 C 137.100 255.900 137.000 255.800 137.000 255.900 V 258.700 C 137.000 258.800 137.100 258.700 137.000 258.700 H 134.100 Z" stroke="rgb(0,0,255)" stroke-width="0.20" />
  <path d="M 146.100 258.700 H 143.200 C 143.100 258.700 143.200 258.800 143.200 258.700 V 255.900 C 143.200 255.800 143.100 255.900 143.200 255.900 H 149.000 C 149.100 255.900 149.000 255.800 149.000 255.900 V 258.700 C 149.000 258.800 149.100 258.700 149.000 258.700 H 146.100 Z" stroke="rgb(0,0,255)" stroke-width="0.20" />
  <path d="M 158.100 258.700 H 155.200 C 155.100 258.700 155.200 258.800 155.200 258.700 V 255.900 C 155.200 255.800 155.100 255.900 155.200 255.900 H 161.000 C 161.100 255.900 161.000 255.800 161.000 255.900 V 258.700 C 161.000 258.800 161.100 258.700 161.000 258.700 H 158.100 Z" stroke="rgb(0,0,255)" stroke-width="0.20" />
  <path d="M 170.100 258.700 H 167.200 C 167.100 258.700 167.200 258.800 167.200 258.700 V 255.900 C 167.200 255.800 167.100 255.900 167.200 255.900 H 173.000 C 173.100 255.900 173.000 255.800 173.000 255.900 V 258.700 C 173.000 258.800 173.100 258.700 173.000 258.700 H 170.100 Z" stroke="rgb(0,0,255)" stroke-width="0.20" />
  <path d="M 182.100 258.700 H 179.200 C 179.100 258.700 179.200 258.800 179.200 258.700 V 255.900 C 179.200 255.800 179.100 255.900 179.200 255.900 H 185.000 C 185.100 255.900 185.000 255.800 185.000 255.900 V 258.700 C 185.000 258.800 185.100 258.700 185.000 258.700 H 182.100 Z" stroke="rgb(0,0,255)" stroke-width="0.20" />
  <path d="M 194.100 258.700 H 191.200 C 191.100 258.700 191.200 258.800 191.200 258.700 V 255.900 C 191.200 255.800 191.100 255.900 191.200 255.900 H 197.000 C 197.100 255.900 197.000 255.800 197.000 255.900 V 258.700 C 197.000 258.800 197.100 258.700 197.000 258.700 H 194.100 Z" stroke="rgb(0,0,255)" stroke-width="0.20" />
  <text dominant-baseline="hanging" font-size="4px" style="font-family: sans-serif ; font-weight: normal; font-style: normal; fill: rgb(255,0,0)" text-anchor="middle" transform="matrix( 1.000 0.000 0.000 1.000 110.100 184.900 )">back</text><path d="M 13.100 261.900 H 207.100 H 210.100 C 210.155 261.900 210.200 261.855 210.200 261.800 V 255.800 C 210.200 255.745 210.155 255.700 210.100 255.700 H 207.200 C 207.100 255.700 207.200 255.800 207.200 255.700 V 249.900 C 207.200 249.800 207.100 249.900 207.200 249.900 H 210.100 C 210.155 249.900 210.200 249.855 210.200 249.800 V 243.800 C 210.200 243.745 210.155 243.700 210.100 243.700 H 207.200 C 207.100 243.700 207.200 243.800 207.200 243.700 V 237.900 C 207.200 237.800 207.100 237.900 207.200 237.900 H 210.100 C 210.155 237.900 210.200 237.855 210.200 237.800 V 231.800 C 210.200 231.745 210.155 231.700 210.100 231.700 H 207.200 C 207.100 231.700 207.200 231.800 207.200 231.700 V 225.900 C 207.200 225.800 207.100 225.900 207.200 225.900 H 210.100 C 210.155 225.900 210.200 225.855 210.200 225.800 V 219.800 C 210.200 219.745 210.155 219.700 210.100 219.700 H 207.200 C 207.100 219.700 207.200 219.800 207.200 219.700 V 213.900 C 207.200 213.800 207.100 213.900 207.200 213.900 H 210.100 C 210.155 213.900 210.200 213.855 210.200 213.800 V 207.800 C 210.200 207.745 210.155 207.700 210.100 207.700 H 207.200 C 207.100 207.700 207.200 207.800 207.200 207.700 V 201.900 C 207.200 201.800 207.100 201.900 207.200 201.900 H 210.100 C 210.155 201.900 210.200 201.855 210.200 201.800 V 195.800 C 210.200 195.745 210.155 195.700 210.100 195.700 H 207.200 C 207.100 195.700 207.200 195.800 207.200 195.700 V 189.900 C 207.200 189.800 207.100 189.900 207.200 189.900 H 210.100 C 210.155 189.900 210.200 189.855 210.200 189.800 V 183.800 C 210.200 183.745 210.155 183.700 210.100 183.700 H 207.200 C 207.100 183.700 207.200 183.800 207.200 183.700 V 177.900 C 207.200 177.800 207.100 177.900 207.200 177.900 H 210.100 C 210.155 177.900 210.200 177.855 210.200 177.800 V 171.800 C 210.200 171.745 210.155 171.700 210.100 171.700 H 207.200 C 207.100 171.700 207.200 171.800 207.200 171.700 V 165.900 C 207.200 165.800 207.100 165.900 207.200 165.900 H 210.100 C 210.155 165.900 210.200 165.855 210.200 165.800 V 159.800 C 210.200 159.745 210.155 159.700 210.100 159.700 H 207.200 C 207.100 159.700 207.200 159.800 207.200 159.700 V 153.900 C 207.200 153.800 207.100 153.900 207.200 153.900 H 210.100 C 210.155 153.900 210.200 153.855 210.200 153.800 V 147.800 C 210.200 147.745 210.155 147.700 210.100 147.700 H 207.200 C 207.100 147.700 207.200 147.800 207.200 147.700 V 141.900 C 207.200 141.800 207.100 141.900 207.200 141.900 H 210.100 C 210.155 141.900 210.200 141.855 210.200 141.800 V 135.800 C 210.200 135.745 210.155 135.700 210.100 135.700 H 207.200 C 207.100 135.700 207.200 135.800 207.200 135.700 V 129.900 C 207.200 129.800 207.100 129.900 207.200 129.900 H 210.100 C 210.155 129.900 210.200 129.855 210.200 129.800 V 123.800 C 210.200 123.745 210.155 123.700 210.100 123.700 H 207.200 C 207.100 123.700 207.200 123.800 207.200 123.700 V 117.900 C 207.200 117.800 207.100 117.900 207.200 117.900 H 210.100 C 210.155 117.900 210.200 117.855 210.200 117.800 V 111.800 C 210.200 111.745 210.155 111.700 210.100 111.700 H 207.100 H 13.100 H 10.100 C 10.045 111.700 10.000 111.745 10.000 111.800 V 117.800 C 10.000 117.855 10.045 117.900 10.100 117.900 H 13.000 C 13.100 117.900 13.000 117.800 13.000 117.900 V 123.700 C 13.000 123.800 13.100 123.700 13.000 123.700 H 10.100 C 10.045 123.700 10.000 123.745 10.000 123.800 V 129.800 C 10.000 129.855 10.045 129.900 10.100 129.900 H 13.000 C 13.100 129.900 13.000 129.800 13.000 129.900 V 135.700 C 13.000 135.800 13.100 135.700 13.000 135.700 H 10.100 C 10.045 135.700 10.000 135.745 10.000 135.800 V 141.800 C 10.000 141.855 10.045 141.900 10.100 141.900 H 13.000 C 13.100 141.900 13.000 141.800 13.000 141.900 V 147.700 C 13.000 147.800 13.100 147.700 13.000 147.700 H 10.100 C 10.045 147.700 10.000 147.745 10.000 147.800 V 153.800 C 10.000 153.855 10.045 153.900 10.100 153.900 H 13.000 C 13.100 153.900 13.000 153.800 13.000 153.900 V 159.700 C 13.000 159.800 13.100 159.700 13.000 159.700 H 10.100 C 10.045 159.700 10.000 159.745 10.000 159.800 V 165.800 C 10.000 165.855 10.045 165.900 10.100 165.900 H 13.000 C 13.100 165.900 13.000 165.800 13.000 165.900 V 171.700 C 13.000 171.800 13.100 171.700 13.000 171.700 H 10.100 C 10.045 171.700 10.000 171.745 10.000 171.800 V 177.800 C 10.000 177.855 10.045 177.900 10.100 177.900 H 13.000 C 13.100 177.900 13.000 177.800 13.000 177.900 V 183.700 C 13.000 183.800 13.100 183.700 13.000 183.700 H 10.100 C 10.045 183.700 10.000 183.745 10.000 183.800 V 189.800 C 10.000 189.855 10.045 189.900 10.100 189.900 H 13.000 C 13.100 189.900 13.000 189.800 13.000 189.900 V 195.700 C 13.000 195.800 13.100 195.700 13.000 195.700 H 10.100 C 10.045 195.700 10.000 195.745 10.000 195.800 V 201.800 C 10.000 201.855 10.045 201.900 10.100 201.900 H 13.000 C 13.100 201.900 13.000 201.800 13.000 201.900 V 207.700 C 13.000 207.800 13.100 207.700 13.000 207.700 H 10.100 C 10.045 207.700 10.000 207.745 10.000 207.800 V 213.800 C 10.000 213.855 10.045 213.900 10.100 213.900 H 13.000 C 13.100 213.900 13.000 213.800 13.000 213.900 V 219.700 C 13.000 219.800 13.100 219.700 13.000 219.700 H 10.100 C 10.045 219.700 10.000 219.745 10.000 219.800 V 225.800 C 10.000 225.855 10.045 225.900 10.100 225.900 H 13.000 C 13.100 225.900 13.000 225.800 13.000 225.900 V 231.700 C 13.000 231.800 13.100 231.700 13.000 231.700 H 10.100 C 10.045 231.700 10.000 231.745 10.000 231.800 V 237.800 C 10.000 237.855 10.045 237.900 10.100 237.900 H 13.000 C 13.100 237.900 13.000 237.800 13.000 237.900 V 243.700 C 13.000 243.800 13.100 243.700 13.000 243.700 H 10.100 C 10.045 243.700 10.000 243.745 10.000 243.800 V 249.800 C 10.000 249.855 10.045 249.900 10.100 249.900 H 13.000 C 13.100 249.900 13.000 249.800 13.000 249.900 V 255.700 C 13.000 255.800 13.100 255.700 13.000 255.700 H 10.100 C 10.045 255.700 10.000 255.745 10.000 255.800 V 261.800 C 10.000 261.855 10.045 261.900 10.100 261.900 H 13.100" stroke="rgb(0,0,0)" stroke-width="0.20" />
</g>
<g id="p-3" style="fill:none;stroke-linecap:round;stroke-linejoin:round;">
  <text dominant-baseline="hanging" font-size="4px" style="font-family: sans-serif ; font-weight: normal; font-style: normal; fill: rgb(255,0,0)" text-anchor="middle" transform="matrix( 1.000 0.000 0.000 1.000 110.100 58.200 )">bottom</text><path d="M 13.100 107.200 H 23.000 C 23.100 107.200 23.000 107.100 23.000 107.200 V 110.100 C 23.000 110.155 23.045 110.200 23.100 110.200 H 29.100 C 29.155 110.200 29.200 110.155 29.200 110.100 V 107.200 C 29.200 107.100 29.100 107.200 29.200 107.200 H 35.000 C 35.100 107.200 35.000 107.100 35.000 107.200 V 110.100 C 35.000 110.155 35.045 110.200 35.100 110.200 H 41.100 C 41.155 110.200 41.200 110.155 41.200 110.100 V 107.200 C 41.200 107.100 41.100 107.200 41.200 107.200 H 47.000 C 47.100 107.200 47.000 107.100 47.000 107.200 V 110.100 C 47.000 110.155 47.045 110.200 47.100 110.200 H 53.100 C 53.155 110.200 53.200 110.155 53.200 110.100 V 107.200 C 53.200 107.100 53.100 107.200 53.200 107.200 H 59.000 C 59.100 107.200 59.000 107.100 59.000 107.200 V 110.100 C 59.000 110.155 59.045 110.200 59.100 110.200 H 65.100 C 65.155 110.200 65.200 110.155 65.200 110.100 V 107.200 C 65.200 107.100 65.100 107.200 65.200 107.200 H 71.000 C 71.100 107.200 71.000 107.100 71.000 107.200 V 110.100 C 71.000 110.155 71.045 110.200 71.100 110.200 H 77.100 C 77.155 110.200 77.200 110.155 77.200 110.100 V 107.200 C 77.200 107.100 77.100 107.200 77.200 107.200 H 83.000 C 83.100 107.200 83.000 107.100 83.000 107.200 V 110.100 C 83.000 110.155 83.045 110.200 83.100 110.200 H 89.100 C 89.155 110.200 89.200 110.155 89.200 110.100 V 107.200 C 89.200 107.100 89.100 107.200 89.200 107.200 H 95.000 C 95.100 107.200 95.000 107.100 95.000 107.200 V 110.100 C 95.000 110.155 95.045 110.200 95.100 110.200 H 101.100 C 101.155 110.200 101.200 110.155 101.200 110.100 V 107.200 C 101.200 107.100 101.100 107.200 101.200 107.200 H 107.000 C 107.100 107.200 107.000 107.100 107.000 107.200 V 110.100 C 107.000 110.155 107.045 110.200 107.100 110.200 H 113.100 C 113.155 110.200 113.200 110.155 113.200 110.100 V 107.200 C 113.200 107.100 113.100 107.200 113.200 107.200 H 119.000 C 119.100 107.200 119.000 107.100 119.000 107.200 V 110.100 C 119.000 110.155 119.045 110.200 119.100 110.200 H 125.100 C 125.155 110.200 125.200 110.155 125.200 110.100 V 107.200 C 125.200 107.100 125.100 107.200 125.200 107.200 H 131.000 C 131.100 107.200 131.000 107.100 131.000 107.200 V 110.100 C 131.000 110.155 131.045 110.200 131.100 110.200 H 137.100 C 137.155 110.200 137.200 110.155 137.200 110.100 V 107.200 C 137.200 107.100 137.100 107.200 137.200 107.200 H 143.000 C 143.100 107.200 143.000 107.100 143.000 107.200 V 110.100 C 143.000 110.155 143.045 110.200 143.100 110.200 H 149.100 C 149.155 110.200 149.200 110.155 149.200 110.100 V 107.200 C 149.200 107.100 149.100 107.200 149.200 107.200 H 155.000 C 155.100 107.200 155.000 107.100 155.000 107.200 V 110.100 C 155.000 110.155 155.045 110.200 155.100 110.200 H 161.100 C 161.155 110.200 161.200 110.155 161.200 110.100 V 107.200 C 161.200 107.100 161.100 107.200 161.200 107.200 H 167.000 C 167.100 107.200 167.000 107.100 167.000 107.200 V 110.100 C 167.000 110.155 167.045 110.200 167.100 110.200 H 173.100 C 173.155 110.200 173.200 110.155 173.200 110.100 V 107.200 C 173.200 107.100 173.100 107.200 173.200 107.200 H 179.000 C 179.100 107.200 179.000 107.100 179.000 107.200 V 110.100 C 179.000 110.155 179.045 110.200 179.100 110.200 H 185.100 C 185.155 110.200 185.200 110.155 185.200 110.100 V 107.200 C 185.200 107.100 185.100 107.200 185.200 107.200 H 191.000 C 191.100 107.200 191.000 107.100 191.000 107.200 V 110.100 C 191.000 110.155 191.045 110.200 191.100 110.200 H 197.100 C 197.155 110.200 197.200 110.155 197.200 110.100 V 107.200 C 197.200 107.100 197.100 107.200 197.200 107.200 H 207.100 C 207.155 107.200 207.200 107.155 207.200 107.100 V 99.200 C 207.200 99.100 207.100 99.200 207.200 99.200 H 210.100 C 210.155 99.200 210.200 99.155 210.200 99.100 V 93.100 C 210.200 93.045 210.155 93.000 210.100 93.000 H 207.200 C 207.100 93.000 207.200 93.100 207.200 93.000 V 87.200 C 207.200 87.100 207.100 87.200 207.200 87.200 H 210.100 C 210.155 87.200 210.200 87.155 210.200 87.100 V 81.100 C 210.200 81.045 210.155 81.000 210.100 81.000 H 207.200 C 207.100 81.000 207.200 81.100 207.200 81.000 V 75.200 C 207.200 75.100 207.100 75.200 207.200 75.200 H 210.100 C 210.155 75.200 210.200 75.155 210.200 75.100 V 69.100 C 210.200 69.045 210.155 69.000 210.100 69.000 H 207.200 C 207.100 69.000 207.200 69.100 207.200 69.000 V 63.200 C 207.200 63.100 207.100 63.200 207.200 63.200 H 210.100 C 210.155 63.200 210.200 63.155 210.200 63.100 V 57.100 C 210.200 57.045 210.155 57.000 210.100 57.000 H 207.200 C 207.100 57.000 207.200 57.100 207.200 57.000 V 51.200 C 207.200 51.100 207.100 51.200 207.200 51.200 H 210.100 C 210.155 51.200 210.200 51.155 210.200 51.100 V 45.100 C 210.200 45.045 210.155 45.000 210.100 45.000 H 207.200 C 207.100 45.000 207.200 45.100 207.200 45.000 V 39.200 C 207.200 39.100 207.100 39.200 207.200 39.200 H 210.100 C 210.155 39.200 210.200 39.155 210.200 39.100 V 33.100 C 210.200 33.045 210.155 33.000 210.100 33.000 H 207.200 C 207.100 33.000 207.200 33.100 207.200 33.000 V 27.200 C 207.200 27.100 207.100 27.200 207.200 27.200 H 210.100 C 210.155 27.200 210.200 27.155 210.200 27.100 V 21.100 C 210.200 21.045 210.155 21.000 210.100 21.000 H 207.200 C 207.100 21.000 207.200 21.100 207.200 21.000 V 13.100 C 207.200 13.045 207.155 13.000 207.100 13.000 H 197.200 C 197.100 13.000 197.200 13.100 197.200 13.000 V 10.100 C 197.200 10.045 197.155 10.000 197.100 10.000 H 191.100 C 191.045 10.000 191.000 10.045 191.000 10.100 V 13.000 C 191.000 13.100 191.100 13.000 191.000 13.000 H 185.200 C 185.100 13.000 185.200 13.100 185.200 13.000 V 10.100 C 185.200 10.045 185.155 10.000 185.100 10.000 H 179.100 C 179.045 10.000 179.000 10.045 179.000 10.100 V 13.000 C 179.000 13.100 179.100 13.000 179.000 13.000 H 173.200 C 173.100 13.000 173.200 13.100 173.200 13.000 V 10.100 C 173.200 10.045 173.155 10.000 173.100 10.000 H 167.100 C 167.045 10.000 167.000 10.045 167.000 10.100 V 13.000 C 167.000 13.100 167.100 13.000 167.000 13.000 H 161.200 C 161.100 13.000 161.200 13.100 161.200 13.000 V 10.100 C 161.200 10.045 161.155 10.000 161.100 10.000 H 155.100 C 155.045 10.000 155.000 10.045 155.000 10.100 V 13.000 C 155.000 13.100 155.100 13.000 155.000 13.000 H 149.200 C 149.100 13.000 149.200 13.100 149.200 13.000 V 10.100 C 149.200 10.045 149.155 10.000 149.100 10.000 H 143.100 C 143.045 10.000 143.000 10.045 143.000 10.100 V 13.000 C 143.000 13.100 143.100 13.000 143.000 13.000 H 137.200 C 137.100 13.000 137.200 13.100 137.200 13.000 V 10.100 C 137.200 10.045 137.155 10.000 137.100 10.000 H 131.100 C 131.045 10.000 131.000 10.045 131.000 10.100 V 13.000 C 131.000 13.100 131.100 13.000 131.000 13.000 H 125.200 C 125.100 13.000 125.200 13.100 125.200 13.000 V 10.100 C 125.200 10.045 125.155 10.000 125.100 10.000 H 119.100 C 119.045 10.000 119.000 10.045 119.000 10.100 V 13.000 C 119.000 13.100 119.100 13.000 119.000 13.000 H 113.200 C 113.100 13.000 113.200 13.100 113.200 13.000 V 10.100 C 113.200 10.045 113.155 10.000 113.100 10.000 H 107.100 C 107.045 10.000 107.000 10.045 107.000 10.100 V 13.000 C 107.000 13.100 107.100 13.000 107.000 13.000 H 101.200 C 101.100 13.000 101.200 13.100 101.200 13.000 V 10.100 C 101.200 10.045 101.155 10.000 101.100 10.000 H 95.100 C 95.045 10.000 95.000 10.045 95.000 10.100 V 13.000 C 95.000 13.100 95.100 13.000 95.000 13.000 H 89.200 C 89.100 13.000 89.200 13.100 89.200 13.000 V 10.100 C 89.200 10.045 89.155 10.000 89.100 10.000 H 83.100 C 83.045 10.000 83.000 10.045 83.000 10.100 V 13.000 C 83.000 13.100 83.100 13.000 83.000 13.000 H 77.200 C 77.100 13.000 77.200 13.100 77.200 13.000 V 10.100 C 77.200 10.045 77.155 10.000 77.100 10.000 H 71.100 C 71.045 10.000 71.000 10.045 71.000 10.100 V 13.000 C 71.000 13.100 71.100 13.000 71.000 13.000 H 65.200 C 65.100 13.000 65.200 13.100 65.200 13.000 V 10.100 C 65.200 10.045 65.155 10.000 65.100 10.000 H 59.100 C 59.045 10.000 59.000 10.045 59.000 10.100 V 13.000 C 59.000 13.100 59.100 13.000 59.000 13.000 H 53.200 C 53.100 13.000 53.200 13.100 53.200 13.000 V 10.100 C 53.200 10.045 53.155 10.000 53.100 10.000 H 47.100 C 47.045 10.000 47.000 10.045 47.000 10.100 V 13.000 C 47.000 13.100 47.100 13.000 47.000 13.000 H 41.200 C 41.100 13.000 41.200 13.100 41.200 13.000 V 10.100 C 41.200 10.045 41.155 10.000 41.100 10.000 H 35.100 C 35.045 10.000 35.000 10.045 35.000 10.100 V 13.000 C 35.000 13.100 35.100 13.000 35.000 13.000 H 29.200 C 29.100 13.000 29.200 13.100 29.200 13.000 V 10.100 C 29.200 10.045 29.155 10.000 29.100 10.000 H 23.100 C 23.045 10.000 23.000 10.045 23.000 10.100 V 13.000 C 23.000 13.100 23.100 13.000 23.000 13.000 H 13.100 C 13.045 13.000 13.000 13.045 13.000 13.100 V 21.000 C 13.000 21.100 13.100 21.000 13.000 21.000 H 10.100 C 10.045 21.000 10.000 21.045 10.000 21.100 V 27.100 C 10.000 27.155 10.045 27.200 10.100 27.200 H 13.000 C 13.100 27.200 13.000 27.100 13.000 27.200 V 33.000 C 13.000 33.100 13.100 33.000 13.000 33.000 H 10.100 C 10.045 33.000 10.000 33.045 10.000 33.100 V 39.100 C 10.000 39.155 10.045 39.200 10.100 39.200 H 13.000 C 13.100 39.200 13.000 39.100 13.000 39.200 V 45.000 C 13.000 45.100 13.100 45.000 13.000 45.000 H 10.100 C 10.045 45.000 10.000 45.045 10.000 45.100 V 51.100 C 10.000 51.155 10.045 51.200 10.100 51.200 H 13.000 C 13.100 51.200 13.000 51.100 13.000 51.200 V 57.000 C 13.000 57.100 13.100 57.000 13.000 57.000 H 10.100 C 10.045 57.000 10.000 57.045 10.000 57.100 V 63.100 C 10.000 63.155 10.045 63.200 10.100 63.200 H 13.000 C 13.100 63.200 13.000 63.100 13.000 63.200 V 69.000 C 13.000 69.100 13.100 69.000 13.000 69.000 H 10.100 C 10.045 69.000 10.000 69.045 10.000 69.100 V 75.100 C 10.000 75.155 10.045 75.200 10.100 75.200 H 13.000 C 13.100 75.200 13.000 75.100 13.000 75.200 V 81.000 C 13.000 81.100 13.100 81.000 13.000 81.000 H 10.100 C 10.045 81.000 10.000 81.045 10.000 81.100 V 87.100 C 10.000 87.155 10.045 87.200 10.100 87.200 H 13.000 C 13.100 87.200 13.000 87.100 13.000 87.200 V 93.000 C 13.000 93.100 13.100 93.000 13.000 93.000 H 10.100 C 10.045 93.000 10.000 93.045 10.000 93.100 V 99.100 C 10.000 99.155 10.045 99.200 10.100 99.200 H 13.000 C 13.100 99.200 13.000 99.100 13.000 99.200 V 107.100 C 13.000 107.155 13.045 107.200 13.100 107.200" stroke="rgb(0,0,0)" stroke-width="0.20" />
</g>
<g id="p-4" style="fill:none;stroke-linecap:round;stroke-linejoin:round;">
  <path d="M 225.800 410.400 H 222.900 C 222.800 410.400 222.900 410.500 222.900 410.400 V 407.600 C 222.900 407.500 222.800 407.600 222.900 407.600 H 228.700 C 228.800 407.600 228.700 407.500 228.700 407.600 V 410.400 C 228.700 410.500 228.800 410.400 228.700 410.400 H 225.800 Z" stroke="rgb(0,0,255)" stroke-width="0.20" />
  <path d="M 237.800 410.400 H 234.900 C 234.800 410.400 234.900 410.500 234.900 410.400 V 407.600 C 234.900 407.500 234.800 407.600 234.900 407.600 H 240.700 C 240.800 407.600 240.700 407.500 240.700 407.600 V 410.400 C 240.700 410.500 240.800 410.400 240.700 410.400 H 237.800 Z" stroke="rgb(0,0,255)" stroke-width="0.20" />
  <path d="M 249.800 410.400 H 246.900 C 246.800 410.400 246.900 410.500 246.900 410.400 V 407.600 C 246.900 407.500 246.800 407.600 246.900 407.600 H 252.700 C 252.800 407.600 252.700 407.500 252.700 407.600 V 410.400 C 252.700 410.500 252.800 410.400 252.700 410.400 H 249.800 Z" stroke="rgb(0,0,255)" stroke-width="0.20" />
  <path d="M 261.800 410.400 H 258.900 C 258.800 410.400 258.900 410.500 258.900 410.400 V 407.600 C 258.900 407.500 258.800 407.600 258.900 407.600 H 264.700 C 264.800 407.600 264.700 407.500 264.700 407.600 V 410.400 C 264.700 410.500 264.800 410.400 264.700 410.400 H 261.800 Z" stroke="rgb(0,0,255)" stroke-width="0.20" />
  <path d="M 273.800 410.400 H 270.900 C 270.800 410.400 270.900 410.500 270.900 410.400 V 407.600 C 270.900 407.500 270.800 407.600 270.900 407.600 H 276.700 C 276.800 407.600 276.700 407.500 276.700 407.600 V 410.400 C 276.700 410.500 276.800 410.400 276.700 410.400 H 273.800 Z" stroke="rgb(0,0,255)" stroke-width="0.20" />
  <path d="M 285.800 410.400 H 282.900 C 282.800 410.400 282.900 410.500 282.900 410.400 V 407.600 C 282.900 407.500 282.800 407.600 282.900 407.600 H 288.700 C 288.800 407.600 288.700 407.500 288.700 407.600 V 410.400 C 288.700 410.500 288.800 410.400 288.700 410.400 H 285.800 Z" stroke="rgb(0,0,255)" stroke-width="0.20" />
  <path d="M 297.800 410.400 H 294.900 C 294.800 410.400 294.900 410.500 294.900 410.400 V 407.600 C 294.900 407.500 294.800 407.600 294.900 407.600 H 300.700 C 300.800 407.600 300.700 407.500 300.700 407.600 V 410.400 C 300.700 410.500 300.800 410.400 300.700 410.400 H 297.800 Z" stroke="rgb(0,0,255)" stroke-width="0.20" />
  <text dominant-baseline="hanging" font-size="4px" style="font-family: sans-serif ; font-weight: normal; font-style: normal; fill: rgb(255,0,0)" text-anchor="middle" transform="matrix( 1.000 0.000 0.000 1.000 261.800 336.600 )">left</text><path d="M 214.800 413.600 H 308.800 C 308.855 413.600 308.900 413.555 308.900 413.500 V 407.600 C 308.900 407.500 308.800 407.600 308.900 407.600 H 311.800 C 311.855 407.600 311.900 407.555 311.900 407.500 V 401.500 C 311.900 401.445 311.855 401.400 311.800 401.400 H 308.900 C 308.800 401.400 308.900 401.500 308.900 401.400 V 395.600 C 308.900 395.500 308.800 395.600 308.900 395.600 H 311.800 C 311.855 395.600 311.900 395.555 311.900 395.500 V 389.500 C 311.900 389.445 311.855 389.400 311.800 389.400 H 308.900 C 308.800 389.400 308.900 389.500 308.900 389.400 V 383.600 C 308.900 383.500 308.800 383.600 308.900 383.600 H 311.800 C 311.855 383.600 311.900 383.555 311.900 383.500 V 377.500 C 311.900 377.445 311.855 377.400 311.800 377.400 H 308.900 C 308.800 377.400 308.900 377.500 308.900 377.400 V 371.600 C 308.900 371.500 308.800 371.600 308.900 371.600 H 311.800 C 311.855 371.600 311.900 371.555 311.900 371.500 V 365.500 C 311.900 365.445 311.855 365.400 311.800 365.400 H 308.900 C 308.800 365.400 308.900 365.500 308.900 365.400 V 359.600 C 308.900 359.500 308.800 359.600 308.900 359.600 H 311.800 C 311.855 359.600 311.900 359.555 311.900 359.500 V 353.500 C 311.900 353.445 311.855 353.400 311.800 353.400 H 308.900 C 308.800 353.400 308.900 353.500 308.900 353.400 V 347.600 C 308.900 347.500 308.800 347.600 308.900 347.600 H 311.800 C 311.855 347.600 311.900 347.555 311.900 347.500 V 341.500 C 311.900 341.445 311.855 341.400 311.800 341.400 H 308.900 C 308.800 341.400 308.900 341.500 308.900 341.400 V 335.600 C 308.900 335.500 308.800 335.600 308.900 335.600 H 311.800 C 311.855 335.600 311.900 335.555 311.900 335.500 V 329.500 C 311.900 329.445 311.855 329.400 311.800 329.400 H 308.900 C 308.800 329.400 308.900 329.500 308.900 329.400 V 323.600 C 308.900 323.500 308.800 323.600 308.900 323.600 H 311.800 C 311.855 323.600 311.900 323.555 311.900 323.500 V 317.500 C 311.900 317.445 311.855 317.400 311.800 317.400 H 308.900 C 308.800 317.400 308.900 317.500 308.900 317.400 V 311.600 C 308.900 311.500 308.800 311.600 308.900 311.600 H 311.800 C 311.855 311.600 311.900 311.555 311.900 311.500 V 305.500 C 311.900 305.445 311.855 305.400 311.800 305.400 H 308.900 C 308.800 305.400 308.900 305.500 308.900 305.400 V 299.600 C 308.900 299.500 308.800 299.600 308.900 299.600 H 311.800 C 311.855 299.600 311.900 299.555 311.900 299.500 V 293.500 C 311.900 293.445 311.855 293.400 311.800 293.400 H 308.900 C 308.800 293.400 308.900 293.500 308.900 293.400 V 287.600 C 308.900 287.500 308.800 287.600 308.900 287.600 H 311.800 C 311.855 287.600 311.900 287.555 311.900 287.500 V 281.500 C 311.900 281.445 311.855 281.400 311.800 281.400 H 308.900 C 308.800 281.400 308.900 281.500 308.900 281.400 V 275.600 C 308.900 275.500 308.800 275.600 308.900 275.600 H 311.800 C 311.855 275.600 311.900 275.555 311.900 275.500 V 269.500 C 311.900 269.445 311.855 269.400 311.800 269.400 H 308.900 C 308.800 269.400 308.900 269.500 308.900 269.400 V 263.500 C 308.900 263.445 308.855 263.400 308.800 263.400 H 214.800 C 214.745 263.400 214.700 263.445 214.700 263.500 V 269.400 C 214.700 269.500 214.800 269.400 214.700 269.400 H 211.800 C 211.745 269.400 211.700 269.445 211.700 269.500 V 275.500 C 211.700 275.555 211.745 275.600 211.800 275.600 H 214.700 C 214.800 275.600 214.700 275.500 214.700 275.600 V 281.400 C 214.700 281.500 214.800 281.400 214.700 281.400 H 211.800 C 211.745 281.400 211.700 281.445 211.700 281.500 V 287.500 C 211.700 287.555 211.745 287.600 211.800 287.600 H 214.700 C 214.800 287.600 214.700 287.500 214.700 287.600 V 293.400 C 214.700 293.500 214.800 293.400 214.700 293.400 H 211.800 C 211.745 293.400 211.700 293.445 211.700 293.500 V 299.500 C 211.700 299.555 211.745 299.600 211.800 299.600 H 214.700 C 214.800 299.600 214.700 299.500 214.700 299.600 V 305.400 C 214.700 305.500 214.800 305.400 214.700 305.400 H 211.800 C 211.745 305.400 211.700 305.445 211.700 305.500 V 311.500 C 211.700 311.555 211.745 311.600 211.800 311.600 H 214.700 C 214.800 311.600 214.700 311.500 214.700 311.600 V 317.400 C 214.700 317.500 214.800 317.400 214.700 317.400 H 211.800 C 211.745 317.400 211.700 317.445 211.700 317.500 V 323.500 C 211.700 323.555 211.745 323.600 211.800 323.600 H 214.700 C 214.800 323.600 214.700 323.500 214.700 323.600 V 329.400 C 214.700 329.500 214.800 329.400 214.700 329.400 H 211.800 C 211.745 329.400 211.700 329.445 211.700 329.500 V 335.500 C 211.700 335.555 211.745 335.600 211.800 335.600 H 214.700 C 214.800 335.600 214.700 335.500 214.700 335.600 V 341.400 C 214.700 341.500 214.800 341.400 214.700 341.400 H 211.800 C 211.745 341.400 211.700 341.445 211.700 341.500 V 347.500 C 211.700 347.555 211.745 347.600 211.800 347.600 H 214.700 C 214.800 347.600 214.700 347.500 214.700 347.600 V 353.400 C 214.700 353.500 214.800 353.400 214.700 353.400 H 211.800 C 211.745 353.400 211.700 353.445 211.700 353.500 V 359.500 C 211.700 359.555 211.745 359.600 211.800 359.600 H 214.700 C 214.800 359.600 214.700 359.500 214.700 359.600 V 365.400 C 214.700 365.500 214.800 365.400 214.700 365.400 H 211.800 C 211.745 365.400 211.700 365.445 211.700 365.500 V 371.500 C 211.700 371.555 211.745 371.600 211.800 371.600 H 214.700 C 214.800 371.600 214.700 371.500 214.700 371.600 V 377.400 C 214.700 377.500 214.800 377.400 214.700 377.400 H 211.800 C 211.745 377.400 211.700 377.445 211.700 377.500 V 383.500 C 211.700 383.555 211.745 383.600 211.800 383.600 H 214.700 C 214.800 383.600 214.700 383.500 214.700 383.600 V 389.400 C 214.700 389.500 214.800 389.400 214.700 389.400 H 211.800 C 211.745 389.400 211.700 389.445 211.700 389.500 V 395.500 C 211.700 395.555 211.745 395.600 211.800 395.600 H 214.700 C 214.800 395.600 214.700 395.500 214.700 395.600 V 401.400 C 214.700 401.500 214.800 401.400 214.700 401.400 H 211.800 C 211.745 401.400 211.700 401.445 211.700 401.500 V 407.500 C 211.700 407.555 211.745 407.600 211.800 407.600 H 214.700 C 214.800 407.600 214.700 407.500 214.700 407.600 V 413.500 C 214.700 413.555 214.745 413.600 214.800 413.600" stroke="rgb(0,0,0)" stroke-width="0.20" />
</g>
<g id="p-5" style="fill:none;stroke-linecap:round;stroke-linejoin:round;">
  <path d="M 225.800 258.700 H 222.900 C 222.800 258.700 222.900 258.800 222.900 258.700 V 255.900 C 222.900 255.800 222.800 255.900 222.900 255.900 H 228.700 C 228.800 255.900 228.700 255.800 228.700 255.900 V 258.700 C 228.700 258.800 228.800 258.700 228.700 258.700 H 225.800 Z" stroke="rgb(0,0,255)" stroke-width="0.20" />
  <path d="M 237.800 258.700 H 234.900 C 234.800 258.700 234.900 258.800 234.900 258.700 V 255.900 C 234.900 255.800 234.800 255.900 234.900 255.900 H 240.700 C 240.800 255.900 240.700 255.800 240.700 255.900 V 258.700 C 240.700 258.800 240.800 258.700 240.700 258.700 H 237.800 Z" stroke="rgb(0,0,255)" stroke-width="0.20" />
  <path d="M 249.800 258.700 H 246.900 C 246.800 258.700 246.900 258.800 246.900 258.700 V 255.900 C 246.900 255.800 246.800 255.900 246.900 255.900 H 252.700 C 252.800 255.900 252.700 255.800 252.700 255.900 V 258.700 C 252.700 258.800 252.800 258.700 252.700 258.700 H 249.800 Z" stroke="rgb(0,0,255)" stroke-width="0.20" />
  <path d="M 261.800 258.700 H 258.900 C 258.800 258.700 258.900 258.800 258.900 258.700 V 255.900 C 258.900 255.800 258.800 255.900 258.900 255.900 H 264.700 C 264.800 255.900 264.700 255.800 264.700 255.900 V 258.700 C 264.700 258.800 264.800 258.700 264.700 258.700 H 261.800 Z" stroke="rgb(0,0,255)" stroke-width="0.20" />
  <path d="M 273.800 258.700 H 270.900 C 270.800 258.700 270.900 258.800 270.900 258.700 V 255.900 C 270.900 255.800 270.800 255.900 270.900 255.900 H 276.700 C 276.800 255.900 276.700 255.800 276.700 255.900 V 258.700 C 276.700 258.800 276.800 258.700 276.700 258.700 H 273.800 Z" stroke="rgb(0,0,255)" stroke-width="0.20" />
  <path d="M 285.800 258.700 H 282.900 C 282.800 258.700 282.900 258.800 282.900 258.700 V 255.900 C 282.900 255.800 282.800 255.900 282.900 255.900 H 288.700 C 288.800 255.900 288.700 255.800 288.700 255.900 V 258.700 C 288.700 258.800 288.800 258.700 288.700 258.700 H 285.800 Z" stroke="rgb(0,0,255)" stroke-width="0.20" />
  <path d="M 297.800 258.700 H 294.900 C 294.800 258.700 294.900 258.800 294.900 258.700 V 255.900 C 294.900 255.800 294.800 255.900 294.900 255.900 H 300.700 C 300.800 255.900 300.700 255.800 300.700 255.900 V 258.700 C 300.700 258.800 300.800 258.700 300.700 258.700 H 297.800 Z" stroke="rgb(0,0,255)" stroke-width="0.20" />
  <text dominant-baseline="hanging" font-size="4px" style="font-family: sans-serif ; font-weight: normal; font-style: normal; fill: rgb(255,0,0)" text-anchor="middle" transform="matrix( 1.000 0.000 0.000 1.000 261.800 184.900 )">right</text><path d="M 214.800 261.900 H 308.800 C 308.855 261.900 308.900 261.855 308.900 261.800 V 255.900 C 308.900 255.800 308.800 255.900 308.900 255.900 H 311.800 C 311.855 255.900 311.900 255.855 311.900 255.800 V 249.800 C 311.900 249.745 311.855 249.700 311.800 249.700 H 308.900 C 308.800 249.700 308.900 249.800 308.900 249.700 V 243.900 C 308.900 243.800 308.800 243.900 308.900 243.900 H 311.800 C 311.855 243.900 311.900 243.855 311.900 243.800 V 237.800 C 311.900 237.745 311.855 237.700 311.800 237.700 H 308.900 C 308.800 237.700 308.900 237.800 308.900 237.700 V 231.900 C 308.900 231.800 308.800 231.900 308.900 231.900 H 311.800 C 311.855 231.900 311.900 231.855 311.900 231.800 V 225.800 C 311.900 225.745 311.855 225.700 311.800 225.700 H 308.900 C 308.800 225.700 308.900 225.800 308.900 225.700 V 219.900 C 308.900 219.800 308.800 219.900 308.900 219.900 H 311.800 C 311.855 219.900 311.900 219.855 311.900 219.800 V 213.800 C 311.900 213.745 311.855 213.700 311.800 213.700 H 308.900 C 308.800 213.700 308.900 213.800 308.900 213.700 V 207.900 C 308.900 207.800 308.800 207.900 308.900 207.900 H 311.800 C 311.855 207.900 311.900 207.855 311.900 207.800 V 201.800 C 311.900 201.745 311.855 201.700 311.800 201.700 H 308.900 C 308.800 201.700 308.900 201.800 308.900 201.700 V 195.900 C 308.900 195.800 308.800 195.900 308.900 195.900 H 311.800 C 311.855 195.900 311.900 195.855 311.900 195.800 V 189.800 C 311.900 189.745 311.855 189.700 311.800 189.700 H 308.900 C 308.800 189.700 308.900 189.800 308.900 189.700 V 183.900 C 308.900 183.800 308.800 183.900 308.900 183.900 H 311.800 C 311.855 183.900 311.900 183.855 311.900 183.800 V 177.800 C 311.900 177.745 311.855 177.700 311.800 177.700 H 308.900 C 308.800 177.700 308.900 177.800 308.900 177.700 V 171.900 C 308.900 171.800 308.800 171.900 308.900 171.900 H 311.800 C 311.855 171.900 311.900 171.855 311.900 171.800 V 165.800 C 311.900 165.745 311.855 165.700 311.800 165.700 H 308.900 C 308.800 165.700 308.900 165.800 308.900 165.700 V 159.900 C 308.900 159.800 308.800 159.900 308.900 159.900 H 311.800 C 311.855 159.900 311.900 159.855 311.900 159.800 V 153.800 C 311.900 153.745 311.855 153.700 311.800 153.700 H 308.900 C 308.800 153.700 308.900 153.800 308.900 153.700 V 147.900 C 308.900 147.800 308.800 147.900 308.900 147.900 H 311.800 C 311.855 147.900 311.900 147.855 311.900 147.800 V 141.800 C 311.900 141.745 311.855 141.700 311.800 141.700 H 308.900 C 308.800 141.700 308.900 141.800 308.900 141.700 V 135.900 C 308.900 135.800 308.800 135.900 308.900 135.900 H 311.800 C 311.855 135.900 311.900 135.855 311.900 135.800 V 129.800 C 311.900 129.745 311.855 129.700 311.800 129.700 H 308.900 C 308.800 129.700 308.900 129.800 308.900 129.700 V 123.900 C 308.900 123.800 308.800 123.900 308.900 123.900 H 311.800 C 311.855 123.900 311.900 123.855 311.900 123.800 V 117.800 C 311.900 117.745 311.855 117.700 311.800 117.700 H 308.900 C 308.800 117.700 308.900 117.800 308.900 117.700 V 111.800 C 308.900 111.745 308.855 111.700 308.800 111.700 H 214.800 C 214.745 111.700 214.700 111.745 214.700 111.800 V 117.700 C 214.700 117.800 214.800 117.700 214.700 117.700 H 211.800 C 211.745 117.700 211.700 117.745 211.700 117.800 V 123.800 C 211.700 123.855 211.745 123.900 211.800 123.900 H 214.700 C 214.800 123.900 214.700 123.800 214.700 123.900 V 129.700 C 214.700 129.800 214.800 129.700 214.700 129.700 H 211.800 C 211.745 129.700 211.700 129.745 211.700 129.800 V 135.800 C 211.700 135.855 211.745 135.900 211.800 135.900 H 214.700 C 214.800 135.900 214.700 135.800 214.700 135.900 V 141.700 C 214.700 141.800 214.800 141.700 214.700 141.700 H 211.800 C 211.745 141.700 211.700 141.745 211.700 141.800 V 147.800 C 211.700 147.855 211.745 147.900 211.800 147.900 H 214.700 C 214.800 147.900 214.700 147.800 214.700 147.900 V 153.700 C 214.700 153.800 214.800 153.700 214.700 153.700 H 211.800 C 211.745 153.700 211.700 153.745 211.700 153.800 V 159.800 C 211.700 159.855 211.745 159.900 211.800 159.900 H 214.700 C 214.800 159.900 214.700 159.800 214.700 159.900 V 165.700 C 214.700 165.800 214.800 165.700 214.700 165.700 H 211.800 C 211.745 165.700 211.700 165.745 211.700 165.800 V 171.800 C 211.700 171.855 211.745 171.900 211.800 171.900 H 214.700 C 214.800 171.900 214.700 171.800 214.700 171.900 V 177.700 C 214.700 177.800 214.800 177.700 214.700 177.700 H 211.800 C 211.745 177.700 211.700 177.745 211.700 177.800 V 183.800 C 211.700 183.855 211.745 183.900 211.800 183.900 H 214.700 C 214.800 183.900 214.700 183.800 214.700 183.900 V 189.700 C 214.700 189.800 214.800 189.700 214.700 189.700 H 211.800 C 211.745 189.700 211.700 189.745 211.700 189.800 V 195.800 C 211.700 195.855 211.745 195.900 211.800 195.900 H 214.700 C 214.800 195.900 214.700 195.800 214.700 195.900 V 201.700 C 214.700 201.800 214.800 201.700 214.700 201.700 H 211.800 C 211.745 201.700 211.700 201.745 211.700 201.800 V 207.800 C 211.700 207.855 211.745 207.900 211.800 207.900 H 214.700 C 214.800 207.900 214.700 207.800 214.700 207.900 V 213.700 C 214.700 213.800 214.800 213.700 214.700 213.700 H 211.800 C 211.745 213.700 211.700 213.745 211.700 213.800 V 219.800 C 211.700 219.855 211.745 219.900 211.800 219.900 H 214.700 C 214.800 219.900 214.700 219.800 214.700 219.900 V 225.700 C 214.700 225.800 214.800 225.700 214.700 225.700 H 211.800 C 211.745 225.700 211.700 225.745 211.700 225.800 V 231.800 C 211.700 231.855 211.745 231.900 211.800 231.900 H 214.700 C 214.800 231.900 214.700 231.800 214.700 231.900 V 237.700 C 214.700 237.800 214.800 237.700 214.700 237.700 H 211.800 C 211.745 237.700 211.700 237.745 211.700 237.800 V 243.800 C 211.700 243.855 211.745 243.900 211.800 243.900 H 214.700 C 214.800 243.900 214.700 243.800 214.700 243.900 V 249.700 C 214.700 249.800 214.800 249.700 214.700 249.700 H 211.800 C 211.745 249.700 211.700 249.745 211.700 249.800 V 255.800 C 211.700 255.855 211.745 255.900 211.800 255.900 H 214.700 C 214.800 255.900 214.700 255.800 214.700 255.900 V 261.800 C 214.700 261.855 214.745 261.900 214.800 261.900" stroke="rgb(0,0,0)" stroke-width="0.20" />
</g>
</svg>